<?xml version="1.0" encoding="UTF-8" standalone="no"?>
<!DOCTYPE svg PUBLIC "-//W3C//DTD SVG 1.1//EN"
 "http://www.w3.org/Graphics/SVG/1.1/DTD/svg11.dtd">
<!-- Generated by graphviz version 2.43.0 (0)
 -->
<!-- Title: include/safeapi/redundancy/checksum/sapi_checksum.h Pages: 1 -->
<svg width="995pt" height="302pt"
 viewBox="0.00 0.00 994.50 302.00" xmlns="http://www.w3.org/2000/svg" xmlns:xlink="http://www.w3.org/1999/xlink">
<g id="graph0" class="graph" transform="scale(1 1) rotate(0) translate(4 298)">
<title>include/safeapi/redundancy/checksum/sapi_checksum.h</title>
<!-- Node1 -->
<g id="Node000001" class="node">
<title>Node1</title>
<g id="a_Node000001"><a xlink:title="Checksum and CRC utilities for data integrity in redundant systems.">
<polygon fill="#999999" stroke="#666666" points="680,-294 524,-294 524,-264 680,-264 680,-294"/>
<text text-anchor="start" x="532" y="-282" font-family="Helvetica,sans-Serif" font-size="10.00">include/safeapi/redundancy</text>
<text text-anchor="middle" x="602" y="-271" font-family="Helvetica,sans-Serif" font-size="10.00">/checksum/sapi_checksum.h</text>
</a>
</g>
</g>
<!-- Node2 -->
<g id="Node000002" class="node">
<title>Node2</title>
<g id="a_Node000002"><a xlink:href="sapi__dual__msgchannel_8h.html" target="_top" xlink:title="&quot;Channel&quot; layer of ADR&#45;020: one EN 50159&#45;defended message channel over one already&#45;open sapi_netlink_...">
<polygon fill="white" stroke="#666666" points="488,-228 324,-228 324,-198 488,-198 488,-228"/>
<text text-anchor="start" x="332" y="-216" font-family="Helvetica,sans-Serif" font-size="10.00">include/safeapi/redundancy</text>
<text text-anchor="middle" x="406" y="-205" font-family="Helvetica,sans-Serif" font-size="10.00">/dual/sapi_dual_msgchannel.h</text>
</a>
</g>
</g>
<!-- Node1&#45;&gt;Node2 -->
<g id="edge1_Node000001_Node000002" class="edge">
<title>Node1&#45;&gt;Node2</title>
<g id="a_edge1_Node000001_Node000002"><a xlink:title=" ">
<path fill="none" stroke="#63b8ff" d="M549.09,-260.72C517.68,-250.47 478.38,-237.63 448.91,-228.01"/>
<polygon fill="#63b8ff" stroke="#63b8ff" points="548.39,-264.18 558.99,-263.95 550.57,-257.52 548.39,-264.18"/>
</a>
</g>
</g>
<!-- Node7 -->
<g id="Node000007" class="node">
<title>Node7</title>
<g id="a_Node000007"><a xlink:href="sapi__safechannel_8c.html" target="_top" xlink:title="Unified channel factory: opens netlink links internally, wraps sapi_dual_channel_t or a sapi_voter_t ...">
<polygon fill="white" stroke="#666666" points="464.5,-30 311.5,-30 311.5,0 464.5,0 464.5,-30"/>
<text text-anchor="start" x="319.5" y="-18" font-family="Helvetica,sans-Serif" font-size="10.00">src/redundancy/safechannel</text>
<text text-anchor="middle" x="388" y="-7" font-family="Helvetica,sans-Serif" font-size="10.00">/sapi_safechannel.c</text>
</a>
</g>
</g>
<!-- Node1&#45;&gt;Node7 -->
<g id="edge12_Node000001_Node000007" class="edge">
<title>Node1&#45;&gt;Node7</title>
<g id="a_edge12_Node000001_Node000007"><a xlink:title=" ">
<path fill="none" stroke="#63b8ff" d="M566.57,-258.25C555,-250.23 543.06,-240 535,-228 493.51,-166.26 540.35,-123.36 493,-66 479.18,-49.26 458.46,-37.76 439.06,-30.06"/>
<polygon fill="#63b8ff" stroke="#63b8ff" points="564.99,-261.4 575.27,-263.95 568.82,-255.55 564.99,-261.4"/>
</a>
</g>
</g>
<!-- Node10 -->
<g id="Node000010" class="node">
<title>Node10</title>
<g id="a_Node000010"><a xlink:href="sapi__appmanager_8c.html" target="_top" xlink:title="Application Manager implementation.">
<polygon fill="white" stroke="#666666" points="660,-228 544,-228 544,-198 660,-198 660,-228"/>
<text text-anchor="start" x="552" y="-216" font-family="Helvetica,sans-Serif" font-size="10.00">src/app/appmanager</text>
<text text-anchor="middle" x="602" y="-205" font-family="Helvetica,sans-Serif" font-size="10.00">/sapi_appmanager.c</text>
</a>
</g>
</g>
<!-- Node1&#45;&gt;Node10 -->
<g id="edge9_Node000001_Node000010" class="edge">
<title>Node1&#45;&gt;Node10</title>
<g id="a_edge9_Node000001_Node000010"><a xlink:title=" ">
<path fill="none" stroke="#63b8ff" d="M602,-253.54C602,-244.96 602,-235.61 602,-228.16"/>
<polygon fill="#63b8ff" stroke="#63b8ff" points="598.5,-253.8 602,-263.8 605.5,-253.8 598.5,-253.8"/>
</a>
</g>
</g>
<!-- Node11 -->
<g id="Node000011" class="node">
<title>Node11</title>
<g id="a_Node000011"><a xlink:href="sapi__checkpoint_8c.html" target="_top" xlink:title="Implementation of the bounded checkpoint rendezvous (ADR&#45;017).">
<polygon fill="white" stroke="#666666" points="825.5,-228 678.5,-228 678.5,-198 825.5,-198 825.5,-228"/>
<text text-anchor="start" x="686.5" y="-216" font-family="Helvetica,sans-Serif" font-size="10.00">src/redundancy/checkpoint</text>
<text text-anchor="middle" x="752" y="-205" font-family="Helvetica,sans-Serif" font-size="10.00">/sapi_checkpoint.c</text>
</a>
</g>
</g>
<!-- Node1&#45;&gt;Node11 -->
<g id="edge10_Node000001_Node000011" class="edge">
<title>Node1&#45;&gt;Node11</title>
<g id="a_edge10_Node000001_Node000011"><a xlink:title=" ">
<path fill="none" stroke="#63b8ff" d="M644.38,-259.92C668.08,-249.8 697.19,-237.38 719.16,-228.01"/>
<polygon fill="#63b8ff" stroke="#63b8ff" points="642.74,-256.81 634.92,-263.95 645.49,-263.25 642.74,-256.81"/>
</a>
</g>
</g>
<!-- Node12 -->
<g id="Node000012" class="node">
<title>Node12</title>
<g id="a_Node000012"><a xlink:href="sapi__checksum_8c.html" target="_top" xlink:title="CRC&#45;64 implementation for data integrity checking.">
<polygon fill="white" stroke="#666666" points="986.5,-228 843.5,-228 843.5,-198 986.5,-198 986.5,-228"/>
<text text-anchor="start" x="851.5" y="-216" font-family="Helvetica,sans-Serif" font-size="10.00">src/redundancy/checksum</text>
<text text-anchor="middle" x="915" y="-205" font-family="Helvetica,sans-Serif" font-size="10.00">/sapi_checksum.c</text>
</a>
</g>
</g>
<!-- Node1&#45;&gt;Node12 -->
<g id="edge11_Node000001_Node000012" class="edge">
<title>Node1&#45;&gt;Node12</title>
<g id="a_edge11_Node000001_Node000012"><a xlink:title=" ">
<path fill="none" stroke="#63b8ff" d="M680.69,-261.91C731.73,-251.47 797.58,-238.01 846.47,-228.01"/>
<polygon fill="#63b8ff" stroke="#63b8ff" points="679.79,-258.52 670.69,-263.95 681.19,-265.38 679.79,-258.52"/>
</a>
</g>
</g>
<!-- Node3 -->
<g id="Node000003" class="node">
<title>Node3</title>
<g id="a_Node000003"><a xlink:href="sapi__dual__channel_8h.html" target="_top" xlink:title="&quot;DualChannel&quot; layer of ADR&#45;020: wraps 1..N redundant sapi_dual_msgchannel_t links for fault&#45;tolerant,...">
<polygon fill="white" stroke="#666666" points="330.5,-162 179.5,-162 179.5,-132 330.5,-132 330.5,-162"/>
<text text-anchor="start" x="187.5" y="-150" font-family="Helvetica,sans-Serif" font-size="10.00">include/safeapi/redundancy</text>
<text text-anchor="middle" x="255" y="-139" font-family="Helvetica,sans-Serif" font-size="10.00">/dual/sapi_dual_channel.h</text>
</a>
</g>
</g>
<!-- Node2&#45;&gt;Node3 -->
<g id="edge2_Node000002_Node000003" class="edge">
<title>Node2&#45;&gt;Node3</title>
<g id="a_edge2_Node000002_Node000003"><a xlink:title=" ">
<path fill="none" stroke="#63b8ff" d="M363.34,-193.92C339.47,-183.8 310.17,-171.38 288.06,-162.01"/>
<polygon fill="#63b8ff" stroke="#63b8ff" points="362.29,-197.28 372.86,-197.95 365.02,-190.83 362.29,-197.28"/>
</a>
</g>
</g>
<!-- Node9 -->
<g id="Node000009" class="node">
<title>Node9</title>
<g id="a_Node000009"><a xlink:href="sapi__dual__msgchannel_8c.html" target="_top" xlink:title="&quot;Channel&quot; layer of ADR&#45;020 &#45; see sapi_dual_msgchannel.h.">
<polygon fill="white" stroke="#666666" points="487.5,-162 348.5,-162 348.5,-132 487.5,-132 487.5,-162"/>
<text text-anchor="start" x="356.5" y="-150" font-family="Helvetica,sans-Serif" font-size="10.00">src/redundancy/dual</text>
<text text-anchor="middle" x="418" y="-139" font-family="Helvetica,sans-Serif" font-size="10.00">/sapi_dual_msgchannel.c</text>
</a>
</g>
</g>
<!-- Node2&#45;&gt;Node9 -->
<g id="edge8_Node000002_Node000009" class="edge">
<title>Node2&#45;&gt;Node9</title>
<g id="a_edge8_Node000002_Node000009"><a xlink:title=" ">
<path fill="none" stroke="#63b8ff" d="M410.53,-187.83C412.16,-179.17 413.93,-169.7 415.34,-162.16"/>
<polygon fill="#63b8ff" stroke="#63b8ff" points="407.07,-187.32 408.66,-197.8 413.95,-188.61 407.07,-187.32"/>
</a>
</g>
</g>
<!-- Node4 -->
<g id="Node000004" class="node">
<title>Node4</title>
<g id="a_Node000004"><a xlink:href="sapi__dual__negotiator_8h.html" target="_top" xlink:title="Dual state negotiator of ADR&#45;020: decides sapi_dual_state_t for both this instance and its peer,...">
<polygon fill="white" stroke="#666666" points="154,-96 0,-96 0,-66 154,-66 154,-96"/>
<text text-anchor="start" x="8" y="-84" font-family="Helvetica,sans-Serif" font-size="10.00">include/safeapi/redundancy</text>
<text text-anchor="middle" x="77" y="-73" font-family="Helvetica,sans-Serif" font-size="10.00">/dual/sapi_dual_negotiator.h</text>
</a>
</g>
</g>
<!-- Node3&#45;&gt;Node4 -->
<g id="edge3_Node000003_Node000004" class="edge">
<title>Node3&#45;&gt;Node4</title>
<g id="a_edge3_Node000003_Node000004"><a xlink:title=" ">
<path fill="none" stroke="#63b8ff" d="M206.21,-128.46C177.81,-118.25 142.5,-105.55 115.97,-96.01"/>
<polygon fill="#63b8ff" stroke="#63b8ff" points="205.34,-131.86 215.94,-131.95 207.71,-125.28 205.34,-131.86"/>
</a>
</g>
</g>
<!-- Node6 -->
<g id="Node000006" class="node">
<title>Node6</title>
<g id="a_Node000006"><a xlink:href="sapi__safechannel_8h.html" target="_top" xlink:title="Unified, transport&#45;hiding channel factory (ADR&#45;022).">
<polygon fill="white" stroke="#666666" points="348,-96 172,-96 172,-66 348,-66 348,-96"/>
<text text-anchor="start" x="180" y="-84" font-family="Helvetica,sans-Serif" font-size="10.00">include/safeapi/redundancy</text>
<text text-anchor="middle" x="260" y="-73" font-family="Helvetica,sans-Serif" font-size="10.00">/safechannel/sapi_safechannel.h</text>
</a>
</g>
</g>
<!-- Node3&#45;&gt;Node6 -->
<g id="edge5_Node000003_Node000006" class="edge">
<title>Node3&#45;&gt;Node6</title>
<g id="a_edge5_Node000003_Node000006"><a xlink:title=" ">
<path fill="none" stroke="#63b8ff" d="M256.89,-121.83C257.56,-113.17 258.3,-103.7 258.89,-96.16"/>
<polygon fill="#63b8ff" stroke="#63b8ff" points="253.4,-121.55 256.11,-131.8 260.38,-122.1 253.4,-121.55"/>
</a>
</g>
</g>
<!-- Node8 -->
<g id="Node000008" class="node">
<title>Node8</title>
<g id="a_Node000008"><a xlink:href="sapi__dual__channel_8c.html" target="_top" xlink:title="&quot;DualChannel&quot; layer of ADR&#45;020 &#45; see sapi_dual_channel.h.">
<polygon fill="white" stroke="#666666" points="484,-96 366,-96 366,-66 484,-66 484,-96"/>
<text text-anchor="start" x="374" y="-84" font-family="Helvetica,sans-Serif" font-size="10.00">src/redundancy/dual</text>
<text text-anchor="middle" x="425" y="-73" font-family="Helvetica,sans-Serif" font-size="10.00">/sapi_dual_channel.c</text>
</a>
</g>
</g>
<!-- Node3&#45;&gt;Node8 -->
<g id="edge7_Node000003_Node000008" class="edge">
<title>Node3&#45;&gt;Node8</title>
<g id="a_edge7_Node000003_Node000008"><a xlink:title=" ">
<path fill="none" stroke="#63b8ff" d="M301.96,-128.32C329.01,-118.14 362.55,-105.51 387.78,-96.01"/>
<polygon fill="#63b8ff" stroke="#63b8ff" points="300.43,-125.16 292.31,-131.95 302.9,-131.71 300.43,-125.16"/>
</a>
</g>
</g>
<!-- Node5 -->
<g id="Node000005" class="node">
<title>Node5</title>
<g id="a_Node000005"><a xlink:href="sapi__dual__negotiator_8c.html" target="_top" xlink:title="Dual state negotiator of ADR&#45;020 &#45; see sapi_dual_negotiator.h.">
<polygon fill="white" stroke="#666666" points="141.5,-30 12.5,-30 12.5,0 141.5,0 141.5,-30"/>
<text text-anchor="start" x="20.5" y="-18" font-family="Helvetica,sans-Serif" font-size="10.00">src/redundancy/dual</text>
<text text-anchor="middle" x="77" y="-7" font-family="Helvetica,sans-Serif" font-size="10.00">/sapi_dual_negotiator.c</text>
</a>
</g>
</g>
<!-- Node4&#45;&gt;Node5 -->
<g id="edge4_Node000004_Node000005" class="edge">
<title>Node4&#45;&gt;Node5</title>
<g id="a_edge4_Node000004_Node000005"><a xlink:title=" ">
<path fill="none" stroke="#63b8ff" d="M77,-55.54C77,-46.96 77,-37.61 77,-30.16"/>
<polygon fill="#63b8ff" stroke="#63b8ff" points="73.5,-55.8 77,-65.8 80.5,-55.8 73.5,-55.8"/>
</a>
</g>
</g>
<!-- Node6&#45;&gt;Node7 -->
<g id="edge6_Node000006_Node000007" class="edge">
<title>Node6&#45;&gt;Node7</title>
<g id="a_edge6_Node000006_Node000007"><a xlink:title=" ">
<path fill="none" stroke="#63b8ff" d="M297.24,-61.38C317.27,-51.36 341.57,-39.22 359.98,-30.01"/>
<polygon fill="#63b8ff" stroke="#63b8ff" points="295.47,-58.35 288.09,-65.95 298.6,-64.61 295.47,-58.35"/>
</a>
</g>
</g>
</g>
</svg>
