<?xml version="1.0" encoding="UTF-8" standalone="no"?>
<!DOCTYPE svg PUBLIC "-//W3C//DTD SVG 1.1//EN"
 "http://www.w3.org/Graphics/SVG/1.1/DTD/svg11.dtd">
<!-- Generated by graphviz version 2.43.0 (0)
 -->
<!-- Title: include/safeapi/utils/safestate/sapi_safestate.h Pages: 1 -->
<!--zoomable 115 -->

<svg id="main" version="1.1" xmlns="http://www.w3.org/2000/svg" xmlns:xlink="http://www.w3.org/1999/xlink" xml:space="preserve" onload="init(evt)">
<style type="text/css"><![CDATA[
.node, .edge {opacity: 0.7;}
.node.selected, .edge.selected {opacity: 1;}
.edge:hover path { stroke: red; }
.edge:hover polygon { stroke: red; fill: red; }
]]></style>

<defs>
  <circle id="rim" cx="0" cy="0" r="7"/>
  <circle id="rim2" cx="0" cy="0" r="3.5"/>
  <g id="zoomPlus">
    <use xlink:href="#rim" fill="#404040"><set attributeName="fill" to="#808080" begin="zoomplus.mouseover" end="zoomplus.mouseout"/></use>
    <path d="M-4,0h8M0,-4v8" fill="none" stroke="white" stroke-width="1.5" pointer-events="none"/>
  </g>
  <g id="zoomMin">
    <use xlink:href="#rim" fill="#404040"><set attributeName="fill" to="#808080" begin="zoomminus.mouseover" end="zoomminus.mouseout"/></use>
    <path d="M-4,0h8" fill="none" stroke="white" stroke-width="1.5" pointer-events="none"/>
  </g>
  <g id="arrowUp" transform="translate(30 24)">
    <use xlink:href="#rim"/>
    <path pointer-events="none" fill="none" stroke="white" stroke-width="1.5" d="M0,-3.0v7 M-2.5,-0.5L0,-3.0L2.5,-0.5"/>
  </g>
  <g id="arrowRight" transform="rotate(90) translate(36 -43)">
    <use xlink:href="#rim"/>
    <path pointer-events="none" fill="none" stroke="white" stroke-width="1.5" d="M0,-3.0v7 M-2.5,-0.5L0,-3.0L2.5,-0.5"/>
  </g>
  <g id="arrowDown" transform="rotate(180) translate(-30 -48)">
    <use xlink:href="#rim"/>
    <path pointer-events="none" fill="none" stroke="white" stroke-width="1.5" d="M0,-3.0v7 M-2.5,-0.5L0,-3.0L2.5,-0.5"/>
  </g>
  <g id="arrowLeft" transform="rotate(270) translate(-36 17)">
    <use xlink:href="#rim"/>
    <path pointer-events="none" fill="none" stroke="white" stroke-width="1.5" d="M0,-3.0v7 M-2.5,-0.5L0,-3.0L2.5,-0.5"/>
  </g>
  <g id="resetDef">
    <use xlink:href="#rim2" fill="#404040"><set attributeName="fill" to="#808080" begin="reset.mouseover" end="reset.mouseout"/></use>
  </g>
</defs>
<script type="application/ecmascript">
var viewWidth = 725;
var viewHeight = 115;
var sectionId = 'dynsection-1';
</script>
<script type="application/ecmascript" xlink:href="svg.min.js"/>
<svg id="graph" class="graph">
<g id="viewport">
<title>include/safeapi/utils/safestate/sapi_safestate.h</title>
<!-- Node1 -->
<g id="Node000001" class="node">
<title>Node1</title>
<g id="a_Node000001"><a xlink:title="Safe&#45;state transitions and checked assertions (ADR&#45;004).">
<polygon fill="#999999" stroke="#666666" points="450,-107 301,-107 301,-77 450,-77 450,-107"/>
<text text-anchor="start" x="309" y="-95" font-family="Helvetica,sans-Serif" font-size="10.00">include/safeapi/utils</text>
<text text-anchor="middle" x="375.5" y="-84" font-family="Helvetica,sans-Serif" font-size="10.00">/safestate/sapi_safestate.h</text>
</a>
</g>
</g>
<!-- Node2 -->
<g id="Node000002" class="node">
<title>Node2</title>
<g id="a_Node000002"><a xlink:href="sapi__checkpoint_8c.html" target="_top" xlink:title="Implementation of the bounded checkpoint rendezvous (ADR&#45;017).">
<polygon fill="white" stroke="#666666" points="147,-35.5 0,-35.5 0,-5.5 147,-5.5 147,-35.5"/>
<text text-anchor="start" x="8" y="-23.5" font-family="Helvetica,sans-Serif" font-size="10.00">src/redundancy/checkpoint</text>
<text text-anchor="middle" x="73.5" y="-12.5" font-family="Helvetica,sans-Serif" font-size="10.00">/sapi_checkpoint.c</text>
</a>
</g>
</g>
<!-- Node1&#45;&gt;Node2 -->
<g id="edge1_Node000001_Node000002" class="edge">
<title>Node1&#45;&gt;Node2</title>
<g id="a_edge1_Node000001_Node000002"><a xlink:title=" ">
<path fill="none" stroke="#63b8ff" d="M303.89,-74.77C261.1,-65.04 205.67,-52.39 156.5,-41 149,-39.26 141.12,-37.43 133.33,-35.6"/>
<polygon fill="#63b8ff" stroke="#63b8ff" points="303.12,-78.18 313.65,-76.99 304.67,-71.36 303.12,-78.18"/>
</a>
</g>
</g>
<!-- Node3 -->
<g id="Node000003" class="node">
<title>Node3</title>
<g id="a_Node000003"><a xlink:href="sapi__cross__comparator_8c.html" target="_top" xlink:title="Pairwise channel comparison (ADR&#45;025): validates parameters, receives from both registered channels,...">
<polygon fill="white" stroke="#666666" points="297.5,-41 165.5,-41 165.5,0 297.5,0 297.5,-41"/>
<text text-anchor="start" x="173.5" y="-29" font-family="Helvetica,sans-Serif" font-size="10.00">src/redundancy/cross</text>
<text text-anchor="start" x="173.5" y="-18" font-family="Helvetica,sans-Serif" font-size="10.00">_comparator/sapi_cross</text>
<text text-anchor="middle" x="231.5" y="-7" font-family="Helvetica,sans-Serif" font-size="10.00">_comparator.c</text>
</a>
</g>
</g>
<!-- Node1&#45;&gt;Node3 -->
<g id="edge2_Node000001_Node000003" class="edge">
<title>Node1&#45;&gt;Node3</title>
<g id="a_edge2_Node000001_Node000003"><a xlink:title=" ">
<path fill="none" stroke="#63b8ff" d="M337.19,-72.51C317.09,-62.81 292.47,-50.93 272.06,-41.07"/>
<polygon fill="#63b8ff" stroke="#63b8ff" points="335.83,-75.74 346.36,-76.94 338.87,-69.44 335.83,-75.74"/>
</a>
</g>
</g>
<!-- Node4 -->
<g id="Node000004" class="node">
<title>Node4</title>
<g id="a_Node000004"><a xlink:href="sapi__voter_8c.html" target="_top" xlink:title="N&#45;way voting engine (ADR&#45;025): validates parameters, dispatches send/receive to every registered heal...">
<polygon fill="white" stroke="#666666" points="435,-35.5 316,-35.5 316,-5.5 435,-5.5 435,-35.5"/>
<text text-anchor="start" x="324" y="-23.5" font-family="Helvetica,sans-Serif" font-size="10.00">src/redundancy/voter</text>
<text text-anchor="middle" x="375.5" y="-12.5" font-family="Helvetica,sans-Serif" font-size="10.00">/sapi_voter.c</text>
</a>
</g>
</g>
<!-- Node1&#45;&gt;Node4 -->
<g id="edge3_Node000001_Node000004" class="edge">
<title>Node1&#45;&gt;Node4</title>
<g id="a_edge3_Node000001_Node000004"><a xlink:title=" ">
<path fill="none" stroke="#63b8ff" d="M375.5,-66.75C375.5,-56.31 375.5,-44.49 375.5,-35.54"/>
<polygon fill="#63b8ff" stroke="#63b8ff" points="372,-66.94 375.5,-76.94 379,-66.94 372,-66.94"/>
</a>
</g>
</g>
<!-- Node5 -->
<g id="Node000005" class="node">
<title>Node5</title>
<g id="a_Node000005"><a xlink:href="sapi__watchdog_8c.html" target="_top" xlink:title="Real watchdog implementation: a fixed&#45;size pool of watchdog slots, timed via the already&#45;portable sap...">
<polygon fill="white" stroke="#666666" points="594,-35.5 453,-35.5 453,-5.5 594,-5.5 594,-35.5"/>
<text text-anchor="start" x="461" y="-23.5" font-family="Helvetica,sans-Serif" font-size="10.00">src/redundancy/watchdog</text>
<text text-anchor="middle" x="523.5" y="-12.5" font-family="Helvetica,sans-Serif" font-size="10.00">/sapi_watchdog.c</text>
</a>
</g>
</g>
<!-- Node1&#45;&gt;Node5 -->
<g id="edge4_Node000001_Node000005" class="edge">
<title>Node1&#45;&gt;Node5</title>
<g id="a_edge4_Node000001_Node000005"><a xlink:title=" ">
<path fill="none" stroke="#63b8ff" d="M414.57,-72.65C439.32,-61.03 470.84,-46.23 493.59,-35.54"/>
<polygon fill="#63b8ff" stroke="#63b8ff" points="413.01,-69.52 405.45,-76.94 415.99,-75.85 413.01,-69.52"/>
</a>
</g>
</g>
<!-- Node6 -->
<g id="Node000006" class="node">
<title>Node6</title>
<g id="a_Node000006"><a xlink:href="sapi__safestate_8c.html" target="_top" xlink:title="Implementation of the safe&#45;state transition facility (ADR&#45;004).">
<polygon fill="white" stroke="#666666" points="716.5,-35.5 612.5,-35.5 612.5,-5.5 716.5,-5.5 716.5,-35.5"/>
<text text-anchor="start" x="620.5" y="-23.5" font-family="Helvetica,sans-Serif" font-size="10.00">src/utils/safestate</text>
<text text-anchor="middle" x="664.5" y="-12.5" font-family="Helvetica,sans-Serif" font-size="10.00">/sapi_safestate.c</text>
</a>
</g>
</g>
<!-- Node1&#45;&gt;Node6 -->
<g id="edge5_Node000001_Node000006" class="edge">
<title>Node1&#45;&gt;Node6</title>
<g id="a_edge5_Node000001_Node000006"><a xlink:title=" ">
<path fill="none" stroke="#63b8ff" d="M457.53,-74.95C501.12,-65.93 555.49,-53.91 603.5,-41 609.62,-39.35 616.04,-37.48 622.32,-35.55"/>
<polygon fill="#63b8ff" stroke="#63b8ff" points="456.63,-71.56 447.54,-77 458.04,-78.41 456.63,-71.56"/>
</a>
</g>
</g>
</g>
</svg>

<g id="navigator" transform="translate(0 0)" fill="#404254">
  <rect fill="#f2f5e9" fill-opacity="0.5" stroke="#606060" stroke-width=".5" x="0" y="0" width="60" height="60"/>
  <use id="zoomplus" xlink:href="#zoomPlus" x="17" y="9" onmousedown="handleZoom(evt,'in')"/>
  <use id="zoomminus" xlink:href="#zoomMin" x="42" y="9" onmousedown="handleZoom(evt,'out')"/>
  <use id="reset" xlink:href="#resetDef" x="30" y="36" onmousedown="handleReset()"/>
   <use id="arrowup" xlink:href="#arrowUp" x="0" y="0" onmousedown="handlePan(0,-1)"/>
  <use id="arrowright" xlink:href="#arrowRight" x="0" y="0" onmousedown="handlePan(1,0)"/>
  <use id="arrowdown" xlink:href="#arrowDown" x="0" y="0" onmousedown="handlePan(0,1)"/>
  <use id="arrowleft" xlink:href="#arrowLeft" x="0" y="0" onmousedown="handlePan(-1,0)"/>
</g>
<svg viewBox="0 0 15 15" width="100%" height="30px" preserveAspectRatio="xMaxYMin meet">
 <g id="arrow_out" transform="scale(0.3 0.3)">
  <a xlink:href="sapi__safestate_8h__dep__incl_org.svg" target="_base">
   <rect id="button" ry="5" rx="5" y="6" x="6" height="38" width="38"
        fill="#f2f5e9" fill-opacity="0.5" stroke="#606060" stroke-width="1.0"/>
   <path id="arrow"
     d="M 11.500037,31.436501 C 11.940474,20.09759 22.043105,11.32322 32.158766,21.979434 L 37.068811,17.246167 C 37.068811,17.246167 37.088388,32 37.088388,32 L 22.160133,31.978069 C 22.160133,31.978069 26.997745,27.140456 26.997745,27.140456 C 18.528582,18.264221 13.291696,25.230495 11.500037,31.436501 z"
     style="fill:#404040;"/>
  </a>
 </g>
</svg>

<style type='text/css'>
<![CDATA[
[data-mouse-over-selected='false'] { opacity: 0.7; }
[data-mouse-over-selected='true']  { opacity: 1.0; }
]]>
</style>
<script type="application/ecmascript"><![CDATA[
document.addEventListener('DOMContentLoaded', (event) => {
  highlightEdges();
  highlightAdjacentNodes();
});
]]></script>
</svg>
