<?xml version="1.0" encoding="UTF-8" standalone="no"?>
<!DOCTYPE svg PUBLIC "-//W3C//DTD SVG 1.1//EN"
 "http://www.w3.org/Graphics/SVG/1.1/DTD/svg11.dtd">
<!-- Generated by graphviz version 2.43.0 (0)
 -->
<!-- Title: include/safeapi/redundancy/dual/sapi_dual_channel.h Pages: 1 -->
<!--zoomable 291 -->

<svg id="main" version="1.1" xmlns="http://www.w3.org/2000/svg" xmlns:xlink="http://www.w3.org/1999/xlink" xml:space="preserve" onload="init(evt)">
<style type="text/css"><![CDATA[
.node, .edge {opacity: 0.7;}
.node.selected, .edge.selected {opacity: 1;}
.edge:hover path { stroke: red; }
.edge:hover polygon { stroke: red; fill: red; }
]]></style>

<defs>
  <circle id="rim" cx="0" cy="0" r="7"/>
  <circle id="rim2" cx="0" cy="0" r="3.5"/>
  <g id="zoomPlus">
    <use xlink:href="#rim" fill="#404040"><set attributeName="fill" to="#808080" begin="zoomplus.mouseover" end="zoomplus.mouseout"/></use>
    <path d="M-4,0h8M0,-4v8" fill="none" stroke="white" stroke-width="1.5" pointer-events="none"/>
  </g>
  <g id="zoomMin">
    <use xlink:href="#rim" fill="#404040"><set attributeName="fill" to="#808080" begin="zoomminus.mouseover" end="zoomminus.mouseout"/></use>
    <path d="M-4,0h8" fill="none" stroke="white" stroke-width="1.5" pointer-events="none"/>
  </g>
  <g id="arrowUp" transform="translate(30 24)">
    <use xlink:href="#rim"/>
    <path pointer-events="none" fill="none" stroke="white" stroke-width="1.5" d="M0,-3.0v7 M-2.5,-0.5L0,-3.0L2.5,-0.5"/>
  </g>
  <g id="arrowRight" transform="rotate(90) translate(36 -43)">
    <use xlink:href="#rim"/>
    <path pointer-events="none" fill="none" stroke="white" stroke-width="1.5" d="M0,-3.0v7 M-2.5,-0.5L0,-3.0L2.5,-0.5"/>
  </g>
  <g id="arrowDown" transform="rotate(180) translate(-30 -48)">
    <use xlink:href="#rim"/>
    <path pointer-events="none" fill="none" stroke="white" stroke-width="1.5" d="M0,-3.0v7 M-2.5,-0.5L0,-3.0L2.5,-0.5"/>
  </g>
  <g id="arrowLeft" transform="rotate(270) translate(-36 17)">
    <use xlink:href="#rim"/>
    <path pointer-events="none" fill="none" stroke="white" stroke-width="1.5" d="M0,-3.0v7 M-2.5,-0.5L0,-3.0L2.5,-0.5"/>
  </g>
  <g id="resetDef">
    <use xlink:href="#rim2" fill="#404040"><set attributeName="fill" to="#808080" begin="reset.mouseover" end="reset.mouseout"/></use>
  </g>
</defs>
<script type="application/ecmascript">
var viewWidth = 664;
var viewHeight = 291;
var sectionId = 'dynsection-0';
</script>
<script type="application/ecmascript" xlink:href="svg.min.js"/>
<svg id="graph" class="graph">
<g id="viewport">
<title>include/safeapi/redundancy/dual/sapi_dual_channel.h</title>
<!-- Node1 -->
<g id="Node000001" class="node">
<title>Node1</title>
<g id="a_Node000001"><a xlink:title="&quot;DualChannel&quot; layer of ADR&#45;020: wraps 1..N redundant sapi_dual_msgchannel_t links for fault&#45;tolerant,...">
<polygon fill="#999999" stroke="#666666" points="471.11,-283 320.11,-283 320.11,-253 471.11,-253 471.11,-283"/>
<text text-anchor="start" x="328.11" y="-271" font-family="Helvetica,sans-Serif" font-size="10.00">include/safeapi/redundancy</text>
<text text-anchor="middle" x="395.61" y="-260" font-family="Helvetica,sans-Serif" font-size="10.00">/dual/sapi_dual_channel.h</text>
</a>
</g>
</g>
<!-- Node2 -->
<g id="Node000002" class="node">
<title>Node2</title>
<g id="a_Node000002"><a xlink:title=" ">
<polygon fill="#e0e0e0" stroke="#999999" points="180.11,-19 127.11,-19 127.11,0 180.11,0 180.11,-19"/>
<text text-anchor="middle" x="153.61" y="-7" font-family="Helvetica,sans-Serif" font-size="10.00">stdint.h</text>
</a>
</g>
</g>
<!-- Node1&#45;&gt;Node2 -->
<g id="edge1_Node000001_Node000002" class="edge">
<title>Node1&#45;&gt;Node2</title>
<g id="a_edge1_Node000001_Node000002"><a xlink:title=" ">
<path fill="none" stroke="#63b8ff" d="M319.92,-267.57C223.86,-266.53 65.99,-258.35 27.61,-217 -21.95,-163.6 1.12,-106.54 52.61,-55 70.26,-37.33 96.12,-26.12 117.26,-19.37"/>
<polygon fill="#63b8ff" stroke="#63b8ff" points="118.31,-22.7 126.89,-16.49 116.31,-16 118.31,-22.7"/>
</a>
</g>
</g>
<!-- Node3 -->
<g id="Node000003" class="node">
<title>Node3</title>
<g id="a_Node000003"><a xlink:title=" ">
<polygon fill="#e0e0e0" stroke="#999999" points="582.61,-19 520.61,-19 520.61,0 582.61,0 582.61,-19"/>
<text text-anchor="middle" x="551.61" y="-7" font-family="Helvetica,sans-Serif" font-size="10.00">stdbool.h</text>
</a>
</g>
</g>
<!-- Node1&#45;&gt;Node3 -->
<g id="edge2_Node000001_Node000003" class="edge">
<title>Node1&#45;&gt;Node3</title>
<g id="a_edge2_Node000001_Node000003"><a xlink:title=" ">
<path fill="none" stroke="#63b8ff" d="M471.36,-259.62C510.81,-253.03 558.43,-240.57 595.61,-217 627.62,-196.71 636.87,-186.69 649.61,-151 664.64,-108.9 648.71,-88.93 619.61,-55 608.56,-42.12 592.89,-31.52 579.37,-23.91"/>
<polygon fill="#63b8ff" stroke="#63b8ff" points="580.91,-20.76 570.45,-19.12 577.6,-26.93 580.91,-20.76"/>
</a>
</g>
</g>
<!-- Node4 -->
<g id="Node000004" class="node">
<title>Node4</title>
<g id="a_Node000004"><a xlink:href="sapi__dual__frames_8h.html" target="_top" xlink:title="Layer&#45;2 (DualChannel&#45;owned) frame kind/header definitions for ADR&#45;020 &#45; shared between sapi_dual_chan...">
<polygon fill="white" stroke="#666666" points="176.11,-217 37.11,-217 37.11,-187 176.11,-187 176.11,-217"/>
<text text-anchor="start" x="45.11" y="-205" font-family="Helvetica,sans-Serif" font-size="10.00">safeapi/redundancy</text>
<text text-anchor="middle" x="106.61" y="-194" font-family="Helvetica,sans-Serif" font-size="10.00">/dual/sapi_dual_frames.h</text>
</a>
</g>
</g>
<!-- Node1&#45;&gt;Node4 -->
<g id="edge3_Node000001_Node000004" class="edge">
<title>Node1&#45;&gt;Node4</title>
<g id="a_edge3_Node000001_Node000004"><a xlink:title=" ">
<path fill="none" stroke="#63b8ff" d="M332.19,-252.95C287.2,-242.99 226.71,-229.6 179.7,-219.19"/>
<polygon fill="#63b8ff" stroke="#63b8ff" points="180.4,-215.76 169.88,-217.01 178.89,-222.59 180.4,-215.76"/>
</a>
</g>
</g>
<!-- Node5 -->
<g id="Node000005" class="node">
<title>Node5</title>
<g id="a_Node000005"><a xlink:href="sapi__dual__types_8h.html" target="_top" xlink:title="Shared enums for the sapi_dual module (ADR&#45;020): dual&#45;instance state negotiation and the redundant,...">
<polygon fill="white" stroke="#666666" points="172.11,-151 41.11,-151 41.11,-121 172.11,-121 172.11,-151"/>
<text text-anchor="start" x="49.11" y="-139" font-family="Helvetica,sans-Serif" font-size="10.00">safeapi/redundancy</text>
<text text-anchor="middle" x="106.61" y="-128" font-family="Helvetica,sans-Serif" font-size="10.00">/dual/sapi_dual_types.h</text>
</a>
</g>
</g>
<!-- Node1&#45;&gt;Node5 -->
<g id="edge22_Node000001_Node000005" class="edge">
<title>Node1&#45;&gt;Node5</title>
<g id="a_edge22_Node000001_Node000005"><a xlink:title=" ">
<path fill="none" stroke="#63b8ff" d="M347.43,-252.91C318.56,-243.87 281.41,-231.2 249.61,-217 209.53,-199.1 165.81,-173.72 137.41,-156.37"/>
<polygon fill="#63b8ff" stroke="#63b8ff" points="139.1,-153.3 128.74,-151.04 135.43,-159.26 139.1,-153.3"/>
</a>
</g>
</g>
<!-- Node6 -->
<g id="Node000006" class="node">
<title>Node6</title>
<g id="a_Node000006"><a xlink:href="sapi__dual__msgchannel_8h.html" target="_top" xlink:title="&quot;Channel&quot; layer of ADR&#45;020: one EN 50159&#45;defended message channel over one already&#45;open sapi_netlink_...">
<polygon fill="white" stroke="#666666" points="422.61,-217 258.61,-217 258.61,-187 422.61,-187 422.61,-217"/>
<text text-anchor="start" x="266.61" y="-205" font-family="Helvetica,sans-Serif" font-size="10.00">safeapi/redundancy</text>
<text text-anchor="middle" x="340.61" y="-194" font-family="Helvetica,sans-Serif" font-size="10.00">/dual/sapi_dual_msgchannel.h</text>
</a>
</g>
</g>
<!-- Node1&#45;&gt;Node6 -->
<g id="edge7_Node000001_Node000006" class="edge">
<title>Node1&#45;&gt;Node6</title>
<g id="a_edge7_Node000001_Node000006"><a xlink:title=" ">
<path fill="none" stroke="#63b8ff" d="M383.4,-252.8C376.35,-244.59 367.34,-234.1 359.4,-224.87"/>
<polygon fill="#63b8ff" stroke="#63b8ff" points="361.95,-222.47 352.78,-217.16 356.64,-227.03 361.95,-222.47"/>
</a>
</g>
</g>
<!-- Node9 -->
<g id="Node000009" class="node">
<title>Node9</title>
<g id="a_Node000009"><a xlink:href="sapi__status_8h.html" target="_top" xlink:title="Common status/error codes returned by every Safe API Framework function. Shared across all OS Abstrac...">
<polygon fill="white" stroke="#666666" points="610.61,-85 500.61,-85 500.61,-55 610.61,-55 610.61,-85"/>
<text text-anchor="start" x="508.61" y="-73" font-family="Helvetica,sans-Serif" font-size="10.00">safeapi/utils/status</text>
<text text-anchor="middle" x="555.61" y="-62" font-family="Helvetica,sans-Serif" font-size="10.00">/sapi_status.h</text>
</a>
</g>
</g>
<!-- Node1&#45;&gt;Node9 -->
<g id="edge24_Node000001_Node000009" class="edge">
<title>Node1&#45;&gt;Node9</title>
<g id="a_edge24_Node000001_Node000009"><a xlink:title=" ">
<path fill="none" stroke="#63b8ff" d="M468.83,-252.98C524.63,-238.04 597.79,-208.3 633.61,-151 640.68,-139.69 640,-132.7 633.61,-121 626.4,-107.81 614.06,-97.59 601.3,-89.93"/>
<polygon fill="#63b8ff" stroke="#63b8ff" points="602.9,-86.81 592.45,-85.02 599.5,-92.93 602.9,-86.81"/>
</a>
</g>
</g>
<!-- Node10 -->
<g id="Node000010" class="node">
<title>Node10</title>
<g id="a_Node000010"><a xlink:href="sapi__types_8h.html" target="_top" xlink:title="Common fixed&#45;width types and the caller&#45;owned&#45;storage handle pattern used by every OAL service (see A...">
<polygon fill="white" stroke="#666666" points="466.11,-85 359.11,-85 359.11,-55 466.11,-55 466.11,-85"/>
<text text-anchor="start" x="367.11" y="-73" font-family="Helvetica,sans-Serif" font-size="10.00">safeapi/utils/types</text>
<text text-anchor="middle" x="412.61" y="-62" font-family="Helvetica,sans-Serif" font-size="10.00">/sapi_types.h</text>
</a>
</g>
</g>
<!-- Node1&#45;&gt;Node10 -->
<g id="edge25_Node000001_Node000010" class="edge">
<title>Node1&#45;&gt;Node10</title>
<g id="a_edge25_Node000001_Node000010"><a xlink:title=" ">
<path fill="none" stroke="#63b8ff" d="M409.71,-252.63C417.84,-243.31 427.27,-230.44 431.61,-217 445.03,-175.4 432.04,-124.23 421.94,-94.84"/>
<polygon fill="#63b8ff" stroke="#63b8ff" points="425.09,-93.27 418.4,-85.05 418.51,-95.65 425.09,-93.27"/>
</a>
</g>
</g>
<!-- Node11 -->
<g id="Node000011" class="node">
<title>Node11</title>
<g id="a_Node000011"><a xlink:href="sapi__netlink_8h.html" target="_top" xlink:title="OS Abstraction Layer &#45; Point&#45;to&#45;point network link service.">
<polygon fill="white" stroke="#666666" points="624.11,-151 517.11,-151 517.11,-121 624.11,-121 624.11,-151"/>
<text text-anchor="start" x="525.11" y="-139" font-family="Helvetica,sans-Serif" font-size="10.00">safeapi/oal/netlink</text>
<text text-anchor="middle" x="570.61" y="-128" font-family="Helvetica,sans-Serif" font-size="10.00">/sapi_netlink.h</text>
</a>
</g>
</g>
<!-- Node1&#45;&gt;Node11 -->
<g id="edge23_Node000001_Node000011" class="edge">
<title>Node1&#45;&gt;Node11</title>
<g id="a_edge23_Node000001_Node000011"><a xlink:title=" ">
<path fill="none" stroke="#63b8ff" d="M415.31,-252.88C429.15,-242.92 448.08,-229.23 464.61,-217 491.77,-196.91 522.57,-173.6 543.94,-157.35"/>
<polygon fill="#63b8ff" stroke="#63b8ff" points="546.09,-160.11 551.93,-151.27 541.85,-154.55 546.09,-160.11"/>
</a>
</g>
</g>
<!-- Node4&#45;&gt;Node2 -->
<g id="edge4_Node000004_Node000002" class="edge">
<title>Node4&#45;&gt;Node2</title>
<g id="a_edge4_Node000004_Node000002"><a xlink:title=" ">
<path fill="none" stroke="#63b8ff" d="M71.54,-186.85C56.38,-178.77 40.17,-167 31.61,-151 25.32,-139.24 26.2,-133.19 31.61,-121 51.37,-76.45 98.94,-42.22 128.5,-24.33"/>
<polygon fill="#63b8ff" stroke="#63b8ff" points="130.56,-27.18 137.41,-19.1 127.02,-21.14 130.56,-27.18"/>
</a>
</g>
</g>
<!-- Node4&#45;&gt;Node5 -->
<g id="edge5_Node000004_Node000005" class="edge">
<title>Node4&#45;&gt;Node5</title>
<g id="a_edge5_Node000004_Node000005"><a xlink:title=" ">
<path fill="none" stroke="#63b8ff" d="M106.61,-186.8C106.61,-179.34 106.61,-169.99 106.61,-161.41"/>
<polygon fill="#63b8ff" stroke="#63b8ff" points="110.11,-161.16 106.61,-151.16 103.11,-161.16 110.11,-161.16"/>
</a>
</g>
</g>
<!-- Node5&#45;&gt;Node2 -->
<g id="edge6_Node000005_Node000002" class="edge">
<title>Node5&#45;&gt;Node2</title>
<g id="a_edge6_Node000005_Node000002"><a xlink:title=" ">
<path fill="none" stroke="#63b8ff" d="M112,-120.72C120.57,-98.02 137.29,-53.72 146.72,-28.75"/>
<polygon fill="#63b8ff" stroke="#63b8ff" points="150.12,-29.66 150.37,-19.07 143.57,-27.19 150.12,-29.66"/>
</a>
</g>
</g>
<!-- Node6&#45;&gt;Node2 -->
<g id="edge8_Node000006_Node000002" class="edge">
<title>Node6&#45;&gt;Node2</title>
<g id="a_edge8_Node000006_Node000002"><a xlink:title=" ">
<path fill="none" stroke="#63b8ff" d="M283.24,-186.96C261.23,-179.27 237.21,-167.79 219.61,-151 183.47,-116.53 165.06,-58.34 157.66,-28.83"/>
<polygon fill="#63b8ff" stroke="#63b8ff" points="161.05,-27.96 155.34,-19.04 154.24,-29.57 161.05,-27.96"/>
</a>
</g>
</g>
<!-- Node7 -->
<g id="Node000007" class="node">
<title>Node7</title>
<g id="a_Node000007"><a xlink:href="sapi__checksum_8h.html" target="_top" xlink:title="Checksum and CRC utilities for data integrity in redundant systems.">
<polygon fill="white" stroke="#666666" points="384.61,-151 228.61,-151 228.61,-121 384.61,-121 384.61,-151"/>
<text text-anchor="start" x="236.61" y="-139" font-family="Helvetica,sans-Serif" font-size="10.00">safeapi/redundancy</text>
<text text-anchor="middle" x="306.61" y="-128" font-family="Helvetica,sans-Serif" font-size="10.00">/checksum/sapi_checksum.h</text>
</a>
</g>
</g>
<!-- Node6&#45;&gt;Node7 -->
<g id="edge9_Node000006_Node000007" class="edge">
<title>Node6&#45;&gt;Node7</title>
<g id="a_edge9_Node000006_Node000007"><a xlink:title=" ">
<path fill="none" stroke="#63b8ff" d="M333.06,-186.8C328.92,-179.01 323.69,-169.16 318.97,-160.28"/>
<polygon fill="#63b8ff" stroke="#63b8ff" points="321.92,-158.35 314.13,-151.16 315.73,-161.64 321.92,-158.35"/>
</a>
</g>
</g>
<!-- Node6&#45;&gt;Node9 -->
<g id="edge20_Node000006_Node000009" class="edge">
<title>Node6&#45;&gt;Node9</title>
<g id="a_edge20_Node000006_Node000009"><a xlink:title=" ">
<path fill="none" stroke="#63b8ff" d="M364.03,-186.84C402.64,-163.49 479.72,-116.88 523.43,-90.46"/>
<polygon fill="#63b8ff" stroke="#63b8ff" points="525.47,-93.31 532.22,-85.14 521.85,-87.32 525.47,-93.31"/>
</a>
</g>
</g>
<!-- Node6&#45;&gt;Node10 -->
<g id="edge21_Node000006_Node000010" class="edge">
<title>Node6&#45;&gt;Node10</title>
<g id="a_edge21_Node000006_Node000010"><a xlink:title=" ">
<path fill="none" stroke="#63b8ff" d="M360.51,-186.93C371.84,-177.91 385.38,-165.24 393.61,-151 403.51,-133.86 408.26,-111.83 410.53,-95.22"/>
<polygon fill="#63b8ff" stroke="#63b8ff" points="414.02,-95.54 411.7,-85.2 407.07,-94.73 414.02,-95.54"/>
</a>
</g>
</g>
<!-- Node6&#45;&gt;Node11 -->
<g id="edge17_Node000006_Node000011" class="edge">
<title>Node6&#45;&gt;Node11</title>
<g id="a_edge17_Node000006_Node000011"><a xlink:title=" ">
<path fill="none" stroke="#63b8ff" d="M391.08,-186.95C426.28,-177.16 473.41,-164.05 510.55,-153.71"/>
<polygon fill="#63b8ff" stroke="#63b8ff" points="511.56,-157.07 520.25,-151.01 509.68,-150.32 511.56,-157.07"/>
</a>
</g>
</g>
<!-- Node7&#45;&gt;Node2 -->
<g id="edge10_Node000007_Node000002" class="edge">
<title>Node7&#45;&gt;Node2</title>
<g id="a_edge10_Node000007_Node000002"><a xlink:title=" ">
<path fill="none" stroke="#63b8ff" d="M291.33,-121C273.35,-104.69 242.41,-77.17 214.61,-55 201.54,-44.58 186.36,-33.5 174.41,-25.01"/>
<polygon fill="#63b8ff" stroke="#63b8ff" points="176.18,-21.97 165.99,-19.06 172.14,-27.69 176.18,-21.97"/>
</a>
</g>
</g>
<!-- Node8 -->
<g id="Node000008" class="node">
<title>Node8</title>
<g id="a_Node000008"><a xlink:title=" ">
<polygon fill="#e0e0e0" stroke="#999999" points="354.61,-19 298.61,-19 298.61,0 354.61,0 354.61,-19"/>
<text text-anchor="middle" x="326.61" y="-7" font-family="Helvetica,sans-Serif" font-size="10.00">stddef.h</text>
</a>
</g>
</g>
<!-- Node7&#45;&gt;Node8 -->
<g id="edge11_Node000007_Node000008" class="edge">
<title>Node7&#45;&gt;Node8</title>
<g id="a_edge11_Node000007_Node000008"><a xlink:title=" ">
<path fill="none" stroke="#63b8ff" d="M308.9,-120.72C312.53,-98.12 319.6,-54.12 323.62,-29.09"/>
<polygon fill="#63b8ff" stroke="#63b8ff" points="327.1,-29.5 325.23,-19.07 320.19,-28.39 327.1,-29.5"/>
</a>
</g>
</g>
<!-- Node7&#45;&gt;Node9 -->
<g id="edge12_Node000007_Node000009" class="edge">
<title>Node7&#45;&gt;Node9</title>
<g id="a_edge12_Node000007_Node000009"><a xlink:title=" ">
<path fill="none" stroke="#63b8ff" d="M361.25,-120.95C399.61,-111.1 451.04,-97.88 491.36,-87.51"/>
<polygon fill="#63b8ff" stroke="#63b8ff" points="492.28,-90.89 501.09,-85.01 490.54,-84.11 492.28,-90.89"/>
</a>
</g>
</g>
<!-- Node7&#45;&gt;Node10 -->
<g id="edge13_Node000007_Node000010" class="edge">
<title>Node7&#45;&gt;Node10</title>
<g id="a_edge13_Node000007_Node000010"><a xlink:title=" ">
<path fill="none" stroke="#63b8ff" d="M329.87,-120.95C344.78,-111.95 364.34,-100.14 380.69,-90.27"/>
<polygon fill="#63b8ff" stroke="#63b8ff" points="382.65,-93.18 389.4,-85.01 379.03,-87.18 382.65,-93.18"/>
</a>
</g>
</g>
<!-- Node10&#45;&gt;Node2 -->
<g id="edge16_Node000010_Node000002" class="edge">
<title>Node10&#45;&gt;Node2</title>
<g id="a_edge16_Node000010_Node000002"><a xlink:title=" ">
<path fill="none" stroke="#63b8ff" d="M358.94,-56.88C308.46,-45.48 234.25,-28.71 190.23,-18.77"/>
<polygon fill="#63b8ff" stroke="#63b8ff" points="190.78,-15.31 180.26,-16.52 189.24,-22.14 190.78,-15.31"/>
</a>
</g>
</g>
<!-- Node10&#45;&gt;Node3 -->
<g id="edge14_Node000010_Node000003" class="edge">
<title>Node10&#45;&gt;Node3</title>
<g id="a_edge14_Node000010_Node000003"><a xlink:title=" ">
<path fill="none" stroke="#63b8ff" d="M445.9,-54.99C468.99,-45.27 499.47,-32.44 521.77,-23.06"/>
<polygon fill="#63b8ff" stroke="#63b8ff" points="523.22,-26.24 531.08,-19.14 520.51,-19.79 523.22,-26.24"/>
</a>
</g>
</g>
<!-- Node10&#45;&gt;Node8 -->
<g id="edge15_Node000010_Node000008" class="edge">
<title>Node10&#45;&gt;Node8</title>
<g id="a_edge15_Node000010_Node000008"><a xlink:title=" ">
<path fill="none" stroke="#63b8ff" d="M391.79,-54.84C378.46,-45.77 361.22,-34.04 347.81,-24.92"/>
<polygon fill="#63b8ff" stroke="#63b8ff" points="349.48,-21.83 339.24,-19.09 345.54,-27.61 349.48,-21.83"/>
</a>
</g>
</g>
<!-- Node11&#45;&gt;Node9 -->
<g id="edge18_Node000011_Node000009" class="edge">
<title>Node11&#45;&gt;Node9</title>
<g id="a_edge18_Node000011_Node000009"><a xlink:title=" ">
<path fill="none" stroke="#63b8ff" d="M567.28,-120.8C565.51,-113.26 563.29,-103.78 561.26,-95.13"/>
<polygon fill="#63b8ff" stroke="#63b8ff" points="564.62,-94.1 558.93,-85.16 557.8,-95.7 564.62,-94.1"/>
</a>
</g>
</g>
<!-- Node11&#45;&gt;Node10 -->
<g id="edge19_Node000011_Node000010" class="edge">
<title>Node11&#45;&gt;Node10</title>
<g id="a_edge19_Node000011_Node000010"><a xlink:title=" ">
<path fill="none" stroke="#63b8ff" d="M535.93,-120.95C512.58,-111.49 481.57,-98.93 456.49,-88.78"/>
<polygon fill="#63b8ff" stroke="#63b8ff" points="457.78,-85.52 447.2,-85.01 455.16,-92.01 457.78,-85.52"/>
</a>
</g>
</g>
</g>
</svg>

<g id="navigator" transform="translate(0 0)" fill="#404254">
  <rect fill="#f2f5e9" fill-opacity="0.5" stroke="#606060" stroke-width=".5" x="0" y="0" width="60" height="60"/>
  <use id="zoomplus" xlink:href="#zoomPlus" x="17" y="9" onmousedown="handleZoom(evt,'in')"/>
  <use id="zoomminus" xlink:href="#zoomMin" x="42" y="9" onmousedown="handleZoom(evt,'out')"/>
  <use id="reset" xlink:href="#resetDef" x="30" y="36" onmousedown="handleReset()"/>
   <use id="arrowup" xlink:href="#arrowUp" x="0" y="0" onmousedown="handlePan(0,-1)"/>
  <use id="arrowright" xlink:href="#arrowRight" x="0" y="0" onmousedown="handlePan(1,0)"/>
  <use id="arrowdown" xlink:href="#arrowDown" x="0" y="0" onmousedown="handlePan(0,1)"/>
  <use id="arrowleft" xlink:href="#arrowLeft" x="0" y="0" onmousedown="handlePan(-1,0)"/>
</g>
<svg viewBox="0 0 15 15" width="100%" height="30px" preserveAspectRatio="xMaxYMin meet">
 <g id="arrow_out" transform="scale(0.3 0.3)">
  <a xlink:href="sapi__dual__channel_8h__incl_org.svg" target="_base">
   <rect id="button" ry="5" rx="5" y="6" x="6" height="38" width="38"
        fill="#f2f5e9" fill-opacity="0.5" stroke="#606060" stroke-width="1.0"/>
   <path id="arrow"
     d="M 11.500037,31.436501 C 11.940474,20.09759 22.043105,11.32322 32.158766,21.979434 L 37.068811,17.246167 C 37.068811,17.246167 37.088388,32 37.088388,32 L 22.160133,31.978069 C 22.160133,31.978069 26.997745,27.140456 26.997745,27.140456 C 18.528582,18.264221 13.291696,25.230495 11.500037,31.436501 z"
     style="fill:#404040;"/>
  </a>
 </g>
</svg>

<style type='text/css'>
<![CDATA[
[data-mouse-over-selected='false'] { opacity: 0.7; }
[data-mouse-over-selected='true']  { opacity: 1.0; }
]]>
</style>
<script type="application/ecmascript"><![CDATA[
document.addEventListener('DOMContentLoaded', (event) => {
  highlightEdges();
  highlightAdjacentNodes();
});
]]></script>
</svg>
