<?xml version="1.0" encoding="UTF-8" standalone="no"?>
<!DOCTYPE svg PUBLIC "-//W3C//DTD SVG 1.1//EN"
 "http://www.w3.org/Graphics/SVG/1.1/DTD/svg11.dtd">
<!-- Generated by graphviz version 2.43.0 (0)
 -->
<!-- Title: src/dual/sapi_dual_negotiator.c Pages: 1 -->
<!--zoomable 423 -->

<svg id="main" version="1.1" xmlns="http://www.w3.org/2000/svg" xmlns:xlink="http://www.w3.org/1999/xlink" xml:space="preserve" onload="init(evt)">
<style type="text/css"><![CDATA[
.node, .edge {opacity: 0.7;}
.node.selected, .edge.selected {opacity: 1;}
.edge:hover path { stroke: red; }
.edge:hover polygon { stroke: red; fill: red; }
]]></style>

<defs>
  <circle id="rim" cx="0" cy="0" r="7"/>
  <circle id="rim2" cx="0" cy="0" r="3.5"/>
  <g id="zoomPlus">
    <use xlink:href="#rim" fill="#404040"><set attributeName="fill" to="#808080" begin="zoomplus.mouseover" end="zoomplus.mouseout"/></use>
    <path d="M-4,0h8M0,-4v8" fill="none" stroke="white" stroke-width="1.5" pointer-events="none"/>
  </g>
  <g id="zoomMin">
    <use xlink:href="#rim" fill="#404040"><set attributeName="fill" to="#808080" begin="zoomminus.mouseover" end="zoomminus.mouseout"/></use>
    <path d="M-4,0h8" fill="none" stroke="white" stroke-width="1.5" pointer-events="none"/>
  </g>
  <g id="arrowUp" transform="translate(30 24)">
    <use xlink:href="#rim"/>
    <path pointer-events="none" fill="none" stroke="white" stroke-width="1.5" d="M0,-3.0v7 M-2.5,-0.5L0,-3.0L2.5,-0.5"/>
  </g>
  <g id="arrowRight" transform="rotate(90) translate(36 -43)">
    <use xlink:href="#rim"/>
    <path pointer-events="none" fill="none" stroke="white" stroke-width="1.5" d="M0,-3.0v7 M-2.5,-0.5L0,-3.0L2.5,-0.5"/>
  </g>
  <g id="arrowDown" transform="rotate(180) translate(-30 -48)">
    <use xlink:href="#rim"/>
    <path pointer-events="none" fill="none" stroke="white" stroke-width="1.5" d="M0,-3.0v7 M-2.5,-0.5L0,-3.0L2.5,-0.5"/>
  </g>
  <g id="arrowLeft" transform="rotate(270) translate(-36 17)">
    <use xlink:href="#rim"/>
    <path pointer-events="none" fill="none" stroke="white" stroke-width="1.5" d="M0,-3.0v7 M-2.5,-0.5L0,-3.0L2.5,-0.5"/>
  </g>
  <g id="resetDef">
    <use xlink:href="#rim2" fill="#404040"><set attributeName="fill" to="#808080" begin="reset.mouseover" end="reset.mouseout"/></use>
  </g>
</defs>
<script type="application/ecmascript">
var viewWidth = 965;
var viewHeight = 423;
var sectionId = 'dynsection-0';
</script>
<script type="application/ecmascript" xlink:href="svg.min.js"/>
<svg id="graph" class="graph">
<g id="viewport">
<title>src/dual/sapi_dual_negotiator.c</title>
<!-- Node1 -->
<g id="Node000001" class="node">
<title>Node1</title>
<g id="a_Node000001"><a xlink:title="Dual state negotiator of ADR&#45;020 &#45; see sapi_dual_negotiator.h.">
<polygon fill="#999999" stroke="#666666" points="954,-415 850,-415 850,-385 954,-385 954,-415"/>
<text text-anchor="start" x="858" y="-403" font-family="Helvetica,sans-Serif" font-size="10.00">src/dual/sapi_dual</text>
<text text-anchor="middle" x="902" y="-392" font-family="Helvetica,sans-Serif" font-size="10.00">_negotiator.c</text>
</a>
</g>
</g>
<!-- Node2 -->
<g id="Node000002" class="node">
<title>Node2</title>
<g id="a_Node000002"><a xlink:href="sapi__dual__negotiator_8h.html" target="_top" xlink:title="Dual state negotiator of ADR&#45;020: decides sapi_dual_state_t for both this instance and its peer,...">
<polygon fill="white" stroke="#666666" points="827,-349 701,-349 701,-319 827,-319 827,-349"/>
<text text-anchor="start" x="709" y="-337" font-family="Helvetica,sans-Serif" font-size="10.00">safeapi/dual/sapi_dual</text>
<text text-anchor="middle" x="764" y="-326" font-family="Helvetica,sans-Serif" font-size="10.00">_negotiator.h</text>
</a>
</g>
</g>
<!-- Node1&#45;&gt;Node2 -->
<g id="edge1_Node000001_Node000002" class="edge">
<title>Node1&#45;&gt;Node2</title>
<g id="a_edge1_Node000001_Node000002"><a xlink:title=" ">
<path fill="none" stroke="#63b8ff" d="M871.72,-384.95C851.67,-375.66 825.19,-363.38 803.49,-353.32"/>
<polygon fill="#63b8ff" stroke="#63b8ff" points="804.76,-350.04 794.21,-349.01 801.81,-356.39 804.76,-350.04"/>
</a>
</g>
</g>
<!-- Node14 -->
<g id="Node000014" class="node">
<title>Node14</title>
<g id="a_Node000014"><a xlink:href="sapi__timer_8h.html" target="_top" xlink:title="OS Abstraction Layer &#45; Timer service.">
<polygon fill="white" stroke="#666666" points="897.5,-151 792.5,-151 792.5,-121 897.5,-121 897.5,-151"/>
<text text-anchor="start" x="800.5" y="-139" font-family="Helvetica,sans-Serif" font-size="10.00">safeapi/timer/sapi</text>
<text text-anchor="middle" x="845" y="-128" font-family="Helvetica,sans-Serif" font-size="10.00">_timer.h</text>
</a>
</g>
</g>
<!-- Node1&#45;&gt;Node14 -->
<g id="edge33_Node000001_Node000014" class="edge">
<title>Node1&#45;&gt;Node14</title>
<g id="a_edge33_Node000001_Node000014"><a xlink:title=" ">
<path fill="none" stroke="#63b8ff" d="M898.94,-384.91C889.68,-342.35 861.91,-214.73 850.25,-161.13"/>
<polygon fill="#63b8ff" stroke="#63b8ff" points="853.63,-160.18 848.08,-151.16 846.79,-161.67 853.63,-160.18"/>
</a>
</g>
</g>
<!-- Node3 -->
<g id="Node000003" class="node">
<title>Node3</title>
<g id="a_Node000003"><a xlink:title=" ">
<polygon fill="#e0e0e0" stroke="#999999" points="957,-19 895,-19 895,0 957,0 957,-19"/>
<text text-anchor="middle" x="926" y="-7" font-family="Helvetica,sans-Serif" font-size="10.00">stdbool.h</text>
</a>
</g>
</g>
<!-- Node2&#45;&gt;Node3 -->
<g id="edge2_Node000002_Node000003" class="edge">
<title>Node2&#45;&gt;Node3</title>
<g id="a_edge2_Node000002_Node000003"><a xlink:title=" ">
<path fill="none" stroke="#63b8ff" d="M802,-318.81C822.17,-310.22 846.7,-298.02 866,-283 896.36,-259.37 905.68,-251.84 922,-217 952.85,-151.14 959.57,-126.25 945,-55 943.11,-45.74 939.21,-36.03 935.43,-28.04"/>
<polygon fill="#63b8ff" stroke="#63b8ff" points="938.51,-26.37 930.88,-19.02 932.26,-29.53 938.51,-26.37"/>
</a>
</g>
</g>
<!-- Node4 -->
<g id="Node000004" class="node">
<title>Node4</title>
<g id="a_Node000004"><a xlink:title=" ">
<polygon fill="#e0e0e0" stroke="#999999" points="284.5,-19 231.5,-19 231.5,0 284.5,0 284.5,-19"/>
<text text-anchor="middle" x="258" y="-7" font-family="Helvetica,sans-Serif" font-size="10.00">stdint.h</text>
</a>
</g>
</g>
<!-- Node2&#45;&gt;Node4 -->
<g id="edge3_Node000002_Node000004" class="edge">
<title>Node2&#45;&gt;Node4</title>
<g id="a_edge3_Node000002_Node000004"><a xlink:title=" ">
<path fill="none" stroke="#63b8ff" d="M700.83,-328.9C517.78,-316.16 0,-273.89 0,-203 0,-203 0,-203 0,-135 0,-38.02 149.68,-16.55 221.02,-11.82"/>
<polygon fill="#63b8ff" stroke="#63b8ff" points="221.58,-15.29 231.36,-11.22 221.17,-8.3 221.58,-15.29"/>
</a>
</g>
</g>
<!-- Node5 -->
<g id="Node000005" class="node">
<title>Node5</title>
<g id="a_Node000005"><a xlink:href="sapi__dual__channel_8h.html" target="_top" xlink:title="&quot;DualChannel&quot; layer of ADR&#45;020: wraps 1..N redundant sapi_dual_msgchannel_t links for fault&#45;tolerant,...">
<polygon fill="white" stroke="#666666" points="575,-283 449,-283 449,-253 575,-253 575,-283"/>
<text text-anchor="start" x="457" y="-271" font-family="Helvetica,sans-Serif" font-size="10.00">safeapi/dual/sapi_dual</text>
<text text-anchor="middle" x="512" y="-260" font-family="Helvetica,sans-Serif" font-size="10.00">_channel.h</text>
</a>
</g>
</g>
<!-- Node2&#45;&gt;Node5 -->
<g id="edge4_Node000002_Node000005" class="edge">
<title>Node2&#45;&gt;Node5</title>
<g id="a_edge4_Node000002_Node000005"><a xlink:title=" ">
<path fill="none" stroke="#63b8ff" d="M708.7,-318.95C669.88,-309.1 617.83,-295.88 577.02,-285.51"/>
<polygon fill="#63b8ff" stroke="#63b8ff" points="577.73,-282.08 567.17,-283.01 576,-288.87 577.73,-282.08"/>
</a>
</g>
</g>
<!-- Node7 -->
<g id="Node000007" class="node">
<title>Node7</title>
<g id="a_Node000007"><a xlink:href="sapi__dual__types_8h.html" target="_top" xlink:title="Shared enums for the sapi_dual module (ADR&#45;020): dual&#45;instance state negotiation and the redundant,...">
<polygon fill="white" stroke="#666666" points="230,-151 104,-151 104,-121 230,-121 230,-151"/>
<text text-anchor="start" x="112" y="-139" font-family="Helvetica,sans-Serif" font-size="10.00">safeapi/dual/sapi_dual</text>
<text text-anchor="middle" x="167" y="-128" font-family="Helvetica,sans-Serif" font-size="10.00">_types.h</text>
</a>
</g>
</g>
<!-- Node2&#45;&gt;Node7 -->
<g id="edge30_Node000002_Node000007" class="edge">
<title>Node2&#45;&gt;Node7</title>
<g id="a_edge30_Node000002_Node000007"><a xlink:title=" ">
<path fill="none" stroke="#63b8ff" d="M700.68,-327.58C570.2,-315.21 277.4,-280.92 203,-217 186.2,-202.56 176.87,-178.71 171.94,-160.79"/>
<polygon fill="#63b8ff" stroke="#63b8ff" points="175.33,-159.92 169.53,-151.05 168.53,-161.6 175.33,-159.92"/>
</a>
</g>
</g>
<!-- Node11 -->
<g id="Node000011" class="node">
<title>Node11</title>
<g id="a_Node000011"><a xlink:href="sapi__status_8h.html" target="_top" xlink:title="Common status/error codes returned by every Safe API Framework function. Shared across all OS Abstrac...">
<polygon fill="white" stroke="#666666" points="761.5,-85 652.5,-85 652.5,-55 761.5,-55 761.5,-85"/>
<text text-anchor="start" x="660.5" y="-73" font-family="Helvetica,sans-Serif" font-size="10.00">safeapi/status/sapi</text>
<text text-anchor="middle" x="707" y="-62" font-family="Helvetica,sans-Serif" font-size="10.00">_status.h</text>
</a>
</g>
</g>
<!-- Node2&#45;&gt;Node11 -->
<g id="edge31_Node000002_Node000011" class="edge">
<title>Node2&#45;&gt;Node11</title>
<g id="a_edge31_Node000002_Node000011"><a xlink:title=" ">
<path fill="none" stroke="#63b8ff" d="M786.59,-318.89C839.44,-284.17 962.6,-192.21 907,-121 890.38,-99.71 823.83,-86.14 772.01,-78.59"/>
<polygon fill="#63b8ff" stroke="#63b8ff" points="772.25,-75.09 761.86,-77.16 771.27,-82.03 772.25,-75.09"/>
</a>
</g>
</g>
<!-- Node12 -->
<g id="Node000012" class="node">
<title>Node12</title>
<g id="a_Node000012"><a xlink:href="sapi__types_8h.html" target="_top" xlink:title="Common fixed&#45;width types and the caller&#45;owned&#45;storage handle pattern used by every OAL service (see A...">
<polygon fill="white" stroke="#666666" points="571,-85 465,-85 465,-55 571,-55 571,-85"/>
<text text-anchor="start" x="473" y="-73" font-family="Helvetica,sans-Serif" font-size="10.00">safeapi/types/sapi</text>
<text text-anchor="middle" x="518" y="-62" font-family="Helvetica,sans-Serif" font-size="10.00">_types.h</text>
</a>
</g>
</g>
<!-- Node2&#45;&gt;Node12 -->
<g id="edge32_Node000002_Node000012" class="edge">
<title>Node2&#45;&gt;Node12</title>
<g id="a_edge32_Node000002_Node000012"><a xlink:title=" ">
<path fill="none" stroke="#63b8ff" d="M761.7,-318.82C754.83,-281.03 730.95,-176.96 669,-121 644.79,-99.13 610.76,-86.8 581.14,-79.86"/>
<polygon fill="#63b8ff" stroke="#63b8ff" points="581.8,-76.42 571.28,-77.7 580.31,-83.26 581.8,-76.42"/>
</a>
</g>
</g>
<!-- Node5&#45;&gt;Node3 -->
<g id="edge6_Node000005_Node000003" class="edge">
<title>Node5&#45;&gt;Node3</title>
<g id="a_edge6_Node000005_Node000003"><a xlink:title=" ">
<path fill="none" stroke="#63b8ff" d="M575.14,-256.96C675.3,-239.7 863.74,-201.35 907,-151 936.6,-116.55 933.4,-58.78 929.31,-29.19"/>
<polygon fill="#63b8ff" stroke="#63b8ff" points="932.72,-28.36 927.7,-19.02 925.8,-29.45 932.72,-28.36"/>
</a>
</g>
</g>
<!-- Node5&#45;&gt;Node4 -->
<g id="edge5_Node000005_Node000004" class="edge">
<title>Node5&#45;&gt;Node4</title>
<g id="a_edge5_Node000005_Node000004"><a xlink:title=" ">
<path fill="none" stroke="#63b8ff" d="M448.64,-256.22C419.44,-248.86 385.65,-236.73 360,-217 304.5,-174.31 300.91,-149.64 274,-85 266.46,-66.9 262.29,-44.78 260.11,-29.37"/>
<polygon fill="#63b8ff" stroke="#63b8ff" points="263.54,-28.55 258.81,-19.07 256.59,-29.43 263.54,-28.55"/>
</a>
</g>
</g>
<!-- Node6 -->
<g id="Node000006" class="node">
<title>Node6</title>
<g id="a_Node000006"><a xlink:href="sapi__dual__frames_8h.html" target="_top" xlink:title="Layer&#45;2 (DualChannel&#45;owned) frame kind/header definitions for ADR&#45;020 &#45; shared between sapi_dual_chan...">
<polygon fill="white" stroke="#666666" points="154,-217 28,-217 28,-187 154,-187 154,-217"/>
<text text-anchor="start" x="36" y="-205" font-family="Helvetica,sans-Serif" font-size="10.00">safeapi/dual/sapi_dual</text>
<text text-anchor="middle" x="91" y="-194" font-family="Helvetica,sans-Serif" font-size="10.00">_frames.h</text>
</a>
</g>
</g>
<!-- Node5&#45;&gt;Node6 -->
<g id="edge7_Node000005_Node000006" class="edge">
<title>Node5&#45;&gt;Node6</title>
<g id="a_edge7_Node000005_Node000006"><a xlink:title=" ">
<path fill="none" stroke="#63b8ff" d="M448.97,-257.42C372.75,-245.83 244.69,-226.36 164.18,-214.12"/>
<polygon fill="#63b8ff" stroke="#63b8ff" points="164.53,-210.64 154.11,-212.59 163.47,-217.56 164.53,-210.64"/>
</a>
</g>
</g>
<!-- Node5&#45;&gt;Node7 -->
<g id="edge26_Node000005_Node000007" class="edge">
<title>Node5&#45;&gt;Node7</title>
<g id="a_edge26_Node000005_Node000007"><a xlink:title=" ">
<path fill="none" stroke="#63b8ff" d="M448.82,-265.99C392.11,-262.66 308.16,-251.59 244,-217 218.37,-203.18 196.17,-177.81 182.28,-159.34"/>
<polygon fill="#63b8ff" stroke="#63b8ff" points="185.04,-157.18 176.33,-151.15 179.38,-161.3 185.04,-157.18"/>
</a>
</g>
</g>
<!-- Node8 -->
<g id="Node000008" class="node">
<title>Node8</title>
<g id="a_Node000008"><a xlink:href="sapi__dual__msgchannel_8h.html" target="_top" xlink:title="&quot;Channel&quot; layer of ADR&#45;020: one EN 50159&#45;defended message channel over one already&#45;open sapi_netlink_...">
<polygon fill="white" stroke="#666666" points="575,-217 449,-217 449,-187 575,-187 575,-217"/>
<text text-anchor="start" x="457" y="-205" font-family="Helvetica,sans-Serif" font-size="10.00">safeapi/dual/sapi_dual</text>
<text text-anchor="middle" x="512" y="-194" font-family="Helvetica,sans-Serif" font-size="10.00">_msgchannel.h</text>
</a>
</g>
</g>
<!-- Node5&#45;&gt;Node8 -->
<g id="edge11_Node000005_Node000008" class="edge">
<title>Node5&#45;&gt;Node8</title>
<g id="a_edge11_Node000005_Node000008"><a xlink:title=" ">
<path fill="none" stroke="#63b8ff" d="M512,-252.8C512,-245.34 512,-235.99 512,-227.41"/>
<polygon fill="#63b8ff" stroke="#63b8ff" points="515.5,-227.16 512,-217.16 508.5,-227.16 515.5,-227.16"/>
</a>
</g>
</g>
<!-- Node5&#45;&gt;Node11 -->
<g id="edge28_Node000005_Node000011" class="edge">
<title>Node5&#45;&gt;Node11</title>
<g id="a_edge28_Node000005_Node000011"><a xlink:title=" ">
<path fill="none" stroke="#63b8ff" d="M553.26,-252.85C596.01,-235.84 660.95,-202.93 693,-151 703.33,-134.27 706.56,-112.03 707.36,-95.24"/>
<polygon fill="#63b8ff" stroke="#63b8ff" points="710.86,-95.19 707.58,-85.11 703.86,-95.03 710.86,-95.19"/>
</a>
</g>
</g>
<!-- Node5&#45;&gt;Node12 -->
<g id="edge29_Node000005_Node000012" class="edge">
<title>Node5&#45;&gt;Node12</title>
<g id="a_edge29_Node000005_Node000012"><a xlink:title=" ">
<path fill="none" stroke="#63b8ff" d="M474,-252.97C414.78,-228.97 311.36,-177.13 353,-121 376.31,-89.58 418.83,-77.21 454.87,-72.63"/>
<polygon fill="#63b8ff" stroke="#63b8ff" points="455.28,-76.1 464.84,-71.53 454.52,-69.14 455.28,-76.1"/>
</a>
</g>
</g>
<!-- Node13 -->
<g id="Node000013" class="node">
<title>Node13</title>
<g id="a_Node000013"><a xlink:href="sapi__netlink_8h.html" target="_top" xlink:title="OS Abstraction Layer &#45; Point&#45;to&#45;point network link service.">
<polygon fill="white" stroke="#666666" points="659.5,-151 546.5,-151 546.5,-121 659.5,-121 659.5,-151"/>
<text text-anchor="start" x="554.5" y="-139" font-family="Helvetica,sans-Serif" font-size="10.00">safeapi/netlink/sapi</text>
<text text-anchor="middle" x="603" y="-128" font-family="Helvetica,sans-Serif" font-size="10.00">_netlink.h</text>
</a>
</g>
</g>
<!-- Node5&#45;&gt;Node13 -->
<g id="edge27_Node000005_Node000013" class="edge">
<title>Node5&#45;&gt;Node13</title>
<g id="a_edge27_Node000005_Node000013"><a xlink:title=" ">
<path fill="none" stroke="#63b8ff" d="M541.93,-252.85C556.7,-244.41 573.54,-232.34 584,-217 595.22,-200.55 599.85,-178.29 601.75,-161.42"/>
<polygon fill="#63b8ff" stroke="#63b8ff" points="605.25,-161.5 602.64,-151.23 598.28,-160.89 605.25,-161.5"/>
</a>
</g>
</g>
<!-- Node6&#45;&gt;Node4 -->
<g id="edge8_Node000006_Node000004" class="edge">
<title>Node6&#45;&gt;Node4</title>
<g id="a_edge8_Node000006_Node000004"><a xlink:title=" ">
<path fill="none" stroke="#63b8ff" d="M88.13,-186.96C85.45,-170.12 83.41,-141.6 95,-121 123.28,-70.73 185.08,-38.73 223.93,-22.75"/>
<polygon fill="#63b8ff" stroke="#63b8ff" points="225.28,-25.98 233.28,-19.03 222.69,-19.47 225.28,-25.98"/>
</a>
</g>
</g>
<!-- Node6&#45;&gt;Node7 -->
<g id="edge9_Node000006_Node000007" class="edge">
<title>Node6&#45;&gt;Node7</title>
<g id="a_edge9_Node000006_Node000007"><a xlink:title=" ">
<path fill="none" stroke="#63b8ff" d="M107.87,-186.8C118,-178.26 131.08,-167.25 142.35,-157.75"/>
<polygon fill="#63b8ff" stroke="#63b8ff" points="144.79,-160.28 150.18,-151.16 140.28,-154.93 144.79,-160.28"/>
</a>
</g>
</g>
<!-- Node7&#45;&gt;Node4 -->
<g id="edge10_Node000007_Node000004" class="edge">
<title>Node7&#45;&gt;Node4</title>
<g id="a_edge10_Node000007_Node000004"><a xlink:title=" ">
<path fill="none" stroke="#63b8ff" d="M177.44,-120.72C194.33,-97.61 227.57,-52.13 245.63,-27.43"/>
<polygon fill="#63b8ff" stroke="#63b8ff" points="248.66,-29.21 251.74,-19.07 243.01,-25.08 248.66,-29.21"/>
</a>
</g>
</g>
<!-- Node8&#45;&gt;Node4 -->
<g id="edge12_Node000008_Node000004" class="edge">
<title>Node8&#45;&gt;Node4</title>
<g id="a_edge12_Node000008_Node000004"><a xlink:title=" ">
<path fill="none" stroke="#63b8ff" d="M448.63,-191.23C417.52,-184.03 380.84,-171.75 353,-151 308.86,-118.1 278.52,-58.32 265.37,-28.47"/>
<polygon fill="#63b8ff" stroke="#63b8ff" points="268.58,-27.08 261.44,-19.25 262.14,-29.82 268.58,-27.08"/>
</a>
</g>
</g>
<!-- Node9 -->
<g id="Node000009" class="node">
<title>Node9</title>
<g id="a_Node000009"><a xlink:href="sapi__checksum_8h.html" target="_top" xlink:title="Checksum and CRC utilities for data integrity in redundant systems.">
<polygon fill="white" stroke="#666666" points="490,-151 362,-151 362,-121 490,-121 490,-151"/>
<text text-anchor="start" x="370" y="-139" font-family="Helvetica,sans-Serif" font-size="10.00">safeapi/checksum/sapi</text>
<text text-anchor="middle" x="426" y="-128" font-family="Helvetica,sans-Serif" font-size="10.00">_checksum.h</text>
</a>
</g>
</g>
<!-- Node8&#45;&gt;Node9 -->
<g id="edge13_Node000008_Node000009" class="edge">
<title>Node8&#45;&gt;Node9</title>
<g id="a_edge13_Node000008_Node000009"><a xlink:title=" ">
<path fill="none" stroke="#63b8ff" d="M492.91,-186.8C481.22,-178.1 466.07,-166.82 453.15,-157.2"/>
<polygon fill="#63b8ff" stroke="#63b8ff" points="455.14,-154.33 445.03,-151.16 450.97,-159.94 455.14,-154.33"/>
</a>
</g>
</g>
<!-- Node8&#45;&gt;Node11 -->
<g id="edge24_Node000008_Node000011" class="edge">
<title>Node8&#45;&gt;Node11</title>
<g id="a_edge24_Node000008_Node000011"><a xlink:title=" ">
<path fill="none" stroke="#63b8ff" d="M575.18,-192.95C606.43,-186.18 642.93,-173.77 669,-151 685.75,-136.37 695.7,-112.74 701.19,-94.95"/>
<polygon fill="#63b8ff" stroke="#63b8ff" points="704.58,-95.83 703.93,-85.26 697.84,-93.93 704.58,-95.83"/>
</a>
</g>
</g>
<!-- Node8&#45;&gt;Node12 -->
<g id="edge25_Node000008_Node000012" class="edge">
<title>Node8&#45;&gt;Node12</title>
<g id="a_edge25_Node000008_Node000012"><a xlink:title=" ">
<path fill="none" stroke="#63b8ff" d="M512.65,-186.84C513.67,-164.86 515.63,-122.27 516.88,-95.3"/>
<polygon fill="#63b8ff" stroke="#63b8ff" points="520.38,-95.29 517.35,-85.14 513.39,-94.97 520.38,-95.29"/>
</a>
</g>
</g>
<!-- Node8&#45;&gt;Node13 -->
<g id="edge21_Node000008_Node000013" class="edge">
<title>Node8&#45;&gt;Node13</title>
<g id="a_edge21_Node000008_Node000013"><a xlink:title=" ">
<path fill="none" stroke="#63b8ff" d="M532.2,-186.8C544.68,-178.01 560.9,-166.61 574.66,-156.93"/>
<polygon fill="#63b8ff" stroke="#63b8ff" points="576.69,-159.78 582.86,-151.16 572.67,-154.05 576.69,-159.78"/>
</a>
</g>
</g>
<!-- Node9&#45;&gt;Node4 -->
<g id="edge14_Node000009_Node000004" class="edge">
<title>Node9&#45;&gt;Node4</title>
<g id="a_edge14_Node000009_Node000004"><a xlink:title=" ">
<path fill="none" stroke="#63b8ff" d="M414.79,-120.85C400.62,-103.65 374.83,-74.51 348,-55 330.04,-41.94 307.66,-30.86 289.72,-23.02"/>
<polygon fill="#63b8ff" stroke="#63b8ff" points="290.83,-19.69 280.26,-19.01 288.1,-26.13 290.83,-19.69"/>
</a>
</g>
</g>
<!-- Node10 -->
<g id="Node000010" class="node">
<title>Node10</title>
<g id="a_Node000010"><a xlink:title=" ">
<polygon fill="#e0e0e0" stroke="#999999" points="502,-19 446,-19 446,0 502,0 502,-19"/>
<text text-anchor="middle" x="474" y="-7" font-family="Helvetica,sans-Serif" font-size="10.00">stddef.h</text>
</a>
</g>
</g>
<!-- Node9&#45;&gt;Node10 -->
<g id="edge15_Node000009_Node000010" class="edge">
<title>Node9&#45;&gt;Node10</title>
<g id="a_edge15_Node000009_Node000010"><a xlink:title=" ">
<path fill="none" stroke="#63b8ff" d="M431.2,-120.8C437.1,-104.77 447.06,-77.94 456,-55 459.41,-46.25 463.3,-36.59 466.59,-28.51"/>
<polygon fill="#63b8ff" stroke="#63b8ff" points="469.93,-29.59 470.48,-19.01 463.46,-26.93 469.93,-29.59"/>
</a>
</g>
</g>
<!-- Node9&#45;&gt;Node11 -->
<g id="edge16_Node000009_Node000011" class="edge">
<title>Node9&#45;&gt;Node11</title>
<g id="a_edge16_Node000009_Node000011"><a xlink:title=" ">
<path fill="none" stroke="#63b8ff" d="M487.67,-120.95C533.42,-110.53 595.67,-96.36 642.17,-85.77"/>
<polygon fill="#63b8ff" stroke="#63b8ff" points="643.16,-89.13 652.13,-83.5 641.6,-82.3 643.16,-89.13"/>
</a>
</g>
</g>
<!-- Node9&#45;&gt;Node12 -->
<g id="edge17_Node000009_Node000012" class="edge">
<title>Node9&#45;&gt;Node12</title>
<g id="a_edge17_Node000009_Node000012"><a xlink:title=" ">
<path fill="none" stroke="#63b8ff" d="M446.42,-120.8C459.04,-112.01 475.44,-100.61 489.35,-90.93"/>
<polygon fill="#63b8ff" stroke="#63b8ff" points="491.43,-93.75 497.64,-85.16 487.43,-88 491.43,-93.75"/>
</a>
</g>
</g>
<!-- Node12&#45;&gt;Node3 -->
<g id="edge18_Node000012_Node000003" class="edge">
<title>Node12&#45;&gt;Node3</title>
<g id="a_edge18_Node000012_Node000003"><a xlink:title=" ">
<path fill="none" stroke="#63b8ff" d="M571.34,-61.35C653.86,-49.52 810.69,-27.03 884.99,-16.38"/>
<polygon fill="#63b8ff" stroke="#63b8ff" points="885.51,-19.84 894.91,-14.96 884.52,-12.91 885.51,-19.84"/>
</a>
</g>
</g>
<!-- Node12&#45;&gt;Node4 -->
<g id="edge20_Node000012_Node000004" class="edge">
<title>Node12&#45;&gt;Node4</title>
<g id="a_edge20_Node000012_Node000004"><a xlink:title=" ">
<path fill="none" stroke="#63b8ff" d="M464.76,-57.02C413.9,-45.58 338.62,-28.64 294.31,-18.67"/>
<polygon fill="#63b8ff" stroke="#63b8ff" points="295.07,-15.25 284.55,-16.47 293.53,-22.08 295.07,-15.25"/>
</a>
</g>
</g>
<!-- Node12&#45;&gt;Node10 -->
<g id="edge19_Node000012_Node000010" class="edge">
<title>Node12&#45;&gt;Node10</title>
<g id="a_edge19_Node000012_Node000010"><a xlink:title=" ">
<path fill="none" stroke="#63b8ff" d="M507.35,-54.84C501.16,-46.61 493.31,-36.18 486.79,-27.51"/>
<polygon fill="#63b8ff" stroke="#63b8ff" points="489.4,-25.15 480.59,-19.27 483.81,-29.36 489.4,-25.15"/>
</a>
</g>
</g>
<!-- Node13&#45;&gt;Node11 -->
<g id="edge22_Node000013_Node000011" class="edge">
<title>Node13&#45;&gt;Node11</title>
<g id="a_edge22_Node000013_Node000011"><a xlink:title=" ">
<path fill="none" stroke="#63b8ff" d="M625.82,-120.95C640.45,-111.95 659.64,-100.14 675.69,-90.27"/>
<polygon fill="#63b8ff" stroke="#63b8ff" points="677.55,-93.23 684.23,-85.01 673.88,-87.27 677.55,-93.23"/>
</a>
</g>
</g>
<!-- Node13&#45;&gt;Node12 -->
<g id="edge23_Node000013_Node000012" class="edge">
<title>Node13&#45;&gt;Node12</title>
<g id="a_edge23_Node000013_Node000012"><a xlink:title=" ">
<path fill="none" stroke="#63b8ff" d="M584.14,-120.8C572.58,-112.1 557.61,-100.82 544.83,-91.2"/>
<polygon fill="#63b8ff" stroke="#63b8ff" points="546.91,-88.38 536.81,-85.16 542.69,-93.98 546.91,-88.38"/>
</a>
</g>
</g>
<!-- Node14&#45;&gt;Node11 -->
<g id="edge34_Node000014_Node000011" class="edge">
<title>Node14&#45;&gt;Node11</title>
<g id="a_edge34_Node000014_Node000011"><a xlink:title=" ">
<path fill="none" stroke="#63b8ff" d="M814.72,-120.95C794.67,-111.66 768.19,-99.38 746.49,-89.32"/>
<polygon fill="#63b8ff" stroke="#63b8ff" points="747.76,-86.04 737.21,-85.01 744.81,-92.39 747.76,-86.04"/>
</a>
</g>
</g>
<!-- Node14&#45;&gt;Node12 -->
<g id="edge35_Node000014_Node000012" class="edge">
<title>Node14&#45;&gt;Node12</title>
<g id="a_edge35_Node000014_Node000012"><a xlink:title=" ">
<path fill="none" stroke="#63b8ff" d="M792.35,-123.92C787.5,-122.92 782.66,-121.93 778,-121 710.89,-107.54 633.89,-92.82 581.2,-82.86"/>
<polygon fill="#63b8ff" stroke="#63b8ff" points="581.81,-79.41 571.33,-81 580.51,-86.29 581.81,-79.41"/>
</a>
</g>
</g>
</g>
</svg>

<g id="navigator" transform="translate(0 0)" fill="#404254">
  <rect fill="#f2f5e9" fill-opacity="0.5" stroke="#606060" stroke-width=".5" x="0" y="0" width="60" height="60"/>
  <use id="zoomplus" xlink:href="#zoomPlus" x="17" y="9" onmousedown="handleZoom(evt,'in')"/>
  <use id="zoomminus" xlink:href="#zoomMin" x="42" y="9" onmousedown="handleZoom(evt,'out')"/>
  <use id="reset" xlink:href="#resetDef" x="30" y="36" onmousedown="handleReset()"/>
   <use id="arrowup" xlink:href="#arrowUp" x="0" y="0" onmousedown="handlePan(0,-1)"/>
  <use id="arrowright" xlink:href="#arrowRight" x="0" y="0" onmousedown="handlePan(1,0)"/>
  <use id="arrowdown" xlink:href="#arrowDown" x="0" y="0" onmousedown="handlePan(0,1)"/>
  <use id="arrowleft" xlink:href="#arrowLeft" x="0" y="0" onmousedown="handlePan(-1,0)"/>
</g>
<svg viewBox="0 0 15 15" width="100%" height="30px" preserveAspectRatio="xMaxYMin meet">
 <g id="arrow_out" transform="scale(0.3 0.3)">
  <a xlink:href="sapi__dual__negotiator_8c__incl_org.svg" target="_base">
   <rect id="button" ry="5" rx="5" y="6" x="6" height="38" width="38"
        fill="#f2f5e9" fill-opacity="0.5" stroke="#606060" stroke-width="1.0"/>
   <path id="arrow"
     d="M 11.500037,31.436501 C 11.940474,20.09759 22.043105,11.32322 32.158766,21.979434 L 37.068811,17.246167 C 37.068811,17.246167 37.088388,32 37.088388,32 L 22.160133,31.978069 C 22.160133,31.978069 26.997745,27.140456 26.997745,27.140456 C 18.528582,18.264221 13.291696,25.230495 11.500037,31.436501 z"
     style="fill:#404040;"/>
  </a>
 </g>
</svg>

<style type='text/css'>
<![CDATA[
[data-mouse-over-selected='false'] { opacity: 0.7; }
[data-mouse-over-selected='true']  { opacity: 1.0; }
]]>
</style>
<script type="application/ecmascript"><![CDATA[
document.addEventListener('DOMContentLoaded', (event) => {
  highlightEdges();
  highlightAdjacentNodes();
});
]]></script>
</svg>
