<?xml version="1.0" encoding="UTF-8" standalone="no"?>
<!DOCTYPE svg PUBLIC "-//W3C//DTD SVG 1.1//EN"
 "http://www.w3.org/Graphics/SVG/1.1/DTD/svg11.dtd">
<!-- Generated by graphviz version 2.43.0 (0)
 -->
<!-- Title: src/oal/task/sapi_task.c Pages: 1 -->
<svg width="343pt" height="280pt"
 viewBox="0.00 0.00 342.50 280.00" xmlns="http://www.w3.org/2000/svg" xmlns:xlink="http://www.w3.org/1999/xlink">

<svg id="main" version="1.1" xmlns="http://www.w3.org/2000/svg" xmlns:xlink="http://www.w3.org/1999/xlink" xml:space="preserve" onload="init(evt)">
<style type="text/css"><![CDATA[
.node, .edge {opacity: 0.7;}
.node.selected, .edge.selected {opacity: 1;}
.edge:hover path { stroke: red; }
.edge:hover polygon { stroke: red; fill: red; }
]]></style>
<script type="application/ecmascript" xlink:href="svg.min.js"/>
<svg id="graph" class="graph">
<g id="graph0" class="graph" transform="scale(1 1) rotate(0) translate(4 276)">
<title>src/oal/task/sapi_task.c</title>
<!-- Node1 -->
<g id="Node000001" class="node">
<title>Node1</title>
<g id="a_Node000001"><a xlink:title="Task service: validates parameters, then dispatches to the backend registered via sapi_task_register_...">
<polygon fill="#999999" stroke="#666666" points="215,-272 84,-272 84,-253 215,-253 215,-272"/>
<text text-anchor="middle" x="149.5" y="-260" font-family="Helvetica,sans-Serif" font-size="10.00">src/oal/task/sapi_task.c</text>
</a>
</g>
</g>
<!-- Node2 -->
<g id="Node000002" class="node">
<title>Node2</title>
<g id="a_Node000002"><a xlink:href="sapi__task_8h.html" target="_top" xlink:title="OS Abstraction Layer &#45; Task/thread scheduling service.">
<polygon fill="white" stroke="#666666" points="296.5,-151 178.5,-151 178.5,-121 296.5,-121 296.5,-151"/>
<text text-anchor="start" x="186.5" y="-139" font-family="Helvetica,sans-Serif" font-size="10.00">safeapi/oal/task/sapi</text>
<text text-anchor="middle" x="237.5" y="-128" font-family="Helvetica,sans-Serif" font-size="10.00">_task.h</text>
</a>
</g>
</g>
<!-- Node1&#45;&gt;Node2 -->
<g id="edge1_Node000001_Node000002" class="edge">
<title>Node1&#45;&gt;Node2</title>
<g id="a_edge1_Node000001_Node000002"><a xlink:title=" ">
<path fill="none" stroke="#63b8ff" d="M171.45,-252.99C187.2,-245.76 207.65,-233.84 219.5,-217 230.99,-200.67 235.29,-178.21 236.83,-161.25"/>
<polygon fill="#63b8ff" stroke="#63b8ff" points="240.34,-161.22 237.5,-151.02 233.36,-160.77 240.34,-161.22"/>
</a>
</g>
</g>
<!-- Node8 -->
<g id="Node000008" class="node">
<title>Node8</title>
<g id="a_Node000008"><a xlink:href="sapi__lifecycle_8h.html" target="_top" xlink:title="Process&#45;wide application setup&#45;phase lock (ADR&#45;026).">
<polygon fill="white" stroke="#666666" points="121,-151 0,-151 0,-121 121,-121 121,-151"/>
<text text-anchor="start" x="8" y="-139" font-family="Helvetica,sans-Serif" font-size="10.00">safeapi/utils/lifecycle</text>
<text text-anchor="middle" x="60.5" y="-128" font-family="Helvetica,sans-Serif" font-size="10.00">/sapi_lifecycle.h</text>
</a>
</g>
</g>
<!-- Node1&#45;&gt;Node8 -->
<g id="edge7_Node000001_Node000008" class="edge">
<title>Node1&#45;&gt;Node8</title>
<g id="a_edge7_Node000001_Node000008"><a xlink:title=" ">
<path fill="none" stroke="#63b8ff" d="M127.61,-252.95C111.89,-245.69 91.45,-233.77 79.5,-217 67.88,-200.69 63.29,-178.23 61.52,-161.26"/>
<polygon fill="#63b8ff" stroke="#63b8ff" points="64.98,-160.72 60.71,-151.03 58.01,-161.27 64.98,-160.72"/>
</a>
</g>
</g>
<!-- Node9 -->
<g id="Node000009" class="node">
<title>Node9</title>
<g id="a_Node000009"><a xlink:href="sapi__task__backend_8h.html" target="_top" xlink:title="OS&#45;backend adaptation surface for the Task/thread scheduling service (ADR&#45;005, ADR&#45;021).">
<polygon fill="white" stroke="#666666" points="210.5,-217 88.5,-217 88.5,-187 210.5,-187 210.5,-217"/>
<text text-anchor="start" x="96.5" y="-205" font-family="Helvetica,sans-Serif" font-size="10.00">safeapi_backend/task</text>
<text text-anchor="middle" x="149.5" y="-194" font-family="Helvetica,sans-Serif" font-size="10.00">/sapi_task_backend.h</text>
</a>
</g>
</g>
<!-- Node1&#45;&gt;Node9 -->
<g id="edge10_Node000001_Node000009" class="edge">
<title>Node1&#45;&gt;Node9</title>
<g id="a_edge10_Node000001_Node000009"><a xlink:title=" ">
<path fill="none" stroke="#63b8ff" d="M149.5,-252.87C149.5,-246.11 149.5,-236.35 149.5,-227.26"/>
<polygon fill="#63b8ff" stroke="#63b8ff" points="153,-227.11 149.5,-217.11 146,-227.11 153,-227.11"/>
</a>
</g>
</g>
<!-- Node3 -->
<g id="Node000003" class="node">
<title>Node3</title>
<g id="a_Node000003"><a xlink:href="sapi__status_8h.html" target="_top" xlink:title="Common status/error codes returned by every Safe API Framework function. Shared across all OS Abstrac...">
<polygon fill="white" stroke="#666666" points="198.5,-85 88.5,-85 88.5,-55 198.5,-55 198.5,-85"/>
<text text-anchor="start" x="96.5" y="-73" font-family="Helvetica,sans-Serif" font-size="10.00">safeapi/utils/status</text>
<text text-anchor="middle" x="143.5" y="-62" font-family="Helvetica,sans-Serif" font-size="10.00">/sapi_status.h</text>
</a>
</g>
</g>
<!-- Node2&#45;&gt;Node3 -->
<g id="edge2_Node000002_Node000003" class="edge">
<title>Node2&#45;&gt;Node3</title>
<g id="a_edge2_Node000002_Node000003"><a xlink:title=" ">
<path fill="none" stroke="#63b8ff" d="M216.64,-120.8C203.74,-112.01 186.99,-100.61 172.77,-90.93"/>
<polygon fill="#63b8ff" stroke="#63b8ff" points="174.54,-87.9 164.3,-85.16 170.6,-93.69 174.54,-87.9"/>
</a>
</g>
</g>
<!-- Node4 -->
<g id="Node000004" class="node">
<title>Node4</title>
<g id="a_Node000004"><a xlink:href="sapi__types_8h.html" target="_top" xlink:title="Common fixed&#45;width types and the caller&#45;owned&#45;storage handle pattern used by every OAL service (see A...">
<polygon fill="white" stroke="#666666" points="324,-85 217,-85 217,-55 324,-55 324,-85"/>
<text text-anchor="start" x="225" y="-73" font-family="Helvetica,sans-Serif" font-size="10.00">safeapi/utils/types</text>
<text text-anchor="middle" x="270.5" y="-62" font-family="Helvetica,sans-Serif" font-size="10.00">/sapi_types.h</text>
</a>
</g>
</g>
<!-- Node2&#45;&gt;Node4 -->
<g id="edge3_Node000002_Node000004" class="edge">
<title>Node2&#45;&gt;Node4</title>
<g id="a_edge3_Node000002_Node000004"><a xlink:title=" ">
<path fill="none" stroke="#63b8ff" d="M244.82,-120.8C248.84,-113.01 253.92,-103.16 258.5,-94.28"/>
<polygon fill="#63b8ff" stroke="#63b8ff" points="261.72,-95.66 263.2,-85.16 255.5,-92.45 261.72,-95.66"/>
</a>
</g>
</g>
<!-- Node5 -->
<g id="Node000005" class="node">
<title>Node5</title>
<g id="a_Node000005"><a xlink:title=" ">
<polygon fill="#e0e0e0" stroke="#999999" points="158.5,-19 96.5,-19 96.5,0 158.5,0 158.5,-19"/>
<text text-anchor="middle" x="127.5" y="-7" font-family="Helvetica,sans-Serif" font-size="10.00">stdbool.h</text>
</a>
</g>
</g>
<!-- Node4&#45;&gt;Node5 -->
<g id="edge4_Node000004_Node000005" class="edge">
<title>Node4&#45;&gt;Node5</title>
<g id="a_edge4_Node000004_Node000005"><a xlink:title=" ">
<path fill="none" stroke="#63b8ff" d="M236.25,-54.99C212.39,-45.23 180.85,-32.33 157.89,-22.93"/>
<polygon fill="#63b8ff" stroke="#63b8ff" points="159.2,-19.69 148.62,-19.14 156.55,-26.17 159.2,-19.69"/>
</a>
</g>
</g>
<!-- Node6 -->
<g id="Node000006" class="node">
<title>Node6</title>
<g id="a_Node000006"><a xlink:title=" ">
<polygon fill="#e0e0e0" stroke="#999999" points="334.5,-19 278.5,-19 278.5,0 334.5,0 334.5,-19"/>
<text text-anchor="middle" x="306.5" y="-7" font-family="Helvetica,sans-Serif" font-size="10.00">stddef.h</text>
</a>
</g>
</g>
<!-- Node4&#45;&gt;Node6 -->
<g id="edge5_Node000004_Node000006" class="edge">
<title>Node4&#45;&gt;Node6</title>
<g id="a_edge5_Node000004_Node000006"><a xlink:title=" ">
<path fill="none" stroke="#63b8ff" d="M279.21,-54.84C284.17,-46.78 290.43,-36.62 295.7,-28.06"/>
<polygon fill="#63b8ff" stroke="#63b8ff" points="298.85,-29.62 301.11,-19.27 292.88,-25.95 298.85,-29.62"/>
</a>
</g>
</g>
<!-- Node7 -->
<g id="Node000007" class="node">
<title>Node7</title>
<g id="a_Node000007"><a xlink:title=" ">
<polygon fill="#e0e0e0" stroke="#999999" points="260,-19 207,-19 207,0 260,0 260,-19"/>
<text text-anchor="middle" x="233.5" y="-7" font-family="Helvetica,sans-Serif" font-size="10.00">stdint.h</text>
</a>
</g>
</g>
<!-- Node4&#45;&gt;Node7 -->
<g id="edge6_Node000004_Node000007" class="edge">
<title>Node4&#45;&gt;Node7</title>
<g id="a_edge6_Node000004_Node000007"><a xlink:title=" ">
<path fill="none" stroke="#63b8ff" d="M261.54,-54.84C256.39,-46.69 249.88,-36.4 244.43,-27.78"/>
<polygon fill="#63b8ff" stroke="#63b8ff" points="247.35,-25.85 239.04,-19.27 241.43,-29.59 247.35,-25.85"/>
</a>
</g>
</g>
<!-- Node8&#45;&gt;Node3 -->
<g id="edge9_Node000008_Node000003" class="edge">
<title>Node8&#45;&gt;Node3</title>
<g id="a_edge9_Node000008_Node000003"><a xlink:title=" ">
<path fill="none" stroke="#63b8ff" d="M78.92,-120.8C90.1,-112.18 104.55,-101.04 116.94,-91.48"/>
<polygon fill="#63b8ff" stroke="#63b8ff" points="119.35,-94.04 125.13,-85.16 115.07,-88.5 119.35,-94.04"/>
</a>
</g>
</g>
<!-- Node8&#45;&gt;Node5 -->
<g id="edge8_Node000008_Node000005" class="edge">
<title>Node8&#45;&gt;Node5</title>
<g id="a_edge8_Node000008_Node000005"><a xlink:title=" ">
<path fill="none" stroke="#63b8ff" d="M61.38,-120.78C62.96,-104.03 67.34,-75.84 79.5,-55 86.23,-43.46 96.9,-33.14 106.48,-25.34"/>
<polygon fill="#63b8ff" stroke="#63b8ff" points="108.69,-28.05 114.48,-19.18 104.42,-22.51 108.69,-28.05"/>
</a>
</g>
</g>
<!-- Node9&#45;&gt;Node2 -->
<g id="edge11_Node000009_Node000002" class="edge">
<title>Node9&#45;&gt;Node2</title>
<g id="a_edge11_Node000009_Node000002"><a xlink:title=" ">
<path fill="none" stroke="#63b8ff" d="M169.03,-186.8C180.99,-178.1 196.49,-166.82 209.72,-157.2"/>
<polygon fill="#63b8ff" stroke="#63b8ff" points="212,-159.88 218.02,-151.16 207.88,-154.22 212,-159.88"/>
</a>
</g>
</g>
<!-- Node9&#45;&gt;Node3 -->
<g id="edge12_Node000009_Node000003" class="edge">
<title>Node9&#45;&gt;Node3</title>
<g id="a_edge12_Node000009_Node000003"><a xlink:title=" ">
<path fill="none" stroke="#63b8ff" d="M148.85,-186.84C147.83,-164.86 145.87,-122.27 144.62,-95.3"/>
<polygon fill="#63b8ff" stroke="#63b8ff" points="148.11,-94.97 144.15,-85.14 141.12,-95.29 148.11,-94.97"/>
</a>
</g>
</g>
</g>
</svg>
</svg>

<style type='text/css'>
<![CDATA[
[data-mouse-over-selected='false'] { opacity: 0.7; }
[data-mouse-over-selected='true']  { opacity: 1.0; }
]]>
</style>
<script type="application/ecmascript"><![CDATA[
document.addEventListener('DOMContentLoaded', (event) => {
  highlightEdges();
  highlightAdjacentNodes();
});
]]></script>
</svg>
