<?xml version="1.0" encoding="UTF-8" standalone="no"?>
<!DOCTYPE svg PUBLIC "-//W3C//DTD SVG 1.1//EN"
 "http://www.w3.org/Graphics/SVG/1.1/DTD/svg11.dtd">
<!-- Generated by graphviz version 2.43.0 (0)
 -->
<!-- Title: include/safeapi/utils/string/sapi_string.h Pages: 1 -->
<svg width="254pt" height="104pt"
 viewBox="0.00 0.00 254.00 104.00" xmlns="http://www.w3.org/2000/svg" xmlns:xlink="http://www.w3.org/1999/xlink">
<g id="graph0" class="graph" transform="scale(1 1) rotate(0) translate(4 100)">
<title>include/safeapi/utils/string/sapi_string.h</title>
<!-- Node1 -->
<g id="Node000001" class="node">
<title>Node1</title>
<g id="a_Node000001"><a xlink:title="Bounded, checked string manipulation (ADR&#45;006). Replaces strcpy/strcat/sprintf/atoi/strtok&#45;style unbo...">
<polygon fill="#999999" stroke="#666666" points="183,-96 68,-96 68,-66 183,-66 183,-96"/>
<text text-anchor="start" x="76" y="-84" font-family="Helvetica,sans-Serif" font-size="10.00">include/safeapi/utils</text>
<text text-anchor="middle" x="125.5" y="-73" font-family="Helvetica,sans-Serif" font-size="10.00">/string/sapi_string.h</text>
</a>
</g>
</g>
<!-- Node2 -->
<g id="Node000002" class="node">
<title>Node2</title>
<g id="a_Node000002"><a xlink:href="sapi__log_8c.html" target="_top" xlink:title="Logging service: dispatches to the backend registered via sapi_log_register_backend() (ADR&#45;005)....">
<polygon fill="white" stroke="#666666" points="119,-24.5 0,-24.5 0,-5.5 119,-5.5 119,-24.5"/>
<text text-anchor="middle" x="59.5" y="-12.5" font-family="Helvetica,sans-Serif" font-size="10.00">src/oal/log/sapi_log.c</text>
</a>
</g>
</g>
<!-- Node1&#45;&gt;Node2 -->
<g id="edge1_Node000001_Node000002" class="edge">
<title>Node1&#45;&gt;Node2</title>
<g id="a_edge1_Node000001_Node000002"><a xlink:title=" ">
<path fill="none" stroke="#63b8ff" d="M103.44,-58.6C91.57,-47.1 77.57,-33.52 68.62,-24.84"/>
<polygon fill="#63b8ff" stroke="#63b8ff" points="101.24,-61.35 110.85,-65.8 106.11,-56.32 101.24,-61.35"/>
</a>
</g>
</g>
<!-- Node3 -->
<g id="Node000003" class="node">
<title>Node3</title>
<g id="a_Node000003"><a xlink:href="sapi__string_8c.html" target="_top" xlink:title="Implementation of the bounded string module (ADR&#45;006).">
<polygon fill="white" stroke="#666666" points="246,-30 137,-30 137,0 246,0 246,-30"/>
<text text-anchor="start" x="145" y="-18" font-family="Helvetica,sans-Serif" font-size="10.00">src/utils/string/sapi</text>
<text text-anchor="middle" x="191.5" y="-7" font-family="Helvetica,sans-Serif" font-size="10.00">_string.c</text>
</a>
</g>
</g>
<!-- Node1&#45;&gt;Node3 -->
<g id="edge2_Node000001_Node000003" class="edge">
<title>Node1&#45;&gt;Node3</title>
<g id="a_edge2_Node000001_Node000003"><a xlink:title=" ">
<path fill="none" stroke="#63b8ff" d="M147.52,-58.65C157.19,-49.27 168.27,-38.53 176.89,-30.16"/>
<polygon fill="#63b8ff" stroke="#63b8ff" points="144.89,-56.32 140.15,-65.8 149.76,-61.35 144.89,-56.32"/>
</a>
</g>
</g>
</g>
</svg>
