<?xml version="1.0" encoding="UTF-8" standalone="no"?>
<!DOCTYPE svg PUBLIC "-//W3C//DTD SVG 1.1//EN"
 "http://www.w3.org/Graphics/SVG/1.1/DTD/svg11.dtd">
<!-- Generated by graphviz version 2.43.0 (0)
 -->
<!-- Title: include/safeapi/oal/ipc/sapi_ipc_pubsub.h Pages: 1 -->
<svg width="290pt" height="214pt"
 viewBox="0.00 0.00 289.50 214.00" xmlns="http://www.w3.org/2000/svg" xmlns:xlink="http://www.w3.org/1999/xlink">
<g id="graph0" class="graph" transform="scale(1 1) rotate(0) translate(4 210)">
<title>include/safeapi/oal/ipc/sapi_ipc_pubsub.h</title>
<!-- Node1 -->
<g id="Node000001" class="node">
<title>Node1</title>
<g id="a_Node000001"><a xlink:title="IPC Publish&#45;Subscribe Pattern (one&#45;to&#45;many broadcasting)">
<polygon fill="#999999" stroke="#666666" points="182,-206 56,-206 56,-176 182,-176 182,-206"/>
<text text-anchor="start" x="64" y="-194" font-family="Helvetica,sans-Serif" font-size="10.00">include/safeapi/oal</text>
<text text-anchor="middle" x="119" y="-183" font-family="Helvetica,sans-Serif" font-size="10.00">/ipc/sapi_ipc_pubsub.h</text>
</a>
</g>
</g>
<!-- Node2 -->
<g id="Node000002" class="node">
<title>Node2</title>
<g id="a_Node000002"><a xlink:href="sapi__status_8h.html" target="_top" xlink:title="Common status/error codes returned by every Safe API Framework function. Shared across all OS Abstrac...">
<polygon fill="white" stroke="#666666" points="110,-85 0,-85 0,-55 110,-55 110,-85"/>
<text text-anchor="start" x="8" y="-73" font-family="Helvetica,sans-Serif" font-size="10.00">safeapi/utils/status</text>
<text text-anchor="middle" x="55" y="-62" font-family="Helvetica,sans-Serif" font-size="10.00">/sapi_status.h</text>
</a>
</g>
</g>
<!-- Node1&#45;&gt;Node2 -->
<g id="edge1_Node000001_Node000002" class="edge">
<title>Node1&#45;&gt;Node2</title>
<g id="a_edge1_Node000001_Node000002"><a xlink:title=" ">
<path fill="none" stroke="#63b8ff" d="M104.47,-175.82C95.5,-166.38 84.33,-153.3 77,-140 69.29,-126.01 63.82,-108.91 60.25,-95.24"/>
<polygon fill="#63b8ff" stroke="#63b8ff" points="63.56,-94.02 57.8,-85.13 56.76,-95.67 63.56,-94.02"/>
</a>
</g>
</g>
<!-- Node3 -->
<g id="Node000003" class="node">
<title>Node3</title>
<g id="a_Node000003"><a xlink:href="sapi__types_8h.html" target="_top" xlink:title="Common fixed&#45;width types and the caller&#45;owned&#45;storage handle pattern used by every OAL service (see A...">
<polygon fill="white" stroke="#666666" points="235.5,-85 128.5,-85 128.5,-55 235.5,-55 235.5,-85"/>
<text text-anchor="start" x="136.5" y="-73" font-family="Helvetica,sans-Serif" font-size="10.00">safeapi/utils/types</text>
<text text-anchor="middle" x="182" y="-62" font-family="Helvetica,sans-Serif" font-size="10.00">/sapi_types.h</text>
</a>
</g>
</g>
<!-- Node1&#45;&gt;Node3 -->
<g id="edge2_Node000001_Node000003" class="edge">
<title>Node1&#45;&gt;Node3</title>
<g id="a_edge2_Node000001_Node000003"><a xlink:title=" ">
<path fill="none" stroke="#63b8ff" d="M133.17,-175.76C141.92,-166.3 152.82,-153.22 160,-140 167.63,-125.97 173.1,-108.87 176.68,-95.2"/>
<polygon fill="#63b8ff" stroke="#63b8ff" points="180.18,-95.65 179.15,-85.11 173.38,-93.99 180.18,-95.65"/>
</a>
</g>
</g>
<!-- Node7 -->
<g id="Node000007" class="node">
<title>Node7</title>
<g id="a_Node000007"><a xlink:href="sapi__ipc_8h.html" target="_top" xlink:title="OS Abstraction Layer &#45; Inter&#45;process/inter&#45;task communication service.">
<polygon fill="white" stroke="#666666" points="151.5,-140 86.5,-140 86.5,-121 151.5,-121 151.5,-140"/>
<text text-anchor="middle" x="119" y="-128" font-family="Helvetica,sans-Serif" font-size="10.00">sapi_ipc.h</text>
</a>
</g>
</g>
<!-- Node1&#45;&gt;Node7 -->
<g id="edge6_Node000001_Node000007" class="edge">
<title>Node1&#45;&gt;Node7</title>
<g id="a_edge6_Node000001_Node000007"><a xlink:title=" ">
<path fill="none" stroke="#63b8ff" d="M119,-175.84C119,-168.21 119,-158.7 119,-150.45"/>
<polygon fill="#63b8ff" stroke="#63b8ff" points="122.5,-150.27 119,-140.27 115.5,-150.27 122.5,-150.27"/>
</a>
</g>
</g>
<!-- Node4 -->
<g id="Node000004" class="node">
<title>Node4</title>
<g id="a_Node000004"><a xlink:title=" ">
<polygon fill="#e0e0e0" stroke="#999999" points="136,-19 74,-19 74,0 136,0 136,-19"/>
<text text-anchor="middle" x="105" y="-7" font-family="Helvetica,sans-Serif" font-size="10.00">stdbool.h</text>
</a>
</g>
</g>
<!-- Node3&#45;&gt;Node4 -->
<g id="edge3_Node000003_Node000004" class="edge">
<title>Node3&#45;&gt;Node4</title>
<g id="a_edge3_Node000003_Node000004"><a xlink:title=" ">
<path fill="none" stroke="#63b8ff" d="M163.36,-54.84C151.61,-45.91 136.47,-34.41 124.55,-25.35"/>
<polygon fill="#63b8ff" stroke="#63b8ff" points="126.62,-22.53 116.54,-19.27 122.38,-28.1 126.62,-22.53"/>
</a>
</g>
</g>
<!-- Node5 -->
<g id="Node000005" class="node">
<title>Node5</title>
<g id="a_Node000005"><a xlink:title=" ">
<polygon fill="#e0e0e0" stroke="#999999" points="210,-19 154,-19 154,0 210,0 210,-19"/>
<text text-anchor="middle" x="182" y="-7" font-family="Helvetica,sans-Serif" font-size="10.00">stddef.h</text>
</a>
</g>
</g>
<!-- Node3&#45;&gt;Node5 -->
<g id="edge4_Node000003_Node000005" class="edge">
<title>Node3&#45;&gt;Node5</title>
<g id="a_edge4_Node000003_Node000005"><a xlink:title=" ">
<path fill="none" stroke="#63b8ff" d="M182,-54.84C182,-47.21 182,-37.7 182,-29.45"/>
<polygon fill="#63b8ff" stroke="#63b8ff" points="185.5,-29.27 182,-19.27 178.5,-29.27 185.5,-29.27"/>
</a>
</g>
</g>
<!-- Node6 -->
<g id="Node000006" class="node">
<title>Node6</title>
<g id="a_Node000006"><a xlink:title=" ">
<polygon fill="#e0e0e0" stroke="#999999" points="281.5,-19 228.5,-19 228.5,0 281.5,0 281.5,-19"/>
<text text-anchor="middle" x="255" y="-7" font-family="Helvetica,sans-Serif" font-size="10.00">stdint.h</text>
</a>
</g>
</g>
<!-- Node3&#45;&gt;Node6 -->
<g id="edge5_Node000003_Node000006" class="edge">
<title>Node3&#45;&gt;Node6</title>
<g id="a_edge5_Node000003_Node000006"><a xlink:title=" ">
<path fill="none" stroke="#63b8ff" d="M199.67,-54.84C210.7,-46 224.89,-34.63 236.13,-25.62"/>
<polygon fill="#63b8ff" stroke="#63b8ff" points="238.45,-28.25 244.06,-19.27 234.07,-22.79 238.45,-28.25"/>
</a>
</g>
</g>
<!-- Node7&#45;&gt;Node2 -->
<g id="edge7_Node000007_Node000002" class="edge">
<title>Node7&#45;&gt;Node2</title>
<g id="a_edge7_Node000007_Node000002"><a xlink:title=" ">
<path fill="none" stroke="#63b8ff" d="M109.56,-120.87C101.27,-113.3 88.89,-101.98 78.01,-92.04"/>
<polygon fill="#63b8ff" stroke="#63b8ff" points="80.18,-89.28 70.44,-85.11 75.46,-94.44 80.18,-89.28"/>
</a>
</g>
</g>
<!-- Node7&#45;&gt;Node3 -->
<g id="edge8_Node000007_Node000003" class="edge">
<title>Node7&#45;&gt;Node3</title>
<g id="a_edge8_Node000007_Node000003"><a xlink:title=" ">
<path fill="none" stroke="#63b8ff" d="M128.3,-120.87C136.45,-113.3 148.64,-101.98 159.34,-92.04"/>
<polygon fill="#63b8ff" stroke="#63b8ff" points="161.85,-94.48 166.8,-85.11 157.09,-89.35 161.85,-94.48"/>
</a>
</g>
</g>
</g>
</svg>
