<?xml version="1.0" encoding="UTF-8" standalone="no"?>
<!DOCTYPE svg PUBLIC "-//W3C//DTD SVG 1.1//EN"
 "http://www.w3.org/Graphics/SVG/1.1/DTD/svg11.dtd">
<!-- Generated by graphviz version 2.43.0 (0)
 -->
<!-- Title: src/oal/log/sapi_log.c Pages: 1 -->
<!--zoomable 280 -->

<svg id="main" version="1.1" xmlns="http://www.w3.org/2000/svg" xmlns:xlink="http://www.w3.org/1999/xlink" xml:space="preserve" onload="init(evt)">
<style type="text/css"><![CDATA[
.node, .edge {opacity: 0.7;}
.node.selected, .edge.selected {opacity: 1;}
.edge:hover path { stroke: red; }
.edge:hover polygon { stroke: red; fill: red; }
]]></style>

<defs>
  <circle id="rim" cx="0" cy="0" r="7"/>
  <circle id="rim2" cx="0" cy="0" r="3.5"/>
  <g id="zoomPlus">
    <use xlink:href="#rim" fill="#404040"><set attributeName="fill" to="#808080" begin="zoomplus.mouseover" end="zoomplus.mouseout"/></use>
    <path d="M-4,0h8M0,-4v8" fill="none" stroke="white" stroke-width="1.5" pointer-events="none"/>
  </g>
  <g id="zoomMin">
    <use xlink:href="#rim" fill="#404040"><set attributeName="fill" to="#808080" begin="zoomminus.mouseover" end="zoomminus.mouseout"/></use>
    <path d="M-4,0h8" fill="none" stroke="white" stroke-width="1.5" pointer-events="none"/>
  </g>
  <g id="arrowUp" transform="translate(30 24)">
    <use xlink:href="#rim"/>
    <path pointer-events="none" fill="none" stroke="white" stroke-width="1.5" d="M0,-3.0v7 M-2.5,-0.5L0,-3.0L2.5,-0.5"/>
  </g>
  <g id="arrowRight" transform="rotate(90) translate(36 -43)">
    <use xlink:href="#rim"/>
    <path pointer-events="none" fill="none" stroke="white" stroke-width="1.5" d="M0,-3.0v7 M-2.5,-0.5L0,-3.0L2.5,-0.5"/>
  </g>
  <g id="arrowDown" transform="rotate(180) translate(-30 -48)">
    <use xlink:href="#rim"/>
    <path pointer-events="none" fill="none" stroke="white" stroke-width="1.5" d="M0,-3.0v7 M-2.5,-0.5L0,-3.0L2.5,-0.5"/>
  </g>
  <g id="arrowLeft" transform="rotate(270) translate(-36 17)">
    <use xlink:href="#rim"/>
    <path pointer-events="none" fill="none" stroke="white" stroke-width="1.5" d="M0,-3.0v7 M-2.5,-0.5L0,-3.0L2.5,-0.5"/>
  </g>
  <g id="resetDef">
    <use xlink:href="#rim2" fill="#404040"><set attributeName="fill" to="#808080" begin="reset.mouseover" end="reset.mouseout"/></use>
  </g>
</defs>
<script type="application/ecmascript">
var viewWidth = 622;
var viewHeight = 280;
var sectionId = 'dynsection-0';
</script>
<script type="application/ecmascript" xlink:href="svg.min.js"/>
<svg id="graph" class="graph">
<g id="viewport">
<title>src/oal/log/sapi_log.c</title>
<!-- Node1 -->
<g id="Node000001" class="node">
<title>Node1</title>
<g id="a_Node000001"><a xlink:title="Logging service: dispatches to the backend registered via sapi_log_register_backend() (ADR&#45;005)....">
<polygon fill="#999999" stroke="#666666" points="295,-272 176,-272 176,-253 295,-253 295,-272"/>
<text text-anchor="middle" x="235.5" y="-260" font-family="Helvetica,sans-Serif" font-size="10.00">src/oal/log/sapi_log.c</text>
</a>
</g>
</g>
<!-- Node2 -->
<g id="Node000002" class="node">
<title>Node2</title>
<g id="a_Node000002"><a xlink:href="sapi__log_8h.html" target="_top" xlink:title="OS Abstraction Layer &#45; Logging/diagnostics service.">
<polygon fill="white" stroke="#666666" points="289.5,-151 177.5,-151 177.5,-121 289.5,-121 289.5,-151"/>
<text text-anchor="start" x="185.5" y="-139" font-family="Helvetica,sans-Serif" font-size="10.00">safeapi/oal/log/sapi</text>
<text text-anchor="middle" x="233.5" y="-128" font-family="Helvetica,sans-Serif" font-size="10.00">_log.h</text>
</a>
</g>
</g>
<!-- Node1&#45;&gt;Node2 -->
<g id="edge1_Node000001_Node000002" class="edge">
<title>Node1&#45;&gt;Node2</title>
<g id="a_edge1_Node000001_Node000002"><a xlink:title=" ">
<path fill="none" stroke="#63b8ff" d="M235.36,-252.94C235.06,-234.32 234.34,-189.53 233.89,-161.39"/>
<polygon fill="#63b8ff" stroke="#63b8ff" points="237.39,-161.1 233.73,-151.16 230.39,-161.22 237.39,-161.1"/>
</a>
</g>
</g>
<!-- Node8 -->
<g id="Node000008" class="node">
<title>Node8</title>
<g id="a_Node000008"><a xlink:href="sapi__lifecycle_8h.html" target="_top" xlink:title="Process&#45;wide application setup&#45;phase lock (ADR&#45;026).">
<polygon fill="white" stroke="#666666" points="121,-151 0,-151 0,-121 121,-121 121,-151"/>
<text text-anchor="start" x="8" y="-139" font-family="Helvetica,sans-Serif" font-size="10.00">safeapi/utils/lifecycle</text>
<text text-anchor="middle" x="60.5" y="-128" font-family="Helvetica,sans-Serif" font-size="10.00">/sapi_lifecycle.h</text>
</a>
</g>
</g>
<!-- Node1&#45;&gt;Node8 -->
<g id="edge7_Node000001_Node000008" class="edge">
<title>Node1&#45;&gt;Node8</title>
<g id="a_edge7_Node000001_Node000008"><a xlink:title=" ">
<path fill="none" stroke="#63b8ff" d="M175.76,-257.88C144.11,-252.91 106.87,-241.73 82.5,-217 68.02,-202.3 62.85,-179 61.11,-161.33"/>
<polygon fill="#63b8ff" stroke="#63b8ff" points="64.59,-160.92 60.42,-151.18 57.61,-161.39 64.59,-160.92"/>
</a>
</g>
</g>
<!-- Node9 -->
<g id="Node000009" class="node">
<title>Node9</title>
<g id="a_Node000009"><a xlink:href="sapi__log__backend_8h.html" target="_top" xlink:title="OS&#45;backend adaptation surface for the Logging/diagnostics service (ADR&#45;005, ADR&#45;021).">
<polygon fill="white" stroke="#666666" points="207.5,-217 91.5,-217 91.5,-187 207.5,-187 207.5,-217"/>
<text text-anchor="start" x="99.5" y="-205" font-family="Helvetica,sans-Serif" font-size="10.00">safeapi_backend/log</text>
<text text-anchor="middle" x="149.5" y="-194" font-family="Helvetica,sans-Serif" font-size="10.00">/sapi_log_backend.h</text>
</a>
</g>
</g>
<!-- Node1&#45;&gt;Node9 -->
<g id="edge10_Node000001_Node000009" class="edge">
<title>Node1&#45;&gt;Node9</title>
<g id="a_edge10_Node000001_Node000009"><a xlink:title=" ">
<path fill="none" stroke="#63b8ff" d="M222.81,-252.87C211.25,-245 193.74,-233.09 178.73,-222.89"/>
<polygon fill="#63b8ff" stroke="#63b8ff" points="180.49,-219.85 170.25,-217.11 176.55,-225.63 180.49,-219.85"/>
</a>
</g>
</g>
<!-- Node10 -->
<g id="Node000010" class="node">
<title>Node10</title>
<g id="a_Node000010"><a xlink:href="sapi__string_8h.html" target="_top" xlink:title="Bounded, checked string manipulation (ADR&#45;006). Replaces strcpy/strcat/sprintf/atoi/strtok&#45;style unbo...">
<polygon fill="white" stroke="#666666" points="404,-217 297,-217 297,-187 404,-187 404,-217"/>
<text text-anchor="start" x="305" y="-205" font-family="Helvetica,sans-Serif" font-size="10.00">safeapi/utils/string</text>
<text text-anchor="middle" x="350.5" y="-194" font-family="Helvetica,sans-Serif" font-size="10.00">/sapi_string.h</text>
</a>
</g>
</g>
<!-- Node1&#45;&gt;Node10 -->
<g id="edge13_Node000001_Node000010" class="edge">
<title>Node1&#45;&gt;Node10</title>
<g id="a_edge13_Node000001_Node000010"><a xlink:title=" ">
<path fill="none" stroke="#63b8ff" d="M252.47,-252.87C268.51,-244.71 293.1,-232.2 313.65,-221.75"/>
<polygon fill="#63b8ff" stroke="#63b8ff" points="315.43,-224.77 322.75,-217.11 312.25,-218.53 315.43,-224.77"/>
</a>
</g>
</g>
<!-- Node12 -->
<g id="Node000012" class="node">
<title>Node12</title>
<g id="a_Node000012"><a xlink:href="sapi__timer_8h.html" target="_top" xlink:title="OS Abstraction Layer &#45; Timer service.">
<polygon fill="white" stroke="#666666" points="595,-151 472,-151 472,-121 595,-121 595,-151"/>
<text text-anchor="start" x="480" y="-139" font-family="Helvetica,sans-Serif" font-size="10.00">safeapi/oal/timer/sapi</text>
<text text-anchor="middle" x="533.5" y="-128" font-family="Helvetica,sans-Serif" font-size="10.00">_timer.h</text>
</a>
</g>
</g>
<!-- Node1&#45;&gt;Node12 -->
<g id="edge19_Node000001_Node000012" class="edge">
<title>Node1&#45;&gt;Node12</title>
<g id="a_edge19_Node000001_Node000012"><a xlink:title=" ">
<path fill="none" stroke="#63b8ff" d="M289.65,-252.96C325.77,-246.07 373.74,-234.59 413.5,-217 448.78,-201.39 485.06,-175.59 508.36,-157.52"/>
<polygon fill="#63b8ff" stroke="#63b8ff" points="510.64,-160.18 516.33,-151.25 506.31,-154.68 510.64,-160.18"/>
</a>
</g>
</g>
<!-- Node3 -->
<g id="Node000003" class="node">
<title>Node3</title>
<g id="a_Node000003"><a xlink:href="sapi__status_8h.html" target="_top" xlink:title="Common status/error codes returned by every Safe API Framework function. Shared across all OS Abstrac...">
<polygon fill="white" stroke="#666666" points="307.5,-85 197.5,-85 197.5,-55 307.5,-55 307.5,-85"/>
<text text-anchor="start" x="205.5" y="-73" font-family="Helvetica,sans-Serif" font-size="10.00">safeapi/utils/status</text>
<text text-anchor="middle" x="252.5" y="-62" font-family="Helvetica,sans-Serif" font-size="10.00">/sapi_status.h</text>
</a>
</g>
</g>
<!-- Node2&#45;&gt;Node3 -->
<g id="edge2_Node000002_Node000003" class="edge">
<title>Node2&#45;&gt;Node3</title>
<g id="a_edge2_Node000002_Node000003"><a xlink:title=" ">
<path fill="none" stroke="#63b8ff" d="M237.72,-120.8C239.98,-113.17 242.83,-103.57 245.42,-94.84"/>
<polygon fill="#63b8ff" stroke="#63b8ff" points="248.8,-95.75 248.3,-85.16 242.09,-93.75 248.8,-95.75"/>
</a>
</g>
</g>
<!-- Node4 -->
<g id="Node000004" class="node">
<title>Node4</title>
<g id="a_Node000004"><a xlink:href="sapi__types_8h.html" target="_top" xlink:title="Common fixed&#45;width types and the caller&#45;owned&#45;storage handle pattern used by every OAL service (see A...">
<polygon fill="white" stroke="#666666" points="453,-85 346,-85 346,-55 453,-55 453,-85"/>
<text text-anchor="start" x="354" y="-73" font-family="Helvetica,sans-Serif" font-size="10.00">safeapi/utils/types</text>
<text text-anchor="middle" x="399.5" y="-62" font-family="Helvetica,sans-Serif" font-size="10.00">/sapi_types.h</text>
</a>
</g>
</g>
<!-- Node2&#45;&gt;Node4 -->
<g id="edge3_Node000002_Node000004" class="edge">
<title>Node2&#45;&gt;Node4</title>
<g id="a_edge3_Node000002_Node000004"><a xlink:title=" ">
<path fill="none" stroke="#63b8ff" d="M269.93,-120.95C294.58,-111.45 327.33,-98.82 353.74,-88.64"/>
<polygon fill="#63b8ff" stroke="#63b8ff" points="355.08,-91.88 363.16,-85.01 352.57,-85.34 355.08,-91.88"/>
</a>
</g>
</g>
<!-- Node5 -->
<g id="Node000005" class="node">
<title>Node5</title>
<g id="a_Node000005"><a xlink:title=" ">
<polygon fill="#e0e0e0" stroke="#999999" points="267.5,-19 205.5,-19 205.5,0 267.5,0 267.5,-19"/>
<text text-anchor="middle" x="236.5" y="-7" font-family="Helvetica,sans-Serif" font-size="10.00">stdbool.h</text>
</a>
</g>
</g>
<!-- Node4&#45;&gt;Node5 -->
<g id="edge4_Node000004_Node000005" class="edge">
<title>Node4&#45;&gt;Node5</title>
<g id="a_edge4_Node000004_Node000005"><a xlink:title=" ">
<path fill="none" stroke="#63b8ff" d="M360.46,-54.99C332.9,-45.1 296.35,-31.98 270.09,-22.56"/>
<polygon fill="#63b8ff" stroke="#63b8ff" points="271.17,-19.22 260.57,-19.14 268.8,-25.81 271.17,-19.22"/>
</a>
</g>
</g>
<!-- Node6 -->
<g id="Node000006" class="node">
<title>Node6</title>
<g id="a_Node000006"><a xlink:title=" ">
<polygon fill="#e0e0e0" stroke="#999999" points="463.5,-19 407.5,-19 407.5,0 463.5,0 463.5,-19"/>
<text text-anchor="middle" x="435.5" y="-7" font-family="Helvetica,sans-Serif" font-size="10.00">stddef.h</text>
</a>
</g>
</g>
<!-- Node4&#45;&gt;Node6 -->
<g id="edge5_Node000004_Node000006" class="edge">
<title>Node4&#45;&gt;Node6</title>
<g id="a_edge5_Node000004_Node000006"><a xlink:title=" ">
<path fill="none" stroke="#63b8ff" d="M408.21,-54.84C413.17,-46.78 419.43,-36.62 424.7,-28.06"/>
<polygon fill="#63b8ff" stroke="#63b8ff" points="427.85,-29.62 430.11,-19.27 421.88,-25.95 427.85,-29.62"/>
</a>
</g>
</g>
<!-- Node7 -->
<g id="Node000007" class="node">
<title>Node7</title>
<g id="a_Node000007"><a xlink:title=" ">
<polygon fill="#e0e0e0" stroke="#999999" points="389,-19 336,-19 336,0 389,0 389,-19"/>
<text text-anchor="middle" x="362.5" y="-7" font-family="Helvetica,sans-Serif" font-size="10.00">stdint.h</text>
</a>
</g>
</g>
<!-- Node4&#45;&gt;Node7 -->
<g id="edge6_Node000004_Node000007" class="edge">
<title>Node4&#45;&gt;Node7</title>
<g id="a_edge6_Node000004_Node000007"><a xlink:title=" ">
<path fill="none" stroke="#63b8ff" d="M390.54,-54.84C385.39,-46.69 378.88,-36.4 373.43,-27.78"/>
<polygon fill="#63b8ff" stroke="#63b8ff" points="376.35,-25.85 368.04,-19.27 370.43,-29.59 376.35,-25.85"/>
</a>
</g>
</g>
<!-- Node8&#45;&gt;Node3 -->
<g id="edge9_Node000008_Node000003" class="edge">
<title>Node8&#45;&gt;Node3</title>
<g id="a_edge9_Node000008_Node000003"><a xlink:title=" ">
<path fill="none" stroke="#63b8ff" d="M102.64,-120.95C131.52,-111.33 170.03,-98.49 200.77,-88.24"/>
<polygon fill="#63b8ff" stroke="#63b8ff" points="202.08,-91.5 210.46,-85.01 199.87,-84.85 202.08,-91.5"/>
</a>
</g>
</g>
<!-- Node8&#45;&gt;Node5 -->
<g id="edge8_Node000008_Node000005" class="edge">
<title>Node8&#45;&gt;Node5</title>
<g id="a_edge8_Node000008_Node000005"><a xlink:title=" ">
<path fill="none" stroke="#63b8ff" d="M80.35,-120.96C114.02,-97.14 181.99,-49.06 216.06,-24.96"/>
<polygon fill="#63b8ff" stroke="#63b8ff" points="218.19,-27.74 224.33,-19.11 214.14,-22.03 218.19,-27.74"/>
</a>
</g>
</g>
<!-- Node9&#45;&gt;Node2 -->
<g id="edge11_Node000009_Node000002" class="edge">
<title>Node9&#45;&gt;Node2</title>
<g id="a_edge11_Node000009_Node000002"><a xlink:title=" ">
<path fill="none" stroke="#63b8ff" d="M168.14,-186.8C179.45,-178.18 194.08,-167.04 206.62,-157.48"/>
<polygon fill="#63b8ff" stroke="#63b8ff" points="209.08,-160.01 214.91,-151.16 204.83,-154.44 209.08,-160.01"/>
</a>
</g>
</g>
<!-- Node9&#45;&gt;Node3 -->
<g id="edge12_Node000009_Node000003" class="edge">
<title>Node9&#45;&gt;Node3</title>
<g id="a_edge12_Node000009_Node000003"><a xlink:title=" ">
<path fill="none" stroke="#63b8ff" d="M149.61,-186.9C150.43,-169.76 154.05,-140.67 168.5,-121 178.14,-107.87 192.36,-97.56 206.37,-89.8"/>
<polygon fill="#63b8ff" stroke="#63b8ff" points="208.23,-92.77 215.5,-85.06 205.01,-86.56 208.23,-92.77"/>
</a>
</g>
</g>
<!-- Node10&#45;&gt;Node3 -->
<g id="edge17_Node000010_Node000003" class="edge">
<title>Node10&#45;&gt;Node3</title>
<g id="a_edge17_Node000010_Node000003"><a xlink:title=" ">
<path fill="none" stroke="#63b8ff" d="M342.34,-186.93C332.63,-170.57 315.56,-142.98 298.5,-121 290.97,-111.3 281.95,-101.22 273.91,-92.67"/>
<polygon fill="#63b8ff" stroke="#63b8ff" points="276.31,-90.11 266.86,-85.31 271.25,-94.95 276.31,-90.11"/>
</a>
</g>
</g>
<!-- Node10&#45;&gt;Node4 -->
<g id="edge18_Node000010_Node000004" class="edge">
<title>Node10&#45;&gt;Node4</title>
<g id="a_edge18_Node000010_Node000004"><a xlink:title=" ">
<path fill="none" stroke="#63b8ff" d="M404.05,-198.21C470.94,-193.48 579.63,-181.24 604.5,-151 646.45,-99.99 538.27,-81.39 463.58,-74.69"/>
<polygon fill="#63b8ff" stroke="#63b8ff" points="463.54,-71.18 453.29,-73.82 462.96,-78.15 463.54,-71.18"/>
</a>
</g>
</g>
<!-- Node11 -->
<g id="Node000011" class="node">
<title>Node11</title>
<g id="a_Node000011"><a xlink:href="sapi__buffer_8h.html" target="_top" xlink:title="Cross&#45;layer data buffer abstraction (ADR&#45;002).">
<polygon fill="white" stroke="#666666" points="453.5,-151 345.5,-151 345.5,-121 453.5,-121 453.5,-151"/>
<text text-anchor="start" x="353.5" y="-139" font-family="Helvetica,sans-Serif" font-size="10.00">safeapi/utils/buffer</text>
<text text-anchor="middle" x="399.5" y="-128" font-family="Helvetica,sans-Serif" font-size="10.00">/sapi_buffer.h</text>
</a>
</g>
</g>
<!-- Node10&#45;&gt;Node11 -->
<g id="edge14_Node000010_Node000011" class="edge">
<title>Node10&#45;&gt;Node11</title>
<g id="a_edge14_Node000010_Node000011"><a xlink:title=" ">
<path fill="none" stroke="#63b8ff" d="M361.37,-186.8C367.59,-178.68 375.52,-168.31 382.54,-159.15"/>
<polygon fill="#63b8ff" stroke="#63b8ff" points="385.36,-161.23 388.66,-151.16 379.8,-156.98 385.36,-161.23"/>
</a>
</g>
</g>
<!-- Node11&#45;&gt;Node3 -->
<g id="edge15_Node000011_Node000003" class="edge">
<title>Node11&#45;&gt;Node3</title>
<g id="a_edge15_Node000011_Node000003"><a xlink:title=" ">
<path fill="none" stroke="#63b8ff" d="M367.24,-120.95C345.7,-111.58 317.17,-99.16 293.95,-89.05"/>
<polygon fill="#63b8ff" stroke="#63b8ff" points="295.25,-85.8 284.68,-85.01 292.46,-92.21 295.25,-85.8"/>
</a>
</g>
</g>
<!-- Node11&#45;&gt;Node4 -->
<g id="edge16_Node000011_Node000004" class="edge">
<title>Node11&#45;&gt;Node4</title>
<g id="a_edge16_Node000011_Node000004"><a xlink:title=" ">
<path fill="none" stroke="#63b8ff" d="M399.5,-120.8C399.5,-113.34 399.5,-103.99 399.5,-95.41"/>
<polygon fill="#63b8ff" stroke="#63b8ff" points="403,-95.16 399.5,-85.16 396,-95.16 403,-95.16"/>
</a>
</g>
</g>
<!-- Node12&#45;&gt;Node3 -->
<g id="edge20_Node000012_Node000003" class="edge">
<title>Node12&#45;&gt;Node3</title>
<g id="a_edge20_Node000012_Node000003"><a xlink:title=" ">
<path fill="none" stroke="#63b8ff" d="M471.83,-120.95C426.23,-110.57 364.24,-96.45 317.79,-85.87"/>
<polygon fill="#63b8ff" stroke="#63b8ff" points="318.36,-82.41 307.83,-83.6 316.81,-89.24 318.36,-82.41"/>
</a>
</g>
</g>
<!-- Node12&#45;&gt;Node4 -->
<g id="edge21_Node000012_Node000004" class="edge">
<title>Node12&#45;&gt;Node4</title>
<g id="a_edge21_Node000012_Node000004"><a xlink:title=" ">
<path fill="none" stroke="#63b8ff" d="M504.09,-120.95C484.72,-111.7 459.14,-99.49 438.13,-89.45"/>
<polygon fill="#63b8ff" stroke="#63b8ff" points="439.37,-86.16 428.84,-85.01 436.35,-92.48 439.37,-86.16"/>
</a>
</g>
</g>
</g>
</svg>

<g id="navigator" transform="translate(0 0)" fill="#404254">
  <rect fill="#f2f5e9" fill-opacity="0.5" stroke="#606060" stroke-width=".5" x="0" y="0" width="60" height="60"/>
  <use id="zoomplus" xlink:href="#zoomPlus" x="17" y="9" onmousedown="handleZoom(evt,'in')"/>
  <use id="zoomminus" xlink:href="#zoomMin" x="42" y="9" onmousedown="handleZoom(evt,'out')"/>
  <use id="reset" xlink:href="#resetDef" x="30" y="36" onmousedown="handleReset()"/>
   <use id="arrowup" xlink:href="#arrowUp" x="0" y="0" onmousedown="handlePan(0,-1)"/>
  <use id="arrowright" xlink:href="#arrowRight" x="0" y="0" onmousedown="handlePan(1,0)"/>
  <use id="arrowdown" xlink:href="#arrowDown" x="0" y="0" onmousedown="handlePan(0,1)"/>
  <use id="arrowleft" xlink:href="#arrowLeft" x="0" y="0" onmousedown="handlePan(-1,0)"/>
</g>
<svg viewBox="0 0 15 15" width="100%" height="30px" preserveAspectRatio="xMaxYMin meet">
 <g id="arrow_out" transform="scale(0.3 0.3)">
  <a xlink:href="sapi__log_8c__incl_org.svg" target="_base">
   <rect id="button" ry="5" rx="5" y="6" x="6" height="38" width="38"
        fill="#f2f5e9" fill-opacity="0.5" stroke="#606060" stroke-width="1.0"/>
   <path id="arrow"
     d="M 11.500037,31.436501 C 11.940474,20.09759 22.043105,11.32322 32.158766,21.979434 L 37.068811,17.246167 C 37.068811,17.246167 37.088388,32 37.088388,32 L 22.160133,31.978069 C 22.160133,31.978069 26.997745,27.140456 26.997745,27.140456 C 18.528582,18.264221 13.291696,25.230495 11.500037,31.436501 z"
     style="fill:#404040;"/>
  </a>
 </g>
</svg>

<style type='text/css'>
<![CDATA[
[data-mouse-over-selected='false'] { opacity: 0.7; }
[data-mouse-over-selected='true']  { opacity: 1.0; }
]]>
</style>
<script type="application/ecmascript"><![CDATA[
document.addEventListener('DOMContentLoaded', (event) => {
  highlightEdges();
  highlightAdjacentNodes();
});
]]></script>
</svg>
