<?xml version="1.0" encoding="UTF-8" standalone="no"?>
<!DOCTYPE svg PUBLIC "-//W3C//DTD SVG 1.1//EN"
 "http://www.w3.org/Graphics/SVG/1.1/DTD/svg11.dtd">
<!-- Generated by graphviz version 2.43.0 (0)
 -->
<!-- Title: src/checkpoint/sapi_checkpoint.c Pages: 1 -->
<svg width="949pt" height="302pt"
 viewBox="0.00 0.00 948.50 302.00" xmlns="http://www.w3.org/2000/svg" xmlns:xlink="http://www.w3.org/1999/xlink">
<g id="graph0" class="graph" transform="scale(1 1) rotate(0) translate(4 298)">
<title>src/checkpoint/sapi_checkpoint.c</title>
<!-- Node1 -->
<g id="Node000001" class="node">
<title>Node1</title>
<g id="a_Node000001"><a xlink:title="Implementation of the bounded checkpoint rendezvous (ADR&#45;017).">
<polygon fill="#999999" stroke="#666666" points="601,-294 491,-294 491,-264 601,-264 601,-294"/>
<text text-anchor="start" x="499" y="-282" font-family="Helvetica,sans-Serif" font-size="10.00">src/checkpoint/sapi</text>
<text text-anchor="middle" x="546" y="-271" font-family="Helvetica,sans-Serif" font-size="10.00">_checkpoint.c</text>
</a>
</g>
</g>
<!-- Node2 -->
<g id="Node000002" class="node">
<title>Node2</title>
<g id="a_Node000002"><a xlink:href="sapi__checkpoint_8h.html" target="_top" xlink:title="Bounded checkpoint rendezvous for distributed vital channels (ADR&#45;017)">
<polygon fill="white" stroke="#666666" points="446.5,-228 337.5,-228 337.5,-198 446.5,-198 446.5,-228"/>
<text text-anchor="start" x="345.5" y="-216" font-family="Helvetica,sans-Serif" font-size="10.00">safeapi/checkpoint</text>
<text text-anchor="middle" x="392" y="-205" font-family="Helvetica,sans-Serif" font-size="10.00">/sapi_checkpoint.h</text>
</a>
</g>
</g>
<!-- Node1&#45;&gt;Node2 -->
<g id="edge1_Node000001_Node000002" class="edge">
<title>Node1&#45;&gt;Node2</title>
<g id="a_edge1_Node000001_Node000002"><a xlink:title=" ">
<path fill="none" stroke="#63b8ff" d="M512.2,-263.95C489.54,-254.53 459.48,-242.04 435.1,-231.91"/>
<polygon fill="#63b8ff" stroke="#63b8ff" points="436.29,-228.62 425.72,-228.01 433.61,-235.08 436.29,-228.62"/>
</a>
</g>
</g>
<!-- Node6 -->
<g id="Node000006" class="node">
<title>Node6</title>
<g id="a_Node000006"><a xlink:title=" ">
<polygon fill="#e0e0e0" stroke="#999999" points="62,-24.5 0,-24.5 0,-5.5 62,-5.5 62,-24.5"/>
<text text-anchor="middle" x="31" y="-12.5" font-family="Helvetica,sans-Serif" font-size="10.00">stdbool.h</text>
</a>
</g>
</g>
<!-- Node1&#45;&gt;Node6 -->
<g id="edge21_Node000001_Node000006" class="edge">
<title>Node1&#45;&gt;Node6</title>
<g id="a_edge21_Node000001_Node000006"><a xlink:title=" ">
<path fill="none" stroke="#63b8ff" d="M490.59,-272.82C374.54,-260.76 111.86,-226.81 54,-162 22.18,-126.36 24.48,-65.32 28.1,-34.69"/>
<polygon fill="#63b8ff" stroke="#63b8ff" points="31.6,-34.94 29.48,-24.55 24.66,-33.99 31.6,-34.94"/>
</a>
</g>
</g>
<!-- Node11 -->
<g id="Node000011" class="node">
<title>Node11</title>
<g id="a_Node000011"><a xlink:title=" ">
<polygon fill="#e0e0e0" stroke="#999999" points="700,-222.5 650,-222.5 650,-203.5 700,-203.5 700,-222.5"/>
<text text-anchor="middle" x="675" y="-210.5" font-family="Helvetica,sans-Serif" font-size="10.00">stdio.h</text>
</a>
</g>
</g>
<!-- Node1&#45;&gt;Node11 -->
<g id="edge22_Node000001_Node000011" class="edge">
<title>Node1&#45;&gt;Node11</title>
<g id="a_edge22_Node000001_Node000011"><a xlink:title=" ">
<path fill="none" stroke="#63b8ff" d="M574.31,-263.95C596.43,-252.98 626.96,-237.83 648.58,-227.11"/>
<polygon fill="#63b8ff" stroke="#63b8ff" points="650.43,-230.1 657.83,-222.52 647.32,-223.83 650.43,-230.1"/>
</a>
</g>
</g>
<!-- Node12 -->
<g id="Node000012" class="node">
<title>Node12</title>
<g id="a_Node000012"><a xlink:href="sapi__buffer_8h.html" target="_top" xlink:title="Cross&#45;layer data buffer abstraction (ADR&#45;002).">
<polygon fill="white" stroke="#666666" points="635.5,-162 528.5,-162 528.5,-132 635.5,-132 635.5,-162"/>
<text text-anchor="start" x="536.5" y="-150" font-family="Helvetica,sans-Serif" font-size="10.00">safeapi/buffer/sapi</text>
<text text-anchor="middle" x="582" y="-139" font-family="Helvetica,sans-Serif" font-size="10.00">_buffer.h</text>
</a>
</g>
</g>
<!-- Node1&#45;&gt;Node12 -->
<g id="edge23_Node000001_Node000012" class="edge">
<title>Node1&#45;&gt;Node12</title>
<g id="a_edge23_Node000001_Node000012"><a xlink:title=" ">
<path fill="none" stroke="#63b8ff" d="M549.92,-263.84C556.03,-241.76 567.91,-198.89 575.37,-171.94"/>
<polygon fill="#63b8ff" stroke="#63b8ff" points="578.79,-172.71 578.08,-162.14 572.04,-170.85 578.79,-172.71"/>
</a>
</g>
</g>
<!-- Node13 -->
<g id="Node000013" class="node">
<title>Node13</title>
<g id="a_Node000013"><a xlink:href="sapi__checksum_8h.html" target="_top" xlink:title="Checksum and CRC utilities for data integrity in redundant systems.">
<polygon fill="white" stroke="#666666" points="328,-162 200,-162 200,-132 328,-132 328,-162"/>
<text text-anchor="start" x="208" y="-150" font-family="Helvetica,sans-Serif" font-size="10.00">safeapi/checksum/sapi</text>
<text text-anchor="middle" x="264" y="-139" font-family="Helvetica,sans-Serif" font-size="10.00">_checksum.h</text>
</a>
</g>
</g>
<!-- Node1&#45;&gt;Node13 -->
<g id="edge26_Node000001_Node000013" class="edge">
<title>Node1&#45;&gt;Node13</title>
<g id="a_edge26_Node000001_Node000013"><a xlink:title=" ">
<path fill="none" stroke="#63b8ff" d="M490.97,-275.21C444.69,-270.65 378.38,-258.78 329,-228 306.4,-213.91 288.1,-189.16 276.75,-170.91"/>
<polygon fill="#63b8ff" stroke="#63b8ff" points="279.74,-169.08 271.6,-162.3 273.73,-172.67 279.74,-169.08"/>
</a>
</g>
</g>
<!-- Node14 -->
<g id="Node000014" class="node">
<title>Node14</title>
<g id="a_Node000014"><a xlink:href="sapi__safestate_8h.html" target="_top" xlink:title="Safe&#45;state transitions and checked assertions (ADR&#45;004).">
<polygon fill="white" stroke="#666666" points="778.5,-162 653.5,-162 653.5,-132 778.5,-132 778.5,-162"/>
<text text-anchor="start" x="661.5" y="-150" font-family="Helvetica,sans-Serif" font-size="10.00">safeapi/safestate/sapi</text>
<text text-anchor="middle" x="716" y="-139" font-family="Helvetica,sans-Serif" font-size="10.00">_safestate.h</text>
</a>
</g>
</g>
<!-- Node1&#45;&gt;Node14 -->
<g id="edge31_Node000001_Node000014" class="edge">
<title>Node1&#45;&gt;Node14</title>
<g id="a_edge31_Node000001_Node000014"><a xlink:title=" ">
<path fill="none" stroke="#63b8ff" d="M554.01,-263.89C564.5,-246.47 584.36,-216.83 608,-198 624.73,-184.68 645.59,-173.95 664.5,-165.9"/>
<polygon fill="#63b8ff" stroke="#63b8ff" points="665.97,-169.09 673.89,-162.06 663.31,-162.61 665.97,-169.09"/>
</a>
</g>
</g>
<!-- Node15 -->
<g id="Node000015" class="node">
<title>Node15</title>
<g id="a_Node000015"><a xlink:href="sapi__timer_8h.html" target="_top" xlink:title="OS Abstraction Layer &#45; Timer service.">
<polygon fill="white" stroke="#666666" points="940.5,-162 835.5,-162 835.5,-132 940.5,-132 940.5,-162"/>
<text text-anchor="start" x="843.5" y="-150" font-family="Helvetica,sans-Serif" font-size="10.00">safeapi/timer/sapi</text>
<text text-anchor="middle" x="888" y="-139" font-family="Helvetica,sans-Serif" font-size="10.00">_timer.h</text>
</a>
</g>
</g>
<!-- Node1&#45;&gt;Node15 -->
<g id="edge34_Node000001_Node000015" class="edge">
<title>Node1&#45;&gt;Node15</title>
<g id="a_edge34_Node000001_Node000015"><a xlink:title=" ">
<path fill="none" stroke="#63b8ff" d="M563.49,-263.94C575.76,-254.01 592.5,-240.33 607,-228 622.35,-214.94 622.94,-206.95 641,-198 714.1,-161.77 741.07,-178.34 821,-162 822.46,-161.7 823.93,-161.4 825.41,-161.1"/>
<polygon fill="#63b8ff" stroke="#63b8ff" points="826.26,-164.5 835.34,-159.05 824.84,-157.64 826.26,-164.5"/>
</a>
</g>
</g>
<!-- Node3 -->
<g id="Node000003" class="node">
<title>Node3</title>
<g id="a_Node000003"><a xlink:title=" ">
<polygon fill="#e0e0e0" stroke="#999999" points="152.5,-24.5 99.5,-24.5 99.5,-5.5 152.5,-5.5 152.5,-24.5"/>
<text text-anchor="middle" x="126" y="-12.5" font-family="Helvetica,sans-Serif" font-size="10.00">stdint.h</text>
</a>
</g>
</g>
<!-- Node2&#45;&gt;Node3 -->
<g id="edge2_Node000002_Node000003" class="edge">
<title>Node2&#45;&gt;Node3</title>
<g id="a_edge2_Node000002_Node000003"><a xlink:title=" ">
<path fill="none" stroke="#63b8ff" d="M337.45,-211.76C254.56,-210.1 102.93,-201.58 69,-162 35.32,-122.7 83.16,-61.19 109.97,-32.18"/>
<polygon fill="#63b8ff" stroke="#63b8ff" points="112.84,-34.25 117.2,-24.59 107.77,-29.42 112.84,-34.25"/>
</a>
</g>
</g>
<!-- Node4 -->
<g id="Node000004" class="node">
<title>Node4</title>
<g id="a_Node000004"><a xlink:href="sapi__status_8h.html" target="_top" xlink:title="Common status/error codes returned by every Safe API Framework function. Shared across all OS Abstrac...">
<polygon fill="white" stroke="#666666" points="649.5,-30 540.5,-30 540.5,0 649.5,0 649.5,-30"/>
<text text-anchor="start" x="548.5" y="-18" font-family="Helvetica,sans-Serif" font-size="10.00">safeapi/status/sapi</text>
<text text-anchor="middle" x="595" y="-7" font-family="Helvetica,sans-Serif" font-size="10.00">_status.h</text>
</a>
</g>
</g>
<!-- Node2&#45;&gt;Node4 -->
<g id="edge3_Node000002_Node000004" class="edge">
<title>Node2&#45;&gt;Node4</title>
<g id="a_edge3_Node000002_Node000004"><a xlink:title=" ">
<path fill="none" stroke="#63b8ff" d="M446.52,-209.06C549.82,-202.92 765.77,-187.21 788,-162 837.19,-106.2 726.03,-57.75 652.78,-33.17"/>
<polygon fill="#63b8ff" stroke="#63b8ff" points="653.76,-29.81 643.16,-30.01 651.57,-36.46 653.76,-29.81"/>
</a>
</g>
</g>
<!-- Node5 -->
<g id="Node000005" class="node">
<title>Node5</title>
<g id="a_Node000005"><a xlink:href="sapi__types_8h.html" target="_top" xlink:title="Common fixed&#45;width types and the caller&#45;owned&#45;storage handle pattern used by every OAL service (see A...">
<polygon fill="white" stroke="#666666" points="548,-96 442,-96 442,-66 548,-66 548,-96"/>
<text text-anchor="start" x="450" y="-84" font-family="Helvetica,sans-Serif" font-size="10.00">safeapi/types/sapi</text>
<text text-anchor="middle" x="495" y="-73" font-family="Helvetica,sans-Serif" font-size="10.00">_types.h</text>
</a>
</g>
</g>
<!-- Node2&#45;&gt;Node5 -->
<g id="edge4_Node000002_Node000005" class="edge">
<title>Node2&#45;&gt;Node5</title>
<g id="a_edge4_Node000002_Node000005"><a xlink:title=" ">
<path fill="none" stroke="#63b8ff" d="M383,-197.78C373.5,-180.77 361.61,-152.08 375,-132 382.64,-120.54 410.26,-108.65 437.07,-99.34"/>
<polygon fill="#63b8ff" stroke="#63b8ff" points="438.52,-102.54 446.88,-96.03 436.28,-95.91 438.52,-102.54"/>
</a>
</g>
</g>
<!-- Node8 -->
<g id="Node000008" class="node">
<title>Node8</title>
<g id="a_Node000008"><a xlink:href="sapi__voter_8h.html" target="_top" xlink:title="N&#45;way voting across registered sapi_channel_t links (2oo2/2oo3/NMR).">
<polygon fill="white" stroke="#666666" points="182,-162 78,-162 78,-132 182,-132 182,-162"/>
<text text-anchor="start" x="86" y="-150" font-family="Helvetica,sans-Serif" font-size="10.00">safeapi/voter/sapi</text>
<text text-anchor="middle" x="130" y="-139" font-family="Helvetica,sans-Serif" font-size="10.00">_voter.h</text>
</a>
</g>
</g>
<!-- Node2&#45;&gt;Node8 -->
<g id="edge8_Node000002_Node000008" class="edge">
<title>Node2&#45;&gt;Node8</title>
<g id="a_edge8_Node000002_Node000008"><a xlink:title=" ">
<path fill="none" stroke="#63b8ff" d="M337.4,-198.66C295.01,-188.31 236.22,-173.95 192.06,-163.16"/>
<polygon fill="#63b8ff" stroke="#63b8ff" points="192.85,-159.75 182.3,-160.78 191.19,-166.55 192.85,-159.75"/>
</a>
</g>
</g>
<!-- Node10 -->
<g id="Node000010" class="node">
<title>Node10</title>
<g id="a_Node000010"><a xlink:href="sapi__watchdog_8h.html" target="_top" xlink:title="Watchdog mechanism for detecting system/task hang conditions.">
<polygon fill="white" stroke="#666666" points="510,-162 384,-162 384,-132 510,-132 510,-162"/>
<text text-anchor="start" x="392" y="-150" font-family="Helvetica,sans-Serif" font-size="10.00">safeapi/watchdog/sapi</text>
<text text-anchor="middle" x="447" y="-139" font-family="Helvetica,sans-Serif" font-size="10.00">_watchdog.h</text>
</a>
</g>
</g>
<!-- Node2&#45;&gt;Node10 -->
<g id="edge18_Node000002_Node000010" class="edge">
<title>Node2&#45;&gt;Node10</title>
<g id="a_edge18_Node000002_Node000010"><a xlink:title=" ">
<path fill="none" stroke="#63b8ff" d="M404.21,-197.8C411.26,-189.59 420.27,-179.1 428.21,-169.87"/>
<polygon fill="#63b8ff" stroke="#63b8ff" points="430.96,-172.03 434.83,-162.16 425.66,-167.47 430.96,-172.03"/>
</a>
</g>
</g>
<!-- Node5&#45;&gt;Node3 -->
<g id="edge7_Node000005_Node000003" class="edge">
<title>Node5&#45;&gt;Node3</title>
<g id="a_edge7_Node000005_Node000003"><a xlink:title=" ">
<path fill="none" stroke="#63b8ff" d="M441.74,-70.76C365.77,-57.59 228.25,-33.73 162.69,-22.36"/>
<polygon fill="#63b8ff" stroke="#63b8ff" points="163.25,-18.91 152.8,-20.65 162.06,-25.81 163.25,-18.91"/>
</a>
</g>
</g>
<!-- Node5&#45;&gt;Node6 -->
<g id="edge5_Node000005_Node000006" class="edge">
<title>Node5&#45;&gt;Node6</title>
<g id="a_edge5_Node000005_Node000006"><a xlink:title=" ">
<path fill="none" stroke="#63b8ff" d="M441.97,-75.33C364.33,-68.08 215.34,-52.54 90,-30 84.16,-28.95 78.03,-27.68 72.02,-26.35"/>
<polygon fill="#63b8ff" stroke="#63b8ff" points="72.63,-22.89 62.1,-24.06 71.05,-29.72 72.63,-22.89"/>
</a>
</g>
</g>
<!-- Node7 -->
<g id="Node000007" class="node">
<title>Node7</title>
<g id="a_Node000007"><a xlink:title=" ">
<polygon fill="#e0e0e0" stroke="#999999" points="366,-24.5 310,-24.5 310,-5.5 366,-5.5 366,-24.5"/>
<text text-anchor="middle" x="338" y="-12.5" font-family="Helvetica,sans-Serif" font-size="10.00">stddef.h</text>
</a>
</g>
</g>
<!-- Node5&#45;&gt;Node7 -->
<g id="edge6_Node000005_Node000007" class="edge">
<title>Node5&#45;&gt;Node7</title>
<g id="a_edge6_Node000005_Node000007"><a xlink:title=" ">
<path fill="none" stroke="#63b8ff" d="M460.55,-65.95C433.01,-54.73 394.79,-39.15 368.39,-28.39"/>
<polygon fill="#63b8ff" stroke="#63b8ff" points="369.48,-25.05 358.89,-24.52 366.83,-31.53 369.48,-25.05"/>
</a>
</g>
</g>
<!-- Node8&#45;&gt;Node3 -->
<g id="edge9_Node000008_Node000003" class="edge">
<title>Node8&#45;&gt;Node3</title>
<g id="a_edge9_Node000008_Node000003"><a xlink:title=" ">
<path fill="none" stroke="#63b8ff" d="M123.45,-131.92C119.25,-122.09 114.19,-108.54 112,-96 108.34,-75.01 113.88,-50.92 119.03,-34.71"/>
<polygon fill="#63b8ff" stroke="#63b8ff" points="122.47,-35.47 122.42,-24.88 115.85,-33.19 122.47,-35.47"/>
</a>
</g>
</g>
<!-- Node8&#45;&gt;Node4 -->
<g id="edge12_Node000008_Node000004" class="edge">
<title>Node8&#45;&gt;Node4</title>
<g id="a_edge12_Node000008_Node000004"><a xlink:title=" ">
<path fill="none" stroke="#63b8ff" d="M182.23,-132.77C226.15,-121.38 285.29,-105.35 308,-96 333.39,-85.55 336.3,-75.65 362,-66 416.85,-45.4 482.31,-32.29 529.86,-24.69"/>
<polygon fill="#63b8ff" stroke="#63b8ff" points="530.69,-28.1 540.03,-23.1 529.61,-21.19 530.69,-28.1"/>
</a>
</g>
</g>
<!-- Node8&#45;&gt;Node6 -->
<g id="edge10_Node000008_Node000006" class="edge">
<title>Node8&#45;&gt;Node6</title>
<g id="a_edge10_Node000008_Node000006"><a xlink:title=" ">
<path fill="none" stroke="#63b8ff" d="M119.22,-131.84C100.84,-107.71 63.52,-58.71 43.83,-32.85"/>
<polygon fill="#63b8ff" stroke="#63b8ff" points="46.51,-30.58 37.66,-24.75 40.94,-34.82 46.51,-30.58"/>
</a>
</g>
</g>
<!-- Node8&#45;&gt;Node7 -->
<g id="edge11_Node000008_Node000007" class="edge">
<title>Node8&#45;&gt;Node7</title>
<g id="a_edge11_Node000008_Node000007"><a xlink:title=" ">
<path fill="none" stroke="#63b8ff" d="M182.24,-132.27C218.91,-121.95 264.12,-107.65 280,-96 302.41,-79.57 319.69,-51.9 329.35,-33.79"/>
<polygon fill="#63b8ff" stroke="#63b8ff" points="332.48,-35.35 333.92,-24.85 326.25,-32.16 332.48,-35.35"/>
</a>
</g>
</g>
<!-- Node9 -->
<g id="Node000009" class="node">
<title>Node9</title>
<g id="a_Node000009"><a xlink:href="sapi__channel_8h.html" target="_top" xlink:title="A single redundant &quot;channel&quot;: an opaque transport handle plus send/receive callbacks,...">
<polygon fill="white" stroke="#666666" points="271.5,-96 154.5,-96 154.5,-66 271.5,-66 271.5,-96"/>
<text text-anchor="start" x="162.5" y="-84" font-family="Helvetica,sans-Serif" font-size="10.00">safeapi/channel_link</text>
<text text-anchor="middle" x="213" y="-73" font-family="Helvetica,sans-Serif" font-size="10.00">/sapi_channel.h</text>
</a>
</g>
</g>
<!-- Node8&#45;&gt;Node9 -->
<g id="edge13_Node000008_Node000009" class="edge">
<title>Node8&#45;&gt;Node9</title>
<g id="a_edge13_Node000008_Node000009"><a xlink:title=" ">
<path fill="none" stroke="#63b8ff" d="M148.42,-131.8C159.6,-123.18 174.05,-112.04 186.44,-102.48"/>
<polygon fill="#63b8ff" stroke="#63b8ff" points="188.85,-105.04 194.63,-96.16 184.57,-99.5 188.85,-105.04"/>
</a>
</g>
</g>
<!-- Node9&#45;&gt;Node3 -->
<g id="edge14_Node000009_Node000003" class="edge">
<title>Node9&#45;&gt;Node3</title>
<g id="a_edge14_Node000009_Node000003"><a xlink:title=" ">
<path fill="none" stroke="#63b8ff" d="M193.69,-65.8C179.51,-55.37 160.31,-41.24 145.98,-30.69"/>
<polygon fill="#63b8ff" stroke="#63b8ff" points="147.9,-27.76 137.77,-24.66 143.75,-33.4 147.9,-27.76"/>
</a>
</g>
</g>
<!-- Node9&#45;&gt;Node4 -->
<g id="edge17_Node000009_Node000004" class="edge">
<title>Node9&#45;&gt;Node4</title>
<g id="a_edge17_Node000009_Node000004"><a xlink:title=" ">
<path fill="none" stroke="#63b8ff" d="M271.85,-70.14C341.81,-58.42 458.16,-38.93 530.51,-26.8"/>
<polygon fill="#63b8ff" stroke="#63b8ff" points="531.13,-30.25 540.42,-25.14 529.98,-23.35 531.13,-30.25"/>
</a>
</g>
</g>
<!-- Node9&#45;&gt;Node6 -->
<g id="edge15_Node000009_Node000006" class="edge">
<title>Node9&#45;&gt;Node6</title>
<g id="a_edge15_Node000009_Node000006"><a xlink:title=" ">
<path fill="none" stroke="#63b8ff" d="M173.06,-65.95C140.72,-54.58 95.66,-38.74 65.02,-27.96"/>
<polygon fill="#63b8ff" stroke="#63b8ff" points="65.82,-24.53 55.22,-24.52 63.49,-31.14 65.82,-24.53"/>
</a>
</g>
</g>
<!-- Node9&#45;&gt;Node7 -->
<g id="edge16_Node000009_Node000007" class="edge">
<title>Node9&#45;&gt;Node7</title>
<g id="a_edge16_Node000009_Node000007"><a xlink:title=" ">
<path fill="none" stroke="#63b8ff" d="M240.43,-65.95C261.87,-54.98 291.45,-39.83 312.4,-29.11"/>
<polygon fill="#63b8ff" stroke="#63b8ff" points="314.06,-32.19 321.36,-24.52 310.87,-25.96 314.06,-32.19"/>
</a>
</g>
</g>
<!-- Node10&#45;&gt;Node4 -->
<g id="edge19_Node000010_Node000004" class="edge">
<title>Node10&#45;&gt;Node4</title>
<g id="a_edge19_Node000010_Node000004"><a xlink:title=" ">
<path fill="none" stroke="#63b8ff" d="M496.36,-131.97C517.1,-124.1 540.25,-112.47 557,-96 572.62,-80.64 582.62,-57.61 588.42,-40.2"/>
<polygon fill="#63b8ff" stroke="#63b8ff" points="591.9,-40.79 591.5,-30.2 585.21,-38.72 591.9,-40.79"/>
</a>
</g>
</g>
<!-- Node10&#45;&gt;Node5 -->
<g id="edge20_Node000010_Node000005" class="edge">
<title>Node10&#45;&gt;Node5</title>
<g id="a_edge20_Node000010_Node000005"><a xlink:title=" ">
<path fill="none" stroke="#63b8ff" d="M457.65,-131.8C463.68,-123.76 471.36,-113.53 478.18,-104.43"/>
<polygon fill="#63b8ff" stroke="#63b8ff" points="481.18,-106.26 484.38,-96.16 475.58,-102.06 481.18,-106.26"/>
</a>
</g>
</g>
<!-- Node12&#45;&gt;Node4 -->
<g id="edge24_Node000012_Node000004" class="edge">
<title>Node12&#45;&gt;Node4</title>
<g id="a_edge24_Node000012_Node000004"><a xlink:title=" ">
<path fill="none" stroke="#63b8ff" d="M584.68,-131.61C586.44,-121.64 588.66,-108.06 590,-96 592.07,-77.35 593.35,-56.14 594.09,-40.25"/>
<polygon fill="#63b8ff" stroke="#63b8ff" points="597.59,-40.34 594.53,-30.2 590.6,-40.04 597.59,-40.34"/>
</a>
</g>
</g>
<!-- Node12&#45;&gt;Node5 -->
<g id="edge25_Node000012_Node000005" class="edge">
<title>Node12&#45;&gt;Node5</title>
<g id="a_edge25_Node000012_Node000005"><a xlink:title=" ">
<path fill="none" stroke="#63b8ff" d="M562.69,-131.8C550.87,-123.1 535.54,-111.82 522.46,-102.2"/>
<polygon fill="#63b8ff" stroke="#63b8ff" points="524.38,-99.27 514.25,-96.16 520.24,-104.91 524.38,-99.27"/>
</a>
</g>
</g>
<!-- Node13&#45;&gt;Node3 -->
<g id="edge27_Node000013_Node000003" class="edge">
<title>Node13&#45;&gt;Node3</title>
<g id="a_edge27_Node000013_Node000003"><a xlink:title=" ">
<path fill="none" stroke="#63b8ff" d="M201.43,-131.97C180.82,-124.46 159.49,-113.09 145,-96 130.46,-78.85 126.62,-52.52 125.82,-34.8"/>
<polygon fill="#63b8ff" stroke="#63b8ff" points="129.31,-34.52 125.65,-24.58 122.31,-34.64 129.31,-34.52"/>
</a>
</g>
</g>
<!-- Node13&#45;&gt;Node4 -->
<g id="edge29_Node000013_Node000004" class="edge">
<title>Node13&#45;&gt;Node4</title>
<g id="a_edge29_Node000013_Node000004"><a xlink:title=" ">
<path fill="none" stroke="#63b8ff" d="M290.7,-131.9C323.58,-114.88 381.41,-86.05 433,-66 465.55,-53.35 502.73,-41.68 533.26,-32.81"/>
<polygon fill="#63b8ff" stroke="#63b8ff" points="534.28,-36.15 542.92,-30.02 532.34,-29.43 534.28,-36.15"/>
</a>
</g>
</g>
<!-- Node13&#45;&gt;Node5 -->
<g id="edge30_Node000013_Node000005" class="edge">
<title>Node13&#45;&gt;Node5</title>
<g id="a_edge30_Node000013_Node000005"><a xlink:title=" ">
<path fill="none" stroke="#63b8ff" d="M314.69,-131.95C350.05,-122.16 397.38,-109.05 434.68,-98.71"/>
<polygon fill="#63b8ff" stroke="#63b8ff" points="435.72,-102.06 444.42,-96.01 433.85,-95.31 435.72,-102.06"/>
</a>
</g>
</g>
<!-- Node13&#45;&gt;Node7 -->
<g id="edge28_Node000013_Node000007" class="edge">
<title>Node13&#45;&gt;Node7</title>
<g id="a_edge28_Node000013_Node000007"><a xlink:title=" ">
<path fill="none" stroke="#63b8ff" d="M281.98,-131.96C292.66,-122.77 305.69,-109.91 314,-96 325.36,-76.98 331.71,-52.18 334.98,-35.26"/>
<polygon fill="#63b8ff" stroke="#63b8ff" points="338.5,-35.43 336.78,-24.98 331.61,-34.23 338.5,-35.43"/>
</a>
</g>
</g>
<!-- Node14&#45;&gt;Node4 -->
<g id="edge32_Node000014_Node000004" class="edge">
<title>Node14&#45;&gt;Node4</title>
<g id="a_edge32_Node000014_Node000004"><a xlink:title=" ">
<path fill="none" stroke="#63b8ff" d="M702.82,-131.84C681.64,-109.08 639.87,-64.21 615,-37.49"/>
<polygon fill="#63b8ff" stroke="#63b8ff" points="617.54,-35.08 608.16,-30.14 612.41,-39.85 617.54,-35.08"/>
</a>
</g>
</g>
<!-- Node14&#45;&gt;Node5 -->
<g id="edge33_Node000014_Node000005" class="edge">
<title>Node14&#45;&gt;Node5</title>
<g id="a_edge33_Node000014_Node000005"><a xlink:title=" ">
<path fill="none" stroke="#63b8ff" d="M667.5,-131.95C633.82,-122.2 588.78,-109.16 553.16,-98.84"/>
<polygon fill="#63b8ff" stroke="#63b8ff" points="553.97,-95.43 543.39,-96.01 552.02,-102.16 553.97,-95.43"/>
</a>
</g>
</g>
<!-- Node15&#45;&gt;Node4 -->
<g id="edge35_Node000015_Node000004" class="edge">
<title>Node15&#45;&gt;Node4</title>
<g id="a_edge35_Node000015_Node000004"><a xlink:title=" ">
<path fill="none" stroke="#63b8ff" d="M880.26,-131.98C869.46,-113.8 848.1,-82.45 821,-66 772.04,-36.27 707.53,-24.15 659.98,-19.24"/>
<polygon fill="#63b8ff" stroke="#63b8ff" points="660.08,-15.73 649.79,-18.27 659.42,-22.7 660.08,-15.73"/>
</a>
</g>
</g>
<!-- Node15&#45;&gt;Node5 -->
<g id="edge36_Node000015_Node000005" class="edge">
<title>Node15&#45;&gt;Node5</title>
<g id="a_edge36_Node000015_Node000005"><a xlink:title=" ">
<path fill="none" stroke="#63b8ff" d="M835.41,-137.44C763.64,-125.75 635.2,-104.83 558.27,-92.3"/>
<polygon fill="#63b8ff" stroke="#63b8ff" points="558.66,-88.82 548.22,-90.67 557.53,-95.73 558.66,-88.82"/>
</a>
</g>
</g>
</g>
</svg>
