<?xml version="1.0" encoding="UTF-8" standalone="no"?>
<!DOCTYPE svg PUBLIC "-//W3C//DTD SVG 1.1//EN"
 "http://www.w3.org/Graphics/SVG/1.1/DTD/svg11.dtd">
<!-- Generated by graphviz version 2.43.0 (0)
 -->
<!-- Title: include/safeapi/safechannel/sapi_safechannel.h Pages: 1 -->
<svg width="1212pt" height="357pt"
 viewBox="0.00 0.00 1212.00 357.00" xmlns="http://www.w3.org/2000/svg" xmlns:xlink="http://www.w3.org/1999/xlink">
<g id="graph0" class="graph" transform="scale(1 1) rotate(0) translate(4 353)">
<title>include/safeapi/safechannel/sapi_safechannel.h</title>
<!-- Node1 -->
<g id="Node000001" class="node">
<title>Node1</title>
<g id="a_Node000001"><a xlink:title="Unified, transport&#45;hiding channel factory (ADR&#45;022).">
<polygon fill="#999999" stroke="#666666" points="878.5,-349 725.5,-349 725.5,-319 878.5,-319 878.5,-349"/>
<text text-anchor="start" x="733.5" y="-337" font-family="Helvetica,sans-Serif" font-size="10.00">include/safeapi/safechannel</text>
<text text-anchor="middle" x="802" y="-326" font-family="Helvetica,sans-Serif" font-size="10.00">/sapi_safechannel.h</text>
</a>
</g>
</g>
<!-- Node2 -->
<g id="Node000002" class="node">
<title>Node2</title>
<g id="a_Node000002"><a xlink:title=" ">
<polygon fill="#e0e0e0" stroke="#999999" points="958,-19 896,-19 896,0 958,0 958,-19"/>
<text text-anchor="middle" x="927" y="-7" font-family="Helvetica,sans-Serif" font-size="10.00">stdbool.h</text>
</a>
</g>
</g>
<!-- Node1&#45;&gt;Node2 -->
<g id="edge1_Node000001_Node000002" class="edge">
<title>Node1&#45;&gt;Node2</title>
<g id="a_edge1_Node000001_Node000002"><a xlink:title=" ">
<path fill="none" stroke="#63b8ff" d="M875.57,-318.99C971.72,-298.54 1128,-257 1128,-203 1128,-203 1128,-203 1128,-135 1128,-60.65 1027.38,-29.19 968.53,-17.14"/>
<polygon fill="#63b8ff" stroke="#63b8ff" points="968.89,-13.65 958.41,-15.18 967.56,-20.52 968.89,-13.65"/>
</a>
</g>
</g>
<!-- Node3 -->
<g id="Node000003" class="node">
<title>Node3</title>
<g id="a_Node000003"><a xlink:title=" ">
<polygon fill="#e0e0e0" stroke="#999999" points="322.5,-19 269.5,-19 269.5,0 322.5,0 322.5,-19"/>
<text text-anchor="middle" x="296" y="-7" font-family="Helvetica,sans-Serif" font-size="10.00">stdint.h</text>
</a>
</g>
</g>
<!-- Node1&#45;&gt;Node3 -->
<g id="edge2_Node000001_Node000003" class="edge">
<title>Node1&#45;&gt;Node3</title>
<g id="a_edge2_Node000001_Node000003"><a xlink:title=" ">
<path fill="none" stroke="#63b8ff" d="M725.46,-328.58C525,-315.99 0,-276.04 0,-203 0,-203 0,-203 0,-135 0,-23.62 180.27,-10.26 259.44,-9.76"/>
<polygon fill="#63b8ff" stroke="#63b8ff" points="259.47,-13.26 269.47,-9.76 259.47,-6.26 259.47,-13.26"/>
</a>
</g>
</g>
<!-- Node4 -->
<g id="Node000004" class="node">
<title>Node4</title>
<g id="a_Node000004"><a xlink:title=" ">
<polygon fill="#e0e0e0" stroke="#999999" points="1118,-19 1062,-19 1062,0 1118,0 1118,-19"/>
<text text-anchor="middle" x="1090" y="-7" font-family="Helvetica,sans-Serif" font-size="10.00">stddef.h</text>
</a>
</g>
</g>
<!-- Node1&#45;&gt;Node4 -->
<g id="edge3_Node000001_Node000004" class="edge">
<title>Node1&#45;&gt;Node4</title>
<g id="a_edge3_Node000001_Node000004"><a xlink:title=" ">
<path fill="none" stroke="#63b8ff" d="M878.56,-324.08C995.2,-308.32 1204,-270.67 1204,-203 1204,-203 1204,-203 1204,-135 1204,-83.3 1149.86,-43.73 1116.2,-24.13"/>
<polygon fill="#63b8ff" stroke="#63b8ff" points="1117.75,-20.98 1107.31,-19.13 1114.32,-27.08 1117.75,-20.98"/>
</a>
</g>
</g>
<!-- Node5 -->
<g id="Node000005" class="node">
<title>Node5</title>
<g id="a_Node000005"><a xlink:href="sapi__dual__channel_8h.html" target="_top" xlink:title="&quot;DualChannel&quot; layer of ADR&#45;020: wraps 1..N redundant sapi_dual_msgchannel_t links for fault&#45;tolerant,...">
<polygon fill="white" stroke="#666666" points="528,-283 402,-283 402,-253 528,-253 528,-283"/>
<text text-anchor="start" x="410" y="-271" font-family="Helvetica,sans-Serif" font-size="10.00">safeapi/dual/sapi_dual</text>
<text text-anchor="middle" x="465" y="-260" font-family="Helvetica,sans-Serif" font-size="10.00">_channel.h</text>
</a>
</g>
</g>
<!-- Node1&#45;&gt;Node5 -->
<g id="edge4_Node000001_Node000005" class="edge">
<title>Node1&#45;&gt;Node5</title>
<g id="a_edge4_Node000001_Node000005"><a xlink:title=" ">
<path fill="none" stroke="#63b8ff" d="M728.04,-318.95C671.57,-308.23 594.13,-293.52 537.92,-282.85"/>
<polygon fill="#63b8ff" stroke="#63b8ff" points="538.5,-279.4 528.03,-280.97 537.2,-286.27 538.5,-279.4"/>
</a>
</g>
</g>
<!-- Node10 -->
<g id="Node000010" class="node">
<title>Node10</title>
<g id="a_Node000010"><a xlink:href="sapi__status_8h.html" target="_top" xlink:title="Common status/error codes returned by every Safe API Framework function. Shared across all OS Abstrac...">
<polygon fill="white" stroke="#666666" points="780.5,-85 671.5,-85 671.5,-55 780.5,-55 780.5,-85"/>
<text text-anchor="start" x="679.5" y="-73" font-family="Helvetica,sans-Serif" font-size="10.00">safeapi/status/sapi</text>
<text text-anchor="middle" x="726" y="-62" font-family="Helvetica,sans-Serif" font-size="10.00">_status.h</text>
</a>
</g>
</g>
<!-- Node1&#45;&gt;Node10 -->
<g id="edge31_Node000001_Node000010" class="edge">
<title>Node1&#45;&gt;Node10</title>
<g id="a_edge31_Node000001_Node000010"><a xlink:title=" ">
<path fill="none" stroke="#63b8ff" d="M803.55,-318.96C806.81,-283.61 811.55,-188.91 778,-121 772.47,-109.8 763.35,-99.73 754.28,-91.62"/>
<polygon fill="#63b8ff" stroke="#63b8ff" points="756.32,-88.76 746.41,-85.01 751.82,-94.12 756.32,-88.76"/>
</a>
</g>
</g>
<!-- Node11 -->
<g id="Node000011" class="node">
<title>Node11</title>
<g id="a_Node000011"><a xlink:href="sapi__types_8h.html" target="_top" xlink:title="Common fixed&#45;width types and the caller&#45;owned&#45;storage handle pattern used by every OAL service (see A...">
<polygon fill="white" stroke="#666666" points="631,-85 525,-85 525,-55 631,-55 631,-85"/>
<text text-anchor="start" x="533" y="-73" font-family="Helvetica,sans-Serif" font-size="10.00">safeapi/types/sapi</text>
<text text-anchor="middle" x="578" y="-62" font-family="Helvetica,sans-Serif" font-size="10.00">_types.h</text>
</a>
</g>
</g>
<!-- Node1&#45;&gt;Node11 -->
<g id="edge32_Node000001_Node000011" class="edge">
<title>Node1&#45;&gt;Node11</title>
<g id="a_edge32_Node000001_Node000011"><a xlink:title=" ">
<path fill="none" stroke="#63b8ff" d="M799.54,-318.99C792.29,-281.62 767.54,-178.49 707,-121 688.79,-103.7 663.93,-92.2 640.9,-84.63"/>
<polygon fill="#63b8ff" stroke="#63b8ff" points="641.75,-81.23 631.16,-81.63 639.69,-87.92 641.75,-81.23"/>
</a>
</g>
</g>
<!-- Node12 -->
<g id="Node000012" class="node">
<title>Node12</title>
<g id="a_Node000012"><a xlink:href="sapi__netlink_8h.html" target="_top" xlink:title="OS Abstraction Layer &#45; Point&#45;to&#45;point network link service.">
<polygon fill="white" stroke="#666666" points="697.5,-151 584.5,-151 584.5,-121 697.5,-121 697.5,-151"/>
<text text-anchor="start" x="592.5" y="-139" font-family="Helvetica,sans-Serif" font-size="10.00">safeapi/netlink/sapi</text>
<text text-anchor="middle" x="641" y="-128" font-family="Helvetica,sans-Serif" font-size="10.00">_netlink.h</text>
</a>
</g>
</g>
<!-- Node1&#45;&gt;Node12 -->
<g id="edge30_Node000001_Node000012" class="edge">
<title>Node1&#45;&gt;Node12</title>
<g id="a_edge30_Node000001_Node000012"><a xlink:title=" ">
<path fill="none" stroke="#63b8ff" d="M785.86,-318.76C775.24,-309.08 761.27,-295.77 750,-283 713.58,-241.74 676.31,-189.12 656.17,-159.64"/>
<polygon fill="#63b8ff" stroke="#63b8ff" points="659.01,-157.58 650.5,-151.28 653.22,-161.51 659.01,-157.58"/>
</a>
</g>
</g>
<!-- Node13 -->
<g id="Node000013" class="node">
<title>Node13</title>
<g id="a_Node000013"><a xlink:href="sapi__channel_8h.html" target="_top" xlink:title="A single redundant &quot;channel&quot;: an opaque transport handle plus send/receive callbacks,...">
<polygon fill="white" stroke="#666666" points="985.5,-151 868.5,-151 868.5,-121 985.5,-121 985.5,-151"/>
<text text-anchor="start" x="876.5" y="-139" font-family="Helvetica,sans-Serif" font-size="10.00">safeapi/channel_link</text>
<text text-anchor="middle" x="927" y="-128" font-family="Helvetica,sans-Serif" font-size="10.00">/sapi_channel.h</text>
</a>
</g>
</g>
<!-- Node1&#45;&gt;Node13 -->
<g id="edge33_Node000001_Node000013" class="edge">
<title>Node1&#45;&gt;Node13</title>
<g id="a_edge33_Node000001_Node000013"><a xlink:title=" ">
<path fill="none" stroke="#63b8ff" d="M810.99,-318.9C832.38,-285.37 886.46,-200.57 912.52,-159.71"/>
<polygon fill="#63b8ff" stroke="#63b8ff" points="915.5,-161.54 917.92,-151.23 909.6,-157.78 915.5,-161.54"/>
</a>
</g>
</g>
<!-- Node14 -->
<g id="Node000014" class="node">
<title>Node14</title>
<g id="a_Node000014"><a xlink:href="sapi__voter_8h.html" target="_top" xlink:title="N&#45;way voting across registered sapi_channel_t links (2oo2/2oo3/NMR).">
<polygon fill="white" stroke="#666666" points="1063,-217 959,-217 959,-187 1063,-187 1063,-217"/>
<text text-anchor="start" x="967" y="-205" font-family="Helvetica,sans-Serif" font-size="10.00">safeapi/voter/sapi</text>
<text text-anchor="middle" x="1011" y="-194" font-family="Helvetica,sans-Serif" font-size="10.00">_voter.h</text>
</a>
</g>
</g>
<!-- Node1&#45;&gt;Node14 -->
<g id="edge38_Node000001_Node000014" class="edge">
<title>Node1&#45;&gt;Node14</title>
<g id="a_edge38_Node000001_Node000014"><a xlink:title=" ">
<path fill="none" stroke="#63b8ff" d="M831.55,-318.91C850.83,-309.4 876.35,-296.22 898,-283 928.74,-264.23 962.22,-240.02 984.69,-223.17"/>
<polygon fill="#63b8ff" stroke="#63b8ff" points="986.86,-225.92 992.73,-217.1 982.64,-220.33 986.86,-225.92"/>
</a>
</g>
</g>
<!-- Node5&#45;&gt;Node2 -->
<g id="edge6_Node000005_Node000002" class="edge">
<title>Node5&#45;&gt;Node2</title>
<g id="a_edge6_Node000005_Node000002"><a xlink:title=" ">
<path fill="none" stroke="#63b8ff" d="M428.98,-252.87C374.01,-229.1 279.14,-178.08 315,-121 376.1,-23.74 758.39,-11.82 885.76,-10.57"/>
<polygon fill="#63b8ff" stroke="#63b8ff" points="885.92,-14.07 895.89,-10.49 885.86,-7.07 885.92,-14.07"/>
</a>
</g>
</g>
<!-- Node5&#45;&gt;Node3 -->
<g id="edge5_Node000005_Node000003" class="edge">
<title>Node5&#45;&gt;Node3</title>
<g id="a_edge5_Node000005_Node000003"><a xlink:title=" ">
<path fill="none" stroke="#63b8ff" d="M401.99,-261.4C343.79,-254.76 263.49,-241.39 244,-217 197.83,-159.22 255.57,-65.65 283.02,-27.5"/>
<polygon fill="#63b8ff" stroke="#63b8ff" points="286.13,-29.18 289.26,-19.05 280.5,-25.02 286.13,-29.18"/>
</a>
</g>
</g>
<!-- Node6 -->
<g id="Node000006" class="node">
<title>Node6</title>
<g id="a_Node000006"><a xlink:href="sapi__dual__frames_8h.html" target="_top" xlink:title="Layer&#45;2 (DualChannel&#45;owned) frame kind/header definitions for ADR&#45;020 &#45; shared between sapi_dual_chan...">
<polygon fill="white" stroke="#666666" points="192,-217 66,-217 66,-187 192,-187 192,-217"/>
<text text-anchor="start" x="74" y="-205" font-family="Helvetica,sans-Serif" font-size="10.00">safeapi/dual/sapi_dual</text>
<text text-anchor="middle" x="129" y="-194" font-family="Helvetica,sans-Serif" font-size="10.00">_frames.h</text>
</a>
</g>
</g>
<!-- Node5&#45;&gt;Node6 -->
<g id="edge7_Node000005_Node000006" class="edge">
<title>Node5&#45;&gt;Node6</title>
<g id="a_edge7_Node000005_Node000006"><a xlink:title=" ">
<path fill="none" stroke="#63b8ff" d="M401.8,-254.96C345.1,-244.16 261.89,-228.31 202.3,-216.96"/>
<polygon fill="#63b8ff" stroke="#63b8ff" points="202.68,-213.47 192.2,-215.04 201.37,-220.35 202.68,-213.47"/>
</a>
</g>
</g>
<!-- Node7 -->
<g id="Node000007" class="node">
<title>Node7</title>
<g id="a_Node000007"><a xlink:href="sapi__dual__types_8h.html" target="_top" xlink:title="Shared enums for the sapi_dual module (ADR&#45;020): dual&#45;instance state negotiation and the redundant,...">
<polygon fill="white" stroke="#666666" points="154,-151 28,-151 28,-121 154,-121 154,-151"/>
<text text-anchor="start" x="36" y="-139" font-family="Helvetica,sans-Serif" font-size="10.00">safeapi/dual/sapi_dual</text>
<text text-anchor="middle" x="91" y="-128" font-family="Helvetica,sans-Serif" font-size="10.00">_types.h</text>
</a>
</g>
</g>
<!-- Node5&#45;&gt;Node7 -->
<g id="edge26_Node000005_Node000007" class="edge">
<title>Node5&#45;&gt;Node7</title>
<g id="a_edge26_Node000005_Node000007"><a xlink:title=" ">
<path fill="none" stroke="#63b8ff" d="M401.68,-263.78C292.76,-257.59 79.43,-242.35 57,-217 42.3,-200.39 55.68,-176.49 69.75,-159.14"/>
<polygon fill="#63b8ff" stroke="#63b8ff" points="72.71,-161.07 76.59,-151.21 67.41,-156.5 72.71,-161.07"/>
</a>
</g>
</g>
<!-- Node8 -->
<g id="Node000008" class="node">
<title>Node8</title>
<g id="a_Node000008"><a xlink:href="sapi__dual__msgchannel_8h.html" target="_top" xlink:title="&quot;Channel&quot; layer of ADR&#45;020: one EN 50159&#45;defended message channel over one already&#45;open sapi_netlink_...">
<polygon fill="white" stroke="#666666" points="528,-217 402,-217 402,-187 528,-187 528,-217"/>
<text text-anchor="start" x="410" y="-205" font-family="Helvetica,sans-Serif" font-size="10.00">safeapi/dual/sapi_dual</text>
<text text-anchor="middle" x="465" y="-194" font-family="Helvetica,sans-Serif" font-size="10.00">_msgchannel.h</text>
</a>
</g>
</g>
<!-- Node5&#45;&gt;Node8 -->
<g id="edge11_Node000005_Node000008" class="edge">
<title>Node5&#45;&gt;Node8</title>
<g id="a_edge11_Node000005_Node000008"><a xlink:title=" ">
<path fill="none" stroke="#63b8ff" d="M465,-252.8C465,-245.34 465,-235.99 465,-227.41"/>
<polygon fill="#63b8ff" stroke="#63b8ff" points="468.5,-227.16 465,-217.16 461.5,-227.16 468.5,-227.16"/>
</a>
</g>
</g>
<!-- Node5&#45;&gt;Node10 -->
<g id="edge28_Node000005_Node000010" class="edge">
<title>Node5&#45;&gt;Node10</title>
<g id="a_edge28_Node000005_Node000010"><a xlink:title=" ">
<path fill="none" stroke="#63b8ff" d="M528.26,-254.49C584.66,-239.81 664.64,-209.63 707,-151 718.73,-134.77 723.31,-112.31 725.05,-95.31"/>
<polygon fill="#63b8ff" stroke="#63b8ff" points="728.56,-95.3 725.83,-85.06 721.58,-94.76 728.56,-95.3"/>
</a>
</g>
</g>
<!-- Node5&#45;&gt;Node11 -->
<g id="edge29_Node000005_Node000011" class="edge">
<title>Node5&#45;&gt;Node11</title>
<g id="a_edge29_Node000005_Node000011"><a xlink:title=" ">
<path fill="none" stroke="#63b8ff" d="M494.32,-252.88C509.1,-244.39 526.14,-232.25 537,-217 563.39,-179.95 572.83,-126.4 576.18,-95.51"/>
<polygon fill="#63b8ff" stroke="#63b8ff" points="579.7,-95.51 577.16,-85.22 572.73,-94.84 579.7,-95.51"/>
</a>
</g>
</g>
<!-- Node5&#45;&gt;Node12 -->
<g id="edge27_Node000005_Node000012" class="edge">
<title>Node5&#45;&gt;Node12</title>
<g id="a_edge27_Node000005_Node000012"><a xlink:title=" ">
<path fill="none" stroke="#63b8ff" d="M504,-252.83C524.73,-244.25 549.99,-232.05 570,-217 591.61,-200.75 611.61,-177.1 624.84,-159.73"/>
<polygon fill="#63b8ff" stroke="#63b8ff" points="627.95,-161.4 631.11,-151.29 622.34,-157.23 627.95,-161.4"/>
</a>
</g>
</g>
<!-- Node6&#45;&gt;Node3 -->
<g id="edge8_Node000006_Node000003" class="edge">
<title>Node6&#45;&gt;Node3</title>
<g id="a_edge8_Node000006_Node000003"><a xlink:title=" ">
<path fill="none" stroke="#63b8ff" d="M139.51,-186.99C146.61,-177.19 155.94,-163.65 163,-151 185.79,-110.18 173.58,-88.68 206,-55 220.69,-39.74 241.71,-28.94 259.74,-21.81"/>
<polygon fill="#63b8ff" stroke="#63b8ff" points="261.24,-24.98 269.39,-18.22 258.8,-18.42 261.24,-24.98"/>
</a>
</g>
</g>
<!-- Node6&#45;&gt;Node7 -->
<g id="edge9_Node000006_Node000007" class="edge">
<title>Node6&#45;&gt;Node7</title>
<g id="a_edge9_Node000006_Node000007"><a xlink:title=" ">
<path fill="none" stroke="#63b8ff" d="M120.57,-186.8C115.89,-178.92 109.97,-168.95 104.65,-159.99"/>
<polygon fill="#63b8ff" stroke="#63b8ff" points="107.52,-157.98 99.41,-151.16 101.51,-161.55 107.52,-157.98"/>
</a>
</g>
</g>
<!-- Node7&#45;&gt;Node3 -->
<g id="edge10_Node000007_Node000003" class="edge">
<title>Node7&#45;&gt;Node3</title>
<g id="a_edge10_Node000007_Node000003"><a xlink:title=" ">
<path fill="none" stroke="#63b8ff" d="M101.18,-120.9C114.62,-103.2 139.91,-72.98 168,-55 196.29,-36.89 232.83,-25.14 259.63,-18.29"/>
<polygon fill="#63b8ff" stroke="#63b8ff" points="260.5,-21.68 269.38,-15.9 258.83,-14.88 260.5,-21.68"/>
</a>
</g>
</g>
<!-- Node8&#45;&gt;Node3 -->
<g id="edge12_Node000008_Node000003" class="edge">
<title>Node8&#45;&gt;Node3</title>
<g id="a_edge12_Node000008_Node000003"><a xlink:title=" ">
<path fill="none" stroke="#63b8ff" d="M401.91,-195.37C371.14,-189.25 336.27,-176.69 315,-151 286.17,-116.19 288.92,-59.03 292.78,-29.49"/>
<polygon fill="#63b8ff" stroke="#63b8ff" points="296.29,-29.72 294.31,-19.31 289.37,-28.68 296.29,-29.72"/>
</a>
</g>
</g>
<!-- Node9 -->
<g id="Node000009" class="node">
<title>Node9</title>
<g id="a_Node000009"><a xlink:href="sapi__checksum_8h.html" target="_top" xlink:title="Checksum and CRC utilities for data integrity in redundant systems.">
<polygon fill="white" stroke="#666666" points="452,-151 324,-151 324,-121 452,-121 452,-151"/>
<text text-anchor="start" x="332" y="-139" font-family="Helvetica,sans-Serif" font-size="10.00">safeapi/checksum/sapi</text>
<text text-anchor="middle" x="388" y="-128" font-family="Helvetica,sans-Serif" font-size="10.00">_checksum.h</text>
</a>
</g>
</g>
<!-- Node8&#45;&gt;Node9 -->
<g id="edge13_Node000008_Node000009" class="edge">
<title>Node8&#45;&gt;Node9</title>
<g id="a_edge13_Node000008_Node000009"><a xlink:title=" ">
<path fill="none" stroke="#63b8ff" d="M447.91,-186.8C437.64,-178.26 424.4,-167.25 412.97,-157.75"/>
<polygon fill="#63b8ff" stroke="#63b8ff" points="414.97,-154.86 405.04,-151.16 410.49,-160.25 414.97,-154.86"/>
</a>
</g>
</g>
<!-- Node8&#45;&gt;Node10 -->
<g id="edge24_Node000008_Node000010" class="edge">
<title>Node8&#45;&gt;Node10</title>
<g id="a_edge24_Node000008_Node000010"><a xlink:title=" ">
<path fill="none" stroke="#63b8ff" d="M481.26,-186.83C502.03,-169.33 539.63,-139.62 576,-121 602.88,-107.24 634.35,-96.08 661.51,-87.81"/>
<polygon fill="#63b8ff" stroke="#63b8ff" points="662.71,-91.11 671.3,-84.9 660.72,-84.4 662.71,-91.11"/>
</a>
</g>
</g>
<!-- Node8&#45;&gt;Node11 -->
<g id="edge25_Node000008_Node000011" class="edge">
<title>Node8&#45;&gt;Node11</title>
<g id="a_edge25_Node000008_Node000011"><a xlink:title=" ">
<path fill="none" stroke="#63b8ff" d="M469.31,-187C475.09,-169.94 486.68,-140.95 504,-121 514.41,-109.02 528.33,-98.62 541.28,-90.46"/>
<polygon fill="#63b8ff" stroke="#63b8ff" points="543.29,-93.34 550.04,-85.17 539.67,-87.34 543.29,-93.34"/>
</a>
</g>
</g>
<!-- Node8&#45;&gt;Node12 -->
<g id="edge21_Node000008_Node000012" class="edge">
<title>Node8&#45;&gt;Node12</title>
<g id="a_edge21_Node000008_Node000012"><a xlink:title=" ">
<path fill="none" stroke="#63b8ff" d="M503.62,-186.95C529.87,-177.41 564.79,-164.71 592.85,-154.51"/>
<polygon fill="#63b8ff" stroke="#63b8ff" points="594.26,-157.72 602.47,-151.01 591.87,-151.14 594.26,-157.72"/>
</a>
</g>
</g>
<!-- Node9&#45;&gt;Node3 -->
<g id="edge14_Node000009_Node000003" class="edge">
<title>Node9&#45;&gt;Node3</title>
<g id="a_edge14_Node000009_Node000003"><a xlink:title=" ">
<path fill="none" stroke="#63b8ff" d="M377.45,-120.72C360.37,-97.61 326.76,-52.13 308.51,-27.43"/>
<polygon fill="#63b8ff" stroke="#63b8ff" points="311.09,-25.03 302.33,-19.07 305.46,-29.19 311.09,-25.03"/>
</a>
</g>
</g>
<!-- Node9&#45;&gt;Node4 -->
<g id="edge15_Node000009_Node000004" class="edge">
<title>Node9&#45;&gt;Node4</title>
<g id="a_edge15_Node000009_Node000004"><a xlink:title=" ">
<path fill="none" stroke="#63b8ff" d="M404.46,-120.99C427.62,-102.19 471.94,-69.5 516,-55 528.77,-50.8 925.69,-22.21 1051.88,-13.21"/>
<polygon fill="#63b8ff" stroke="#63b8ff" points="1052.14,-16.7 1061.87,-12.5 1051.64,-9.72 1052.14,-16.7"/>
</a>
</g>
</g>
<!-- Node9&#45;&gt;Node10 -->
<g id="edge16_Node000009_Node000010" class="edge">
<title>Node9&#45;&gt;Node10</title>
<g id="a_edge16_Node000009_Node000010"><a xlink:title=" ">
<path fill="none" stroke="#63b8ff" d="M452.37,-122.81C512.3,-111.46 601.18,-94.64 661.24,-83.26"/>
<polygon fill="#63b8ff" stroke="#63b8ff" points="662.18,-86.65 671.36,-81.35 660.88,-79.77 662.18,-86.65"/>
</a>
</g>
</g>
<!-- Node9&#45;&gt;Node11 -->
<g id="edge17_Node000009_Node000011" class="edge">
<title>Node9&#45;&gt;Node11</title>
<g id="a_edge17_Node000009_Node000011"><a xlink:title=" ">
<path fill="none" stroke="#63b8ff" d="M429.7,-120.95C458.28,-111.33 496.39,-98.49 526.81,-88.24"/>
<polygon fill="#63b8ff" stroke="#63b8ff" points="528.04,-91.52 536.4,-85.01 525.81,-84.89 528.04,-91.52"/>
</a>
</g>
</g>
<!-- Node11&#45;&gt;Node2 -->
<g id="edge18_Node000011_Node000002" class="edge">
<title>Node11&#45;&gt;Node2</title>
<g id="a_edge18_Node000011_Node000002"><a xlink:title=" ">
<path fill="none" stroke="#63b8ff" d="M631.01,-60.12C700.91,-48.4 822.45,-28.02 885.85,-17.4"/>
<polygon fill="#63b8ff" stroke="#63b8ff" points="886.6,-20.82 895.88,-15.72 885.44,-13.92 886.6,-20.82"/>
</a>
</g>
</g>
<!-- Node11&#45;&gt;Node3 -->
<g id="edge20_Node000011_Node000003" class="edge">
<title>Node11&#45;&gt;Node3</title>
<g id="a_edge20_Node000011_Node000003"><a xlink:title=" ">
<path fill="none" stroke="#63b8ff" d="M524.96,-58C468.8,-46.35 381.66,-28.27 332.66,-18.11"/>
<polygon fill="#63b8ff" stroke="#63b8ff" points="333.32,-14.67 322.81,-16.06 331.89,-21.52 333.32,-14.67"/>
</a>
</g>
</g>
<!-- Node11&#45;&gt;Node4 -->
<g id="edge19_Node000011_Node000004" class="edge">
<title>Node11&#45;&gt;Node4</title>
<g id="a_edge19_Node000011_Node000004"><a xlink:title=" ">
<path fill="none" stroke="#63b8ff" d="M631.43,-59.7C641.88,-58.02 652.77,-56.37 663,-55 805.93,-35.8 976.72,-20.2 1051.61,-13.73"/>
<polygon fill="#63b8ff" stroke="#63b8ff" points="1052.29,-17.18 1061.95,-12.84 1051.69,-10.21 1052.29,-17.18"/>
</a>
</g>
</g>
<!-- Node12&#45;&gt;Node10 -->
<g id="edge22_Node000012_Node000010" class="edge">
<title>Node12&#45;&gt;Node10</title>
<g id="a_edge22_Node000012_Node000010"><a xlink:title=" ">
<path fill="none" stroke="#63b8ff" d="M659.86,-120.8C671.42,-112.1 686.39,-100.82 699.17,-91.2"/>
<polygon fill="#63b8ff" stroke="#63b8ff" points="701.31,-93.98 707.19,-85.16 697.09,-88.38 701.31,-93.98"/>
</a>
</g>
</g>
<!-- Node12&#45;&gt;Node11 -->
<g id="edge23_Node000012_Node000011" class="edge">
<title>Node12&#45;&gt;Node11</title>
<g id="a_edge23_Node000012_Node000011"><a xlink:title=" ">
<path fill="none" stroke="#63b8ff" d="M627.02,-120.8C618.78,-112.43 608.2,-101.68 598.98,-92.31"/>
<polygon fill="#63b8ff" stroke="#63b8ff" points="601.45,-89.84 591.94,-85.16 596.46,-94.75 601.45,-89.84"/>
</a>
</g>
</g>
<!-- Node13&#45;&gt;Node2 -->
<g id="edge35_Node000013_Node000002" class="edge">
<title>Node13&#45;&gt;Node2</title>
<g id="a_edge35_Node000013_Node000002"><a xlink:title=" ">
<path fill="none" stroke="#63b8ff" d="M927,-120.72C927,-98.12 927,-54.12 927,-29.09"/>
<polygon fill="#63b8ff" stroke="#63b8ff" points="930.5,-29.07 927,-19.07 923.5,-29.07 930.5,-29.07"/>
</a>
</g>
</g>
<!-- Node13&#45;&gt;Node3 -->
<g id="edge34_Node000013_Node000003" class="edge">
<title>Node13&#45;&gt;Node3</title>
<g id="a_edge34_Node000013_Node000003"><a xlink:title=" ">
<path fill="none" stroke="#63b8ff" d="M908.75,-120.77C883.61,-102.03 836.18,-69.75 790,-55 704.72,-27.76 432.09,-15.41 332.7,-11.74"/>
<polygon fill="#63b8ff" stroke="#63b8ff" points="332.66,-8.23 322.54,-11.37 332.41,-15.23 332.66,-8.23"/>
</a>
</g>
</g>
<!-- Node13&#45;&gt;Node4 -->
<g id="edge36_Node000013_Node000004" class="edge">
<title>Node13&#45;&gt;Node4</title>
<g id="a_edge36_Node000013_Node000004"><a xlink:title=" ">
<path fill="none" stroke="#63b8ff" d="M945.38,-120.96C976.43,-97.24 1038.98,-49.47 1070.66,-25.27"/>
<polygon fill="#63b8ff" stroke="#63b8ff" points="1072.91,-27.96 1078.73,-19.11 1068.66,-22.4 1072.91,-27.96"/>
</a>
</g>
</g>
<!-- Node13&#45;&gt;Node10 -->
<g id="edge37_Node000013_Node000010" class="edge">
<title>Node13&#45;&gt;Node10</title>
<g id="a_edge37_Node000013_Node000010"><a xlink:title=" ">
<path fill="none" stroke="#63b8ff" d="M882.89,-120.95C852.52,-111.28 811.99,-98.38 779.73,-88.11"/>
<polygon fill="#63b8ff" stroke="#63b8ff" points="780.6,-84.71 770.01,-85.01 778.47,-91.38 780.6,-84.71"/>
</a>
</g>
</g>
<!-- Node14&#45;&gt;Node2 -->
<g id="edge40_Node000014_Node000002" class="edge">
<title>Node14&#45;&gt;Node2</title>
<g id="a_edge40_Node000014_Node000002"><a xlink:title=" ">
<path fill="none" stroke="#63b8ff" d="M1018.27,-186.75C1031.34,-158.93 1055.04,-96.47 1028,-55 1014.75,-34.68 989.9,-23.57 968.17,-17.54"/>
<polygon fill="#63b8ff" stroke="#63b8ff" points="969,-14.14 958.45,-15.11 967.3,-20.93 969,-14.14"/>
</a>
</g>
</g>
<!-- Node14&#45;&gt;Node3 -->
<g id="edge39_Node000014_Node000003" class="edge">
<title>Node14&#45;&gt;Node3</title>
<g id="a_edge39_Node000014_Node000003"><a xlink:title=" ">
<path fill="none" stroke="#63b8ff" d="M1011.96,-186.89C1012.38,-169.46 1010.48,-139.81 995,-121 946.13,-61.6 909.78,-73.05 835,-55 739.26,-31.89 438.45,-16.77 332.98,-12.07"/>
<polygon fill="#63b8ff" stroke="#63b8ff" points="332.97,-8.56 322.82,-11.62 332.66,-15.56 332.97,-8.56"/>
</a>
</g>
</g>
<!-- Node14&#45;&gt;Node4 -->
<g id="edge41_Node000014_Node000004" class="edge">
<title>Node14&#45;&gt;Node4</title>
<g id="a_edge41_Node000014_Node000004"><a xlink:title=" ">
<path fill="none" stroke="#63b8ff" d="M1032.55,-186.87C1044.32,-177.99 1058.07,-165.49 1066,-151 1087.63,-111.51 1090.64,-57.19 1090.57,-29.06"/>
<polygon fill="#63b8ff" stroke="#63b8ff" points="1094.07,-28.98 1090.4,-19.03 1087.07,-29.09 1094.07,-28.98"/>
</a>
</g>
</g>
<!-- Node14&#45;&gt;Node10 -->
<g id="edge42_Node000014_Node000010" class="edge">
<title>Node14&#45;&gt;Node10</title>
<g id="a_edge42_Node000014_Node000010"><a xlink:title=" ">
<path fill="none" stroke="#63b8ff" d="M958.92,-187.65C929.14,-179.07 891.56,-166.6 860,-151 838.78,-140.51 836.14,-133.43 816,-121 798.42,-110.15 778.36,-98.91 761.65,-89.83"/>
<polygon fill="#63b8ff" stroke="#63b8ff" points="763.21,-86.7 752.75,-85.03 759.89,-92.86 763.21,-86.7"/>
</a>
</g>
</g>
<!-- Node14&#45;&gt;Node13 -->
<g id="edge43_Node000014_Node000013" class="edge">
<title>Node14&#45;&gt;Node13</title>
<g id="a_edge43_Node000014_Node000013"><a xlink:title=" ">
<path fill="none" stroke="#63b8ff" d="M992.36,-186.8C981.05,-178.18 966.42,-167.04 953.88,-157.48"/>
<polygon fill="#63b8ff" stroke="#63b8ff" points="955.67,-154.44 945.59,-151.16 951.42,-160.01 955.67,-154.44"/>
</a>
</g>
</g>
</g>
</svg>
