<?xml version="1.0" encoding="UTF-8" standalone="no"?>
<!DOCTYPE svg PUBLIC "-//W3C//DTD SVG 1.1//EN"
 "http://www.w3.org/Graphics/SVG/1.1/DTD/svg11.dtd">
<!-- Generated by graphviz version 2.43.0 (0)
 -->
<!-- Title: src/dual/sapi_dual_channel.c Pages: 1 -->
<svg width="950pt" height="357pt"
 viewBox="0.00 0.00 949.50 357.00" xmlns="http://www.w3.org/2000/svg" xmlns:xlink="http://www.w3.org/1999/xlink">
<g id="graph0" class="graph" transform="scale(1 1) rotate(0) translate(4 353)">
<title>src/dual/sapi_dual_channel.c</title>
<!-- Node1 -->
<g id="Node000001" class="node">
<title>Node1</title>
<g id="a_Node000001"><a xlink:title="&quot;DualChannel&quot; layer of ADR&#45;020 &#45; see sapi_dual_channel.h.">
<polygon fill="#999999" stroke="#666666" points="912,-349 808,-349 808,-319 912,-319 912,-349"/>
<text text-anchor="start" x="816" y="-337" font-family="Helvetica,sans-Serif" font-size="10.00">src/dual/sapi_dual</text>
<text text-anchor="middle" x="860" y="-326" font-family="Helvetica,sans-Serif" font-size="10.00">_channel.c</text>
</a>
</g>
</g>
<!-- Node2 -->
<g id="Node000002" class="node">
<title>Node2</title>
<g id="a_Node000002"><a xlink:href="sapi__dual__channel_8h.html" target="_top" xlink:title="&quot;DualChannel&quot; layer of ADR&#45;020: wraps 1..N redundant sapi_dual_msgchannel_t links for fault&#45;tolerant,...">
<polygon fill="white" stroke="#666666" points="509,-283 383,-283 383,-253 509,-253 509,-283"/>
<text text-anchor="start" x="391" y="-271" font-family="Helvetica,sans-Serif" font-size="10.00">safeapi/dual/sapi_dual</text>
<text text-anchor="middle" x="446" y="-260" font-family="Helvetica,sans-Serif" font-size="10.00">_channel.h</text>
</a>
</g>
</g>
<!-- Node1&#45;&gt;Node2 -->
<g id="edge1_Node000001_Node000002" class="edge">
<title>Node1&#45;&gt;Node2</title>
<g id="a_edge1_Node000001_Node000002"><a xlink:title=" ">
<path fill="none" stroke="#63b8ff" d="M807.99,-324.96C735.12,-313.7 602.32,-293.16 519.41,-280.35"/>
<polygon fill="#63b8ff" stroke="#63b8ff" points="519.72,-276.86 509.31,-278.79 518.66,-283.77 519.72,-276.86"/>
</a>
</g>
</g>
<!-- Node13 -->
<g id="Node000013" class="node">
<title>Node13</title>
<g id="a_Node000013"><a xlink:title=" ">
<polygon fill="#e0e0e0" stroke="#999999" points="941.5,-277.5 888.5,-277.5 888.5,-258.5 941.5,-258.5 941.5,-277.5"/>
<text text-anchor="middle" x="915" y="-265.5" font-family="Helvetica,sans-Serif" font-size="10.00">string.h</text>
</a>
</g>
</g>
<!-- Node1&#45;&gt;Node13 -->
<g id="edge27_Node000001_Node000013" class="edge">
<title>Node1&#45;&gt;Node13</title>
<g id="a_edge27_Node000001_Node000013"><a xlink:title=" ">
<path fill="none" stroke="#63b8ff" d="M872.21,-318.8C880.61,-309.01 891.81,-295.98 900.65,-285.7"/>
<polygon fill="#63b8ff" stroke="#63b8ff" points="903.54,-287.71 907.4,-277.84 898.23,-283.15 903.54,-287.71"/>
</a>
</g>
</g>
<!-- Node14 -->
<g id="Node000014" class="node">
<title>Node14</title>
<g id="a_Node000014"><a xlink:href="sapi__timer_8h.html" target="_top" xlink:title="OS Abstraction Layer &#45; Timer service.">
<polygon fill="white" stroke="#666666" points="793.5,-151 688.5,-151 688.5,-121 793.5,-121 793.5,-151"/>
<text text-anchor="start" x="696.5" y="-139" font-family="Helvetica,sans-Serif" font-size="10.00">safeapi/timer/sapi</text>
<text text-anchor="middle" x="741" y="-128" font-family="Helvetica,sans-Serif" font-size="10.00">_timer.h</text>
</a>
</g>
</g>
<!-- Node1&#45;&gt;Node14 -->
<g id="edge28_Node000001_Node000014" class="edge">
<title>Node1&#45;&gt;Node14</title>
<g id="a_edge28_Node000001_Node000014"><a xlink:title=" ">
<path fill="none" stroke="#63b8ff" d="M851.44,-318.9C831.12,-285.44 779.81,-200.93 754.94,-159.97"/>
<polygon fill="#63b8ff" stroke="#63b8ff" points="757.82,-157.96 749.64,-151.23 751.84,-161.6 757.82,-157.96"/>
</a>
</g>
</g>
<!-- Node3 -->
<g id="Node000003" class="node">
<title>Node3</title>
<g id="a_Node000003"><a xlink:title=" ">
<polygon fill="#e0e0e0" stroke="#999999" points="237.5,-19 184.5,-19 184.5,0 237.5,0 237.5,-19"/>
<text text-anchor="middle" x="211" y="-7" font-family="Helvetica,sans-Serif" font-size="10.00">stdint.h</text>
</a>
</g>
</g>
<!-- Node2&#45;&gt;Node3 -->
<g id="edge2_Node000002_Node000003" class="edge">
<title>Node2&#45;&gt;Node3</title>
<g id="a_edge2_Node000002_Node000003"><a xlink:title=" ">
<path fill="none" stroke="#63b8ff" d="M382.9,-257.02C353.42,-249.83 319.32,-237.6 294,-217 242.17,-174.82 242.46,-148.62 222,-85 216.13,-66.75 213.38,-44.97 212.09,-29.68"/>
<polygon fill="#63b8ff" stroke="#63b8ff" points="215.57,-29.16 211.37,-19.43 208.58,-29.65 215.57,-29.16"/>
</a>
</g>
</g>
<!-- Node4 -->
<g id="Node000004" class="node">
<title>Node4</title>
<g id="a_Node000004"><a xlink:title=" ">
<polygon fill="#e0e0e0" stroke="#999999" points="666,-19 604,-19 604,0 666,0 666,-19"/>
<text text-anchor="middle" x="635" y="-7" font-family="Helvetica,sans-Serif" font-size="10.00">stdbool.h</text>
</a>
</g>
</g>
<!-- Node2&#45;&gt;Node4 -->
<g id="edge3_Node000002_Node000004" class="edge">
<title>Node2&#45;&gt;Node4</title>
<g id="a_edge3_Node000002_Node000004"><a xlink:title=" ">
<path fill="none" stroke="#63b8ff" d="M509.05,-267.28C592.13,-263.82 735.58,-243.79 803,-151 845.23,-92.87 733.56,-44 672.2,-22.39"/>
<polygon fill="#63b8ff" stroke="#63b8ff" points="673.05,-18.99 662.45,-19.04 670.77,-25.6 673.05,-18.99"/>
</a>
</g>
</g>
<!-- Node5 -->
<g id="Node000005" class="node">
<title>Node5</title>
<g id="a_Node000005"><a xlink:href="sapi__dual__frames_8h.html" target="_top" xlink:title="Layer&#45;2 (DualChannel&#45;owned) frame kind/header definitions for ADR&#45;020 &#45; shared between sapi_dual_chan...">
<polygon fill="white" stroke="#666666" points="126,-217 0,-217 0,-187 126,-187 126,-217"/>
<text text-anchor="start" x="8" y="-205" font-family="Helvetica,sans-Serif" font-size="10.00">safeapi/dual/sapi_dual</text>
<text text-anchor="middle" x="63" y="-194" font-family="Helvetica,sans-Serif" font-size="10.00">_frames.h</text>
</a>
</g>
</g>
<!-- Node2&#45;&gt;Node5 -->
<g id="edge4_Node000002_Node000005" class="edge">
<title>Node2&#45;&gt;Node5</title>
<g id="a_edge4_Node000002_Node000005"><a xlink:title=" ">
<path fill="none" stroke="#63b8ff" d="M382.94,-257.03C321.04,-247.17 223.94,-231.49 140,-217 138.72,-216.78 137.43,-216.56 136.13,-216.33"/>
<polygon fill="#63b8ff" stroke="#63b8ff" points="136.47,-212.84 126.02,-214.55 135.26,-219.73 136.47,-212.84"/>
</a>
</g>
</g>
<!-- Node6 -->
<g id="Node000006" class="node">
<title>Node6</title>
<g id="a_Node000006"><a xlink:href="sapi__dual__types_8h.html" target="_top" xlink:title="Shared enums for the sapi_dual module (ADR&#45;020): dual&#45;instance state negotiation and the redundant,...">
<polygon fill="white" stroke="#666666" points="164,-151 38,-151 38,-121 164,-121 164,-151"/>
<text text-anchor="start" x="46" y="-139" font-family="Helvetica,sans-Serif" font-size="10.00">safeapi/dual/sapi_dual</text>
<text text-anchor="middle" x="101" y="-128" font-family="Helvetica,sans-Serif" font-size="10.00">_types.h</text>
</a>
</g>
</g>
<!-- Node2&#45;&gt;Node6 -->
<g id="edge23_Node000002_Node000006" class="edge">
<title>Node2&#45;&gt;Node6</title>
<g id="a_edge23_Node000002_Node000006"><a xlink:title=" ">
<path fill="none" stroke="#63b8ff" d="M382.82,-265.99C326.11,-262.66 242.16,-251.59 178,-217 152.37,-203.18 130.17,-177.81 116.28,-159.34"/>
<polygon fill="#63b8ff" stroke="#63b8ff" points="119.04,-157.18 110.33,-151.15 113.38,-161.3 119.04,-157.18"/>
</a>
</g>
</g>
<!-- Node7 -->
<g id="Node000007" class="node">
<title>Node7</title>
<g id="a_Node000007"><a xlink:href="sapi__dual__msgchannel_8h.html" target="_top" xlink:title="&quot;Channel&quot; layer of ADR&#45;020: one EN 50159&#45;defended message channel over one already&#45;open sapi_netlink_...">
<polygon fill="white" stroke="#666666" points="509,-217 383,-217 383,-187 509,-187 509,-217"/>
<text text-anchor="start" x="391" y="-205" font-family="Helvetica,sans-Serif" font-size="10.00">safeapi/dual/sapi_dual</text>
<text text-anchor="middle" x="446" y="-194" font-family="Helvetica,sans-Serif" font-size="10.00">_msgchannel.h</text>
</a>
</g>
</g>
<!-- Node2&#45;&gt;Node7 -->
<g id="edge8_Node000002_Node000007" class="edge">
<title>Node2&#45;&gt;Node7</title>
<g id="a_edge8_Node000002_Node000007"><a xlink:title=" ">
<path fill="none" stroke="#63b8ff" d="M446,-252.8C446,-245.34 446,-235.99 446,-227.41"/>
<polygon fill="#63b8ff" stroke="#63b8ff" points="449.5,-227.16 446,-217.16 442.5,-227.16 449.5,-227.16"/>
</a>
</g>
</g>
<!-- Node10 -->
<g id="Node000010" class="node">
<title>Node10</title>
<g id="a_Node000010"><a xlink:href="sapi__status_8h.html" target="_top" xlink:title="Common status/error codes returned by every Safe API Framework function. Shared across all OS Abstrac...">
<polygon fill="white" stroke="#666666" points="676.5,-85 567.5,-85 567.5,-55 676.5,-55 676.5,-85"/>
<text text-anchor="start" x="575.5" y="-73" font-family="Helvetica,sans-Serif" font-size="10.00">safeapi/status/sapi</text>
<text text-anchor="middle" x="622" y="-62" font-family="Helvetica,sans-Serif" font-size="10.00">_status.h</text>
</a>
</g>
</g>
<!-- Node2&#45;&gt;Node10 -->
<g id="edge25_Node000002_Node000010" class="edge">
<title>Node2&#45;&gt;Node10</title>
<g id="a_edge25_Node000002_Node000010"><a xlink:title=" ">
<path fill="none" stroke="#63b8ff" d="M490.49,-252.94C534.1,-236.41 597.74,-204.26 624,-151 632.52,-133.73 631.22,-111.7 628.25,-95.13"/>
<polygon fill="#63b8ff" stroke="#63b8ff" points="631.63,-94.2 626.13,-85.14 624.78,-95.65 631.63,-94.2"/>
</a>
</g>
</g>
<!-- Node11 -->
<g id="Node000011" class="node">
<title>Node11</title>
<g id="a_Node000011"><a xlink:href="sapi__types_8h.html" target="_top" xlink:title="Common fixed&#45;width types and the caller&#45;owned&#45;storage handle pattern used by every OAL service (see A...">
<polygon fill="white" stroke="#666666" points="502,-85 396,-85 396,-55 502,-55 502,-85"/>
<text text-anchor="start" x="404" y="-73" font-family="Helvetica,sans-Serif" font-size="10.00">safeapi/types/sapi</text>
<text text-anchor="middle" x="449" y="-62" font-family="Helvetica,sans-Serif" font-size="10.00">_types.h</text>
</a>
</g>
</g>
<!-- Node2&#45;&gt;Node11 -->
<g id="edge26_Node000002_Node000011" class="edge">
<title>Node2&#45;&gt;Node11</title>
<g id="a_edge26_Node000002_Node000011"><a xlink:title=" ">
<path fill="none" stroke="#63b8ff" d="M408.03,-253C348.85,-229.02 245.5,-177.24 287,-121 309.59,-90.39 350.66,-77.94 385.79,-73.12"/>
<polygon fill="#63b8ff" stroke="#63b8ff" points="386.48,-76.56 396,-71.91 385.66,-69.61 386.48,-76.56"/>
</a>
</g>
</g>
<!-- Node12 -->
<g id="Node000012" class="node">
<title>Node12</title>
<g id="a_Node000012"><a xlink:href="sapi__netlink_8h.html" target="_top" xlink:title="OS Abstraction Layer &#45; Point&#45;to&#45;point network link service.">
<polygon fill="white" stroke="#666666" points="593.5,-151 480.5,-151 480.5,-121 593.5,-121 593.5,-151"/>
<text text-anchor="start" x="488.5" y="-139" font-family="Helvetica,sans-Serif" font-size="10.00">safeapi/netlink/sapi</text>
<text text-anchor="middle" x="537" y="-128" font-family="Helvetica,sans-Serif" font-size="10.00">_netlink.h</text>
</a>
</g>
</g>
<!-- Node2&#45;&gt;Node12 -->
<g id="edge24_Node000002_Node000012" class="edge">
<title>Node2&#45;&gt;Node12</title>
<g id="a_edge24_Node000002_Node000012"><a xlink:title=" ">
<path fill="none" stroke="#63b8ff" d="M475.93,-252.85C490.7,-244.41 507.54,-232.34 518,-217 529.22,-200.55 533.85,-178.29 535.75,-161.42"/>
<polygon fill="#63b8ff" stroke="#63b8ff" points="539.25,-161.5 536.64,-151.23 532.28,-160.89 539.25,-161.5"/>
</a>
</g>
</g>
<!-- Node5&#45;&gt;Node3 -->
<g id="edge5_Node000005_Node000003" class="edge">
<title>Node5&#45;&gt;Node3</title>
<g id="a_edge5_Node000005_Node000003"><a xlink:title=" ">
<path fill="none" stroke="#63b8ff" d="M49.3,-186.97C35.09,-170.64 16.57,-143.09 29,-121 60.03,-65.86 130.93,-35.06 174.51,-20.7"/>
<polygon fill="#63b8ff" stroke="#63b8ff" points="175.69,-23.99 184.17,-17.64 173.58,-17.32 175.69,-23.99"/>
</a>
</g>
</g>
<!-- Node5&#45;&gt;Node6 -->
<g id="edge6_Node000005_Node000006" class="edge">
<title>Node5&#45;&gt;Node6</title>
<g id="a_edge6_Node000005_Node000006"><a xlink:title=" ">
<path fill="none" stroke="#63b8ff" d="M71.43,-186.8C76.11,-178.92 82.03,-168.95 87.35,-159.99"/>
<polygon fill="#63b8ff" stroke="#63b8ff" points="90.49,-161.55 92.59,-151.16 84.48,-157.98 90.49,-161.55"/>
</a>
</g>
</g>
<!-- Node6&#45;&gt;Node3 -->
<g id="edge7_Node000006_Node000003" class="edge">
<title>Node6&#45;&gt;Node3</title>
<g id="a_edge7_Node000006_Node000003"><a xlink:title=" ">
<path fill="none" stroke="#63b8ff" d="M113.62,-120.72C134.21,-97.41 174.93,-51.33 196.62,-26.78"/>
<polygon fill="#63b8ff" stroke="#63b8ff" points="199.43,-28.88 203.43,-19.07 194.18,-24.25 199.43,-28.88"/>
</a>
</g>
</g>
<!-- Node7&#45;&gt;Node3 -->
<g id="edge9_Node000007_Node000003" class="edge">
<title>Node7&#45;&gt;Node3</title>
<g id="a_edge9_Node000007_Node000003"><a xlink:title=" ">
<path fill="none" stroke="#63b8ff" d="M382.91,-192.63C351.31,-185.77 314.12,-173.37 287,-151 247.36,-118.29 225.28,-59.31 216.11,-29.23"/>
<polygon fill="#63b8ff" stroke="#63b8ff" points="219.36,-27.87 213.22,-19.24 212.64,-29.82 219.36,-27.87"/>
</a>
</g>
</g>
<!-- Node8 -->
<g id="Node000008" class="node">
<title>Node8</title>
<g id="a_Node000008"><a xlink:href="sapi__checksum_8h.html" target="_top" xlink:title="Checksum and CRC utilities for data integrity in redundant systems.">
<polygon fill="white" stroke="#666666" points="424,-151 296,-151 296,-121 424,-121 424,-151"/>
<text text-anchor="start" x="304" y="-139" font-family="Helvetica,sans-Serif" font-size="10.00">safeapi/checksum/sapi</text>
<text text-anchor="middle" x="360" y="-128" font-family="Helvetica,sans-Serif" font-size="10.00">_checksum.h</text>
</a>
</g>
</g>
<!-- Node7&#45;&gt;Node8 -->
<g id="edge10_Node000007_Node000008" class="edge">
<title>Node7&#45;&gt;Node8</title>
<g id="a_edge10_Node000007_Node000008"><a xlink:title=" ">
<path fill="none" stroke="#63b8ff" d="M426.91,-186.8C415.22,-178.1 400.07,-166.82 387.15,-157.2"/>
<polygon fill="#63b8ff" stroke="#63b8ff" points="389.14,-154.33 379.03,-151.16 384.97,-159.94 389.14,-154.33"/>
</a>
</g>
</g>
<!-- Node7&#45;&gt;Node10 -->
<g id="edge21_Node000007_Node000010" class="edge">
<title>Node7&#45;&gt;Node10</title>
<g id="a_edge21_Node000007_Node000010"><a xlink:title=" ">
<path fill="none" stroke="#63b8ff" d="M509.33,-195.5C541.59,-189.45 578.98,-176.9 603,-151 616.91,-136.01 621.2,-112.74 622.28,-95.15"/>
<polygon fill="#63b8ff" stroke="#63b8ff" points="625.78,-95.17 622.6,-85.07 618.79,-94.95 625.78,-95.17"/>
</a>
</g>
</g>
<!-- Node7&#45;&gt;Node11 -->
<g id="edge22_Node000007_Node000011" class="edge">
<title>Node7&#45;&gt;Node11</title>
<g id="a_edge22_Node000007_Node000011"><a xlink:title=" ">
<path fill="none" stroke="#63b8ff" d="M446.33,-186.84C446.83,-164.86 447.82,-122.27 448.44,-95.3"/>
<polygon fill="#63b8ff" stroke="#63b8ff" points="451.94,-95.22 448.67,-85.14 444.94,-95.06 451.94,-95.22"/>
</a>
</g>
</g>
<!-- Node7&#45;&gt;Node12 -->
<g id="edge18_Node000007_Node000012" class="edge">
<title>Node7&#45;&gt;Node12</title>
<g id="a_edge18_Node000007_Node000012"><a xlink:title=" ">
<path fill="none" stroke="#63b8ff" d="M466.2,-186.8C478.68,-178.01 494.9,-166.61 508.66,-156.93"/>
<polygon fill="#63b8ff" stroke="#63b8ff" points="510.69,-159.78 516.86,-151.16 506.67,-154.05 510.69,-159.78"/>
</a>
</g>
</g>
<!-- Node8&#45;&gt;Node3 -->
<g id="edge11_Node000008_Node000003" class="edge">
<title>Node8&#45;&gt;Node3</title>
<g id="a_edge11_Node000008_Node000003"><a xlink:title=" ">
<path fill="none" stroke="#63b8ff" d="M343.2,-120.96C314.94,-97.35 258.13,-49.88 229.05,-25.58"/>
<polygon fill="#63b8ff" stroke="#63b8ff" points="231.22,-22.84 221.3,-19.11 226.73,-28.21 231.22,-22.84"/>
</a>
</g>
</g>
<!-- Node9 -->
<g id="Node000009" class="node">
<title>Node9</title>
<g id="a_Node000009"><a xlink:title=" ">
<polygon fill="#e0e0e0" stroke="#999999" points="395,-19 339,-19 339,0 395,0 395,-19"/>
<text text-anchor="middle" x="367" y="-7" font-family="Helvetica,sans-Serif" font-size="10.00">stddef.h</text>
</a>
</g>
</g>
<!-- Node8&#45;&gt;Node9 -->
<g id="edge12_Node000008_Node000009" class="edge">
<title>Node8&#45;&gt;Node9</title>
<g id="a_edge12_Node000008_Node000009"><a xlink:title=" ">
<path fill="none" stroke="#63b8ff" d="M360.8,-120.72C362.07,-98.12 364.55,-54.12 365.95,-29.09"/>
<polygon fill="#63b8ff" stroke="#63b8ff" points="369.45,-29.25 366.52,-19.07 362.46,-28.86 369.45,-29.25"/>
</a>
</g>
</g>
<!-- Node8&#45;&gt;Node10 -->
<g id="edge13_Node000008_Node000010" class="edge">
<title>Node8&#45;&gt;Node10</title>
<g id="a_edge13_Node000008_Node000010"><a xlink:title=" ">
<path fill="none" stroke="#63b8ff" d="M417.5,-120.95C458.86,-110.85 514.68,-97.21 557.56,-86.74"/>
<polygon fill="#63b8ff" stroke="#63b8ff" points="558.44,-90.13 567.33,-84.36 556.78,-83.33 558.44,-90.13"/>
</a>
</g>
</g>
<!-- Node8&#45;&gt;Node11 -->
<g id="edge14_Node000008_Node000011" class="edge">
<title>Node8&#45;&gt;Node11</title>
<g id="a_edge14_Node000008_Node000011"><a xlink:title=" ">
<path fill="none" stroke="#63b8ff" d="M379.75,-120.8C391.85,-112.1 407.53,-100.82 420.91,-91.2"/>
<polygon fill="#63b8ff" stroke="#63b8ff" points="423.23,-93.84 429.3,-85.16 419.14,-88.16 423.23,-93.84"/>
</a>
</g>
</g>
<!-- Node11&#45;&gt;Node3 -->
<g id="edge17_Node000011_Node000003" class="edge">
<title>Node11&#45;&gt;Node3</title>
<g id="a_edge17_Node000011_Node000003"><a xlink:title=" ">
<path fill="none" stroke="#63b8ff" d="M395.88,-55.94C350.77,-44.85 287.2,-29.23 247.58,-19.49"/>
<polygon fill="#63b8ff" stroke="#63b8ff" points="248.35,-16.08 237.81,-17.09 246.68,-22.87 248.35,-16.08"/>
</a>
</g>
</g>
<!-- Node11&#45;&gt;Node4 -->
<g id="edge15_Node000011_Node000004" class="edge">
<title>Node11&#45;&gt;Node4</title>
<g id="a_edge15_Node000011_Node000004"><a xlink:title=" ">
<path fill="none" stroke="#63b8ff" d="M493.55,-54.99C525.51,-44.94 568.06,-31.55 598.12,-22.1"/>
<polygon fill="#63b8ff" stroke="#63b8ff" points="599.31,-25.39 607.8,-19.05 597.21,-18.72 599.31,-25.39"/>
</a>
</g>
</g>
<!-- Node11&#45;&gt;Node9 -->
<g id="edge16_Node000011_Node000009" class="edge">
<title>Node11&#45;&gt;Node9</title>
<g id="a_edge16_Node000011_Node000009"><a xlink:title=" ">
<path fill="none" stroke="#63b8ff" d="M429.15,-54.84C416.52,-45.83 400.2,-34.18 387.45,-25.09"/>
<polygon fill="#63b8ff" stroke="#63b8ff" points="389.46,-22.22 379.29,-19.27 385.4,-27.92 389.46,-22.22"/>
</a>
</g>
</g>
<!-- Node12&#45;&gt;Node10 -->
<g id="edge19_Node000012_Node000010" class="edge">
<title>Node12&#45;&gt;Node10</title>
<g id="a_edge19_Node000012_Node000010"><a xlink:title=" ">
<path fill="none" stroke="#63b8ff" d="M555.86,-120.8C567.42,-112.1 582.39,-100.82 595.17,-91.2"/>
<polygon fill="#63b8ff" stroke="#63b8ff" points="597.31,-93.98 603.19,-85.16 593.09,-88.38 597.31,-93.98"/>
</a>
</g>
</g>
<!-- Node12&#45;&gt;Node11 -->
<g id="edge20_Node000012_Node000011" class="edge">
<title>Node12&#45;&gt;Node11</title>
<g id="a_edge20_Node000012_Node000011"><a xlink:title=" ">
<path fill="none" stroke="#63b8ff" d="M517.47,-120.8C505.51,-112.1 490.01,-100.82 476.78,-91.2"/>
<polygon fill="#63b8ff" stroke="#63b8ff" points="478.62,-88.22 468.48,-85.16 474.5,-93.88 478.62,-88.22"/>
</a>
</g>
</g>
<!-- Node14&#45;&gt;Node10 -->
<g id="edge29_Node000014_Node000010" class="edge">
<title>Node14&#45;&gt;Node10</title>
<g id="a_edge29_Node000014_Node000010"><a xlink:title=" ">
<path fill="none" stroke="#63b8ff" d="M714.88,-120.95C697.91,-111.83 675.58,-99.82 657.07,-89.86"/>
<polygon fill="#63b8ff" stroke="#63b8ff" points="658.52,-86.67 648.05,-85.01 655.2,-92.83 658.52,-86.67"/>
</a>
</g>
</g>
<!-- Node14&#45;&gt;Node11 -->
<g id="edge30_Node000014_Node000011" class="edge">
<title>Node14&#45;&gt;Node11</title>
<g id="a_edge30_Node000014_Node000011"><a xlink:title=" ">
<path fill="none" stroke="#63b8ff" d="M688.46,-123.48C638.94,-112.63 564.68,-96.36 512.01,-84.81"/>
<polygon fill="#63b8ff" stroke="#63b8ff" points="512.62,-81.36 502.1,-82.64 511.12,-88.2 512.62,-81.36"/>
</a>
</g>
</g>
</g>
</svg>
