<?xml version="1.0" encoding="UTF-8" standalone="no"?>
<!DOCTYPE svg PUBLIC "-//W3C//DTD SVG 1.1//EN"
 "http://www.w3.org/Graphics/SVG/1.1/DTD/svg11.dtd">
<!-- Generated by graphviz version 2.43.0 (0)
 -->
<!-- Title: include/safeapi/oal/ipc/sapi_ipc.h Pages: 1 -->
<svg width="465pt" height="181pt"
 viewBox="0.00 0.00 464.50 181.00" xmlns="http://www.w3.org/2000/svg" xmlns:xlink="http://www.w3.org/1999/xlink">
<g id="graph0" class="graph" transform="scale(1 1) rotate(0) translate(4 177)">
<title>include/safeapi/oal/ipc/sapi_ipc.h</title>
<!-- Node1 -->
<g id="Node000001" class="node">
<title>Node1</title>
<g id="a_Node000001"><a xlink:title="OS Abstraction Layer &#45; Inter&#45;process/inter&#45;task communication service.">
<polygon fill="#999999" stroke="#666666" points="331.5,-173 222.5,-173 222.5,-143 331.5,-143 331.5,-173"/>
<text text-anchor="start" x="230.5" y="-161" font-family="Helvetica,sans-Serif" font-size="10.00">include/safeapi/oal</text>
<text text-anchor="middle" x="277" y="-150" font-family="Helvetica,sans-Serif" font-size="10.00">/ipc/sapi_ipc.h</text>
</a>
</g>
</g>
<!-- Node2 -->
<g id="Node000002" class="node">
<title>Node2</title>
<g id="a_Node000002"><a xlink:href="sapi__ipc__pubsub_8h.html" target="_top" xlink:title="IPC Publish&#45;Subscribe Pattern (one&#45;to&#45;many broadcasting)">
<polygon fill="white" stroke="#666666" points="126,-101.5 0,-101.5 0,-71.5 126,-71.5 126,-101.5"/>
<text text-anchor="start" x="8" y="-89.5" font-family="Helvetica,sans-Serif" font-size="10.00">include/safeapi/oal</text>
<text text-anchor="middle" x="63" y="-78.5" font-family="Helvetica,sans-Serif" font-size="10.00">/ipc/sapi_ipc_pubsub.h</text>
</a>
</g>
</g>
<!-- Node1&#45;&gt;Node2 -->
<g id="edge1_Node000001_Node000002" class="edge">
<title>Node1&#45;&gt;Node2</title>
<g id="a_edge1_Node000001_Node000002"><a xlink:title=" ">
<path fill="none" stroke="#63b8ff" d="M223.79,-139.72C187.54,-127.95 140.16,-112.56 106.24,-101.54"/>
<polygon fill="#63b8ff" stroke="#63b8ff" points="223.1,-143.18 233.69,-142.94 225.26,-136.52 223.1,-143.18"/>
</a>
</g>
</g>
<!-- Node4 -->
<g id="Node000004" class="node">
<title>Node4</title>
<g id="a_Node000004"><a xlink:href="sapi__ipc__request__reply_8h.html" target="_top" xlink:title="IPC Request&#45;Reply Pattern (RPC&#45;style communication)">
<polygon fill="white" stroke="#666666" points="263.5,-107 144.5,-107 144.5,-66 263.5,-66 263.5,-107"/>
<text text-anchor="start" x="152.5" y="-95" font-family="Helvetica,sans-Serif" font-size="10.00">include/safeapi/oal</text>
<text text-anchor="start" x="152.5" y="-84" font-family="Helvetica,sans-Serif" font-size="10.00">/ipc/sapi_ipc_request</text>
<text text-anchor="middle" x="204" y="-73" font-family="Helvetica,sans-Serif" font-size="10.00">_reply.h</text>
</a>
</g>
</g>
<!-- Node1&#45;&gt;Node4 -->
<g id="edge3_Node000001_Node000004" class="edge">
<title>Node1&#45;&gt;Node4</title>
<g id="a_edge3_Node000001_Node000004"><a xlink:title=" ">
<path fill="none" stroke="#63b8ff" d="M254.9,-135.96C245.26,-126.78 234.02,-116.08 224.56,-107.07"/>
<polygon fill="#63b8ff" stroke="#63b8ff" points="252.57,-138.58 262.23,-142.94 257.4,-133.51 252.57,-138.58"/>
</a>
</g>
</g>
<!-- Node6 -->
<g id="Node000006" class="node">
<title>Node6</title>
<g id="a_Node000006"><a xlink:href="sapi__ipc__backend_8h.html" target="_top" xlink:title="OS&#45;backend adaptation surface for the IPC service (ADR&#45;005, ADR&#45;021).">
<polygon fill="white" stroke="#666666" points="418.5,-101.5 281.5,-101.5 281.5,-71.5 418.5,-71.5 418.5,-101.5"/>
<text text-anchor="start" x="289.5" y="-89.5" font-family="Helvetica,sans-Serif" font-size="10.00">include/safeapi_backend</text>
<text text-anchor="middle" x="350" y="-78.5" font-family="Helvetica,sans-Serif" font-size="10.00">/ipc/sapi_ipc_backend.h</text>
</a>
</g>
</g>
<!-- Node1&#45;&gt;Node6 -->
<g id="edge5_Node000001_Node000006" class="edge">
<title>Node1&#45;&gt;Node6</title>
<g id="a_edge5_Node000001_Node000006"><a xlink:title=" ">
<path fill="none" stroke="#63b8ff" d="M299.07,-135.99C310.78,-124.84 324.87,-111.43 335.25,-101.54"/>
<polygon fill="#63b8ff" stroke="#63b8ff" points="296.6,-133.51 291.77,-142.94 301.43,-138.58 296.6,-133.51"/>
</a>
</g>
</g>
<!-- Node7 -->
<g id="Node000007" class="node">
<title>Node7</title>
<g id="a_Node000007"><a xlink:href="sapi__ipc_8c.html" target="_top" xlink:title="IPC service: validates parameters, then dispatches to the backend registered via sapi_ipc_register_ba...">
<polygon fill="white" stroke="#666666" points="456.5,-24.5 339.5,-24.5 339.5,-5.5 456.5,-5.5 456.5,-24.5"/>
<text text-anchor="middle" x="398" y="-12.5" font-family="Helvetica,sans-Serif" font-size="10.00">src/oal/ipc/sapi_ipc.c</text>
</a>
</g>
</g>
<!-- Node1&#45;&gt;Node7 -->
<g id="edge7_Node000001_Node000007" class="edge">
<title>Node1&#45;&gt;Node7</title>
<g id="a_edge7_Node000001_Node000007"><a xlink:title=" ">
<path fill="none" stroke="#63b8ff" d="M341.73,-152.67C373.16,-146.91 408.3,-134.27 428,-107 446.99,-80.7 419.64,-41.67 405.53,-24.56"/>
<polygon fill="#63b8ff" stroke="#63b8ff" points="340.99,-149.24 331.68,-154.3 342.12,-156.15 340.99,-149.24"/>
</a>
</g>
</g>
<!-- Node3 -->
<g id="Node000003" class="node">
<title>Node3</title>
<g id="a_Node000003"><a xlink:href="sapi__ipc__pubsub_8c.html" target="_top" xlink:title="IPC Publish&#45;Subscribe implementation.">
<polygon fill="white" stroke="#666666" points="117.5,-30 8.5,-30 8.5,0 117.5,0 117.5,-30"/>
<text text-anchor="start" x="16.5" y="-18" font-family="Helvetica,sans-Serif" font-size="10.00">src/oal/ipc/sapi_ipc</text>
<text text-anchor="middle" x="63" y="-7" font-family="Helvetica,sans-Serif" font-size="10.00">_pubsub.c</text>
</a>
</g>
</g>
<!-- Node2&#45;&gt;Node3 -->
<g id="edge2_Node000002_Node000003" class="edge">
<title>Node2&#45;&gt;Node3</title>
<g id="a_edge2_Node000002_Node000003"><a xlink:title=" ">
<path fill="none" stroke="#63b8ff" d="M63,-61.25C63,-50.81 63,-38.99 63,-30.04"/>
<polygon fill="#63b8ff" stroke="#63b8ff" points="59.5,-61.44 63,-71.44 66.5,-61.44 59.5,-61.44"/>
</a>
</g>
</g>
<!-- Node5 -->
<g id="Node000005" class="node">
<title>Node5</title>
<g id="a_Node000005"><a xlink:href="sapi__ipc__request__reply_8c.html" target="_top" xlink:title="IPC Request&#45;Reply implementation.">
<polygon fill="white" stroke="#666666" points="258.5,-30 149.5,-30 149.5,0 258.5,0 258.5,-30"/>
<text text-anchor="start" x="157.5" y="-18" font-family="Helvetica,sans-Serif" font-size="10.00">src/oal/ipc/sapi_ipc</text>
<text text-anchor="middle" x="204" y="-7" font-family="Helvetica,sans-Serif" font-size="10.00">_request_reply.c</text>
</a>
</g>
</g>
<!-- Node4&#45;&gt;Node5 -->
<g id="edge4_Node000004_Node000005" class="edge">
<title>Node4&#45;&gt;Node5</title>
<g id="a_edge4_Node000004_Node000005"><a xlink:title=" ">
<path fill="none" stroke="#63b8ff" d="M204,-55.66C204,-46.76 204,-37.42 204,-30.04"/>
<polygon fill="#63b8ff" stroke="#63b8ff" points="200.5,-55.77 204,-65.77 207.5,-55.77 200.5,-55.77"/>
</a>
</g>
</g>
<!-- Node6&#45;&gt;Node7 -->
<g id="edge6_Node000006_Node000007" class="edge">
<title>Node6&#45;&gt;Node7</title>
<g id="a_edge6_Node000006_Node000007"><a xlink:title=" ">
<path fill="none" stroke="#63b8ff" d="M365.57,-62.95C374.56,-49.94 385.36,-34.31 391.95,-24.77"/>
<polygon fill="#63b8ff" stroke="#63b8ff" points="362.52,-61.22 359.71,-71.44 368.28,-65.2 362.52,-61.22"/>
</a>
</g>
</g>
</g>
</svg>
